SplineFontDB: 3.0
FontName: Junicode-Bold
FullName: Junicode Bold
FamilyName: Junicode
Weight: Bold
Copyright: Copyright (c) 2001-2012 by Peter S. Baker
Version: 0.7.8
ItalicAngle: 0
UnderlinePosition: -100
UnderlineWidth: 70
Ascent: 1638
Descent: 410
LayerCount: 2
Layer: 0 1 "Back"  1
Layer: 1 1 "Fore"  0
XUID: [1021 85 1589297001 3653894]
FSType: 0
OS2Version: 0
OS2_WeightWidthSlopeOnly: 0
OS2_UseTypoMetrics: 1
CreationTime: 1159967861
ModificationTime: 1356639096
PfmFamily: 17
TTFWeight: 700
TTFWidth: 5
LineGap: 385
VLineGap: 0
Panose: 2 4 8 2 0 0 0 0 0 0
OS2TypoAscent: 2100
OS2TypoAOffset: 0
OS2TypoDescent: -845
OS2TypoDOffset: 0
OS2TypoLinegap: 385
OS2WinAscent: 2100
OS2WinAOffset: 0
OS2WinDescent: 845
OS2WinDOffset: 0
HheadAscent: 2100
HheadAOffset: 0
HheadDescent: -845
HheadDOffset: 0
OS2SubXSize: 409
OS2SubYSize: 409
OS2SubXOff: 0
OS2SubYOff: 409
OS2SupXSize: 409
OS2SupYSize: 409
OS2SupXOff: 0
OS2SupYOff: 409
OS2StrikeYSize: 102
OS2StrikeYPos: 530
OS2FamilyClass: 256
OS2Vendor: 'psbk'
Lookup: 4 0 0 "'ccmp' Glyph Composition Decompositi"  {"'ccmp' Glyph Composition Decomposition subtable"  } ['ccmp' ('DFLT' <'dflt' > 'latn' <'ISL ' 'TRK ' 'dflt' > ) ]
Lookup: 5 0 0 "'ccmp' Contextual dot stripper"  {"'ccmp' Contextual dot stripper-1"  } ['ccmp' ('DFLT' <'dflt' > 'latn' <'ISL ' 'TRK ' 'dflt' > ) ]
Lookup: 1 0 0 "'sups' Superscript in Latin lookup 8"  {"'sups' Superscript in Latin lookup 8"  } ['sups' ('DFLT' <'dflt' > 'grek' <'dflt' > 'latn' <'ISL ' 'TRK ' 'dflt' > 'runr' <'dflt' > ) ]
Lookup: 1 0 0 "'onum' Oldstyle Figures in Latin lookup 9"  {"'onum' Oldstyle Figures in Latin lookup 9"  } ['onum' ('DFLT' <'dflt' > 'latn' <'ISL ' 'TRK ' 'dflt' > ) ]
Lookup: 1 0 0 "'swsh' Swash lookup 23"  {"'swsh' Swash lookup 23-1" ("swash" ) } ['swsh' ('DFLT' <'dflt' > 'grek' <'dflt' > 'latn' <'ISL ' 'TRK ' 'dflt' > 'runr' <'dflt' > ) ]

StartChar: exclam
Encoding: 33 33 1
Width: 520
GlyphClass: 2
Flags: W
LayerCount: 2
Fore
SplineSet
418 116 m 256,0,1
 418 54 418 54 373.5 14.5 c 128,-1,2
 329 -25 329 -25 262 -25 c 128,-1,3
 195 -25 195 -25 149.5 18.5 c 128,-1,4
 104 62 104 62 104 123.5 c 128,-1,5
 104 185 104 185 145 232 c 128,-1,6
 186 279 186 279 262.5 279 c 128,-1,7
 339 279 339 279 378.5 231 c 128,-1,8
 418 183 418 183 418 116 c 256,0,1
401 1280 m 0,9,10
 401 1162 401 1162 332 686 c 0,11,12
 319 596 319 596 311 440 c 0,13,14
 310 420 310 420 260 420 c 128,-1,15
 210 420 210 420 209 440 c 0,16,17
 207 542 207 542 168 878.5 c 128,-1,18
 129 1215 129 1215 129 1247 c 0,19,20
 129 1318 129 1318 171 1358.5 c 128,-1,21
 213 1399 213 1399 264 1399 c 0,22,23
 331 1399 331 1399 366 1364 c 128,-1,24
 401 1329 401 1329 401 1280 c 0,9,10
EndSplineSet
Substitution2: "'c2sc' Capitals to Small Capitals in Latin lookup 21-1" exclam.sc
Substitution2: "'ss18' alt punct spacing-1" exclam.alt
EndChar

StartChar: numbersign
Encoding: 35 35 3
Width: 1015
GlyphClass: 2
Flags: W
LayerCount: 2
Fore
SplineSet
993 934 m 1,0,-1
 993 803 l 1,1,-1
 780 803 l 1,2,-1
 702 514 l 1,3,-1
 883 514 l 1,4,-1
 883 381 l 1,5,-1
 668 381 l 1,6,-1
 569 10 l 1,7,-1
 434 10 l 1,8,-1
 532 381 l 1,9,-1
 352 381 l 1,10,-1
 254 10 l 1,11,-1
 119 10 l 1,12,-1
 219 381 l 1,13,-1
 25 381 l 1,14,-1
 25 514 l 1,15,-1
 254 514 l 1,16,-1
 330 803 l 1,17,-1
 135 803 l 1,18,-1
 135 934 l 1,19,-1
 365 934 l 1,20,-1
 449 1249 l 1,21,-1
 584 1249 l 1,22,-1
 500 934 l 1,23,-1
 680 934 l 1,24,-1
 764 1249 l 1,25,-1
 899 1249 l 1,26,-1
 815 934 l 1,27,-1
 993 934 l 1,0,-1
645 803 m 1,28,-1
 465 803 l 1,29,-1
 389 514 l 1,30,-1
 569 514 l 1,31,-1
 645 803 l 1,28,-1
EndSplineSet
Substitution2: "'c2sc' Capitals to Small Capitals in Latin lookup 21-1" numbersign.sc
EndChar

StartChar: dollar
Encoding: 36 36 4
Width: 1030
GlyphClass: 2
Flags: W
LayerCount: 2
Fore
SplineSet
936 408 m 256,0,1
 936 218 936 218 831.5 106.5 c 128,-1,2
 727 -5 727 -5 563 -16 c 1,3,-1
 563 -150 l 2,4,5
 563 -167 563 -167 500.5 -165 c 128,-1,6
 438 -163 438 -163 438 -150 c 2,7,-1
 438 -14 l 1,8,9
 287 6 287 6 158 76 c 1,10,11
 105 224 105 224 105 358 c 0,12,13
 105 368 105 368 106 375 c 0,14,15
 108 400 108 400 152.5 401 c 128,-1,16
 197 402 197 402 199 381 c 0,17,18
 207 273 207 273 277.5 194 c 128,-1,19
 348 115 348 115 438 88 c 1,20,-1
 438 580 l 1,21,22
 259 645 259 645 178.5 734 c 128,-1,23
 98 823 98 823 98 995 c 256,24,25
 98 1100 98 1100 187 1204.5 c 128,-1,26
 276 1309 276 1309 438 1329 c 1,27,-1
 438 1466 l 2,28,29
 438 1482 438 1482 500.5 1481.5 c 128,-1,30
 563 1481 563 1481 563 1466 c 2,31,-1
 563 1329 l 1,32,33
 656 1324 656 1324 705.5 1312 c 128,-1,34
 755 1300 755 1300 769.5 1300 c 128,-1,35
 784 1300 784 1300 799 1303 c 1,36,37
 845 1172 845 1172 844 1032 c 0,38,39
 845 1019 845 1019 802.5 1013 c 128,-1,40
 760 1007 760 1007 756 1022 c 0,41,42
 732 1132 732 1132 674 1181 c 128,-1,43
 616 1230 616 1230 563 1241 c 1,44,-1
 563 797 l 1,45,46
 812 721 812 721 874 619 c 128,-1,47
 936 517 936 517 936 408 c 256,0,1
438 840 m 1,48,-1
 438 1245 l 1,49,50
 297 1195 297 1195 297 1045 c 256,51,52
 297 895 297 895 438 840 c 1,48,-1
737 301 m 0,53,54
 737 460 737 460 563 532 c 1,55,-1
 563 74 l 1,56,57
 737 116 737 116 737 301 c 0,53,54
EndSplineSet
Substitution2: "'onum' Oldstyle Figures in Latin lookup 9" dollar.oldstyle
EndChar

StartChar: percent
Encoding: 37 37 5
Width: 1822
GlyphClass: 2
Flags: W
LayerCount: 2
Fore
SplineSet
791 973 m 0,0,1
 791 811 791 811 713 693 c 0,2,3
 617 547 617 547 442 547 c 0,4,5
 282 547 282 547 180 693 c 0,6,7
 98 811 98 811 98 973 c 0,8,9
 98 1124 98 1124 171 1243 c 0,10,11
 267 1399 267 1399 442 1399 c 0,12,13
 619 1399 619 1399 717 1244 c 0,14,15
 791 1125 791 1125 791 973 c 0,0,1
584 975 m 0,16,17
 584 1311 584 1311 442 1311 c 0,18,19
 305 1311 305 1311 305 975 c 0,20,21
 305 635 305 635 442 635 c 0,22,23
 584 635 584 635 584 975 c 0,16,17
1432 1370 m 2,24,-1
 557 -82 l 2,25,26
 549 -95 549 -95 495 -62 c 0,27,28
 451 -33 451 -33 459 -20 c 2,29,-1
 1331 1427 l 2,30,31
 1338 1439 1338 1439 1392 1410 c 0,32,33
 1440 1383 1440 1383 1432 1370 c 2,24,-1
1801 405 m 0,34,35
 1801 243 1801 243 1723 125 c 0,36,37
 1627 -21 1627 -21 1452 -21 c 0,38,39
 1292 -21 1292 -21 1190 125 c 0,40,41
 1108 243 1108 243 1108 405 c 0,42,43
 1108 556 1108 556 1181 675 c 0,44,45
 1277 831 1277 831 1452 831 c 0,46,47
 1631 831 1631 831 1727 676 c 0,48,49
 1801 557 1801 557 1801 405 c 0,34,35
1594 407 m 0,50,51
 1594 743 1594 743 1452 743 c 0,52,53
 1315 743 1315 743 1315 407 c 0,54,55
 1315 67 1315 67 1452 67 c 0,56,57
 1594 67 1594 67 1594 407 c 0,50,51
EndSplineSet
Substitution2: "'c2sc' Capitals to Small Capitals in Latin lookup 21-1" percent.sc
EndChar

StartChar: ampersand
Encoding: 38 38 6
Width: 1703
GlyphClass: 2
Flags: W
LayerCount: 2
Fore
SplineSet
1693 192 m 0,0,1
 1709 176 1709 176 1709 164 c 0,2,3
 1709 158 1709 158 1705 153 c 0,4,5
 1609 27 1609 27 1444 -14 c 0,6,7
 1384 -29 1384 -29 1323 -29 c 0,8,9
 1120 -29 1120 -29 958 198 c 1,10,11
 733 -28 733 -28 496 -29 c 0,12,13
 250 -29 250 -29 130 123 c 0,14,15
 39 238 39 238 39 373 c 0,16,17
 39 615 39 615 384 793 c 1,18,19
 221 911 221 911 221 1063 c 0,20,21
 221 1198 221 1198 325 1286 c 0,22,23
 427 1372 427 1372 557 1372 c 0,24,25
 724 1372 724 1372 822 1250 c 0,26,27
 870 1190 870 1190 870 1096 c 0,28,29
 870 956 870 956 691 849 c 1,30,31
 887 710 887 710 1051 478 c 1,32,33
 1218 716 1218 716 1218 760 c 0,34,35
 1218 819 1218 819 1094 819 c 0,36,37
 1078 819 1078 819 1078 869 c 128,-1,38
 1078 919 1078 919 1094 919 c 0,39,40
 1178 912 1178 912 1365 912 c 0,41,42
 1554 912 1554 912 1608 919 c 0,43,44
 1623 919 1623 919 1623 869 c 128,-1,45
 1623 819 1623 819 1608 819 c 0,46,47
 1468 819 1468 819 1395 760 c 0,48,49
 1336 704 1336 704 1272 606 c 0,50,51
 1197 491 1197 491 1113 382 c 1,52,53
 1279 135 1279 135 1460 135 c 0,54,55
 1591 135 1591 135 1657 201 c 0,56,57
 1662 205 1662 205 1668 205 c 0,58,59
 1678 205 1678 205 1693 192 c 0,0,1
676 1102 m 0,60,61
 676 1274 676 1274 550 1274 c 0,62,63
 432 1274 432 1274 432 1110 c 0,64,65
 432 1009 432 1009 596 907 c 1,66,67
 676 985 676 985 676 1102 c 0,60,61
903 279 m 1,68,69
 707 575 707 575 472 736 c 1,70,71
 258 609 258 609 258 414 c 0,72,73
 258 277 258 277 345 185 c 0,74,75
 435 90 435 90 580 90 c 0,76,77
 734 90 734 90 903 279 c 1,68,69
EndSplineSet
Substitution2: "'c2sc' Capitals to Small Capitals in Latin lookup 21-1" ampersand.sc
Substitution2: "'ss02' Style Set 2 in Latin lookup 5" uni204A
EndChar

StartChar: quotesingle
Encoding: 39 39 7
Width: 421
GlyphClass: 2
Flags: W
LayerCount: 2
Fore
SplineSet
344 1374 m 0,0,1
 344 1357 344 1357 305 1151 c 0,2,3
 272 978 272 978 272 944 c 0,4,5
 272 929 272 929 213 929 c 0,6,7
 152 929 152 929 152 944 c 0,8,9
 152 1005 152 1005 100 1253 c 0,10,11
 80 1345 80 1345 80 1372 c 0,12,13
 80 1481 80 1481 213 1481 c 0,14,15
 344 1481 344 1481 344 1374 c 0,0,1
EndSplineSet
EndChar

StartChar: parenleft
Encoding: 40 40 8
Width: 675
GlyphClass: 2
Flags: W
LayerCount: 2
Fore
SplineSet
653 1483 m 0,0,1
 653 1458 653 1458 627 1428 c 2,2,-1
 623 1423 l 2,3,4
 338 1137 338 1137 338 588 c 0,5,6
 338 29 338 29 623 -250 c 0,7,8
 649 -276 649 -276 649 -309 c 0,9,10
 649 -354 649 -354 606 -354 c 0,11,12
 572 -354 572 -354 543 -330 c 0,13,14
 423 -218 423 -218 363 -144 c 0,15,16
 123 154 123 154 123 588 c 0,17,18
 123 847 123 847 264 1141 c 0,19,20
 357 1339 357 1339 543 1505 c 0,21,22
 569 1530 569 1530 606 1530 c 0,23,24
 653 1530 653 1530 653 1483 c 0,0,1
EndSplineSet
Substitution2: "'c2sc' Capitals to Small Capitals in Latin lookup 21-1" parenleft.sc
EndChar

StartChar: parenright
Encoding: 41 41 9
Width: 675
GlyphClass: 2
Flags: W
LayerCount: 2
Fore
SplineSet
553 588 m 0,0,1
 553 333 553 333 412 35 c 0,2,3
 319 -162 319 -162 133 -330 c 0,4,5
 107 -354 107 -354 70 -354 c 0,6,7
 27 -354 27 -354 27 -313 c 0,8,9
 27 -282 27 -282 53 -256 c 0,10,11
 226 -81 226 -81 298 224 c 0,12,13
 338 396 338 396 338 588 c 0,14,15
 338 958 338 958 196 1228 c 0,16,17
 134 1345 134 1345 53 1425 c 0,18,19
 29 1451 29 1451 29 1485 c 0,20,21
 29 1530 29 1530 70 1530 c 0,22,23
 107 1530 107 1530 133 1505 c 0,24,25
 249 1397 249 1397 305 1329 c 0,26,27
 553 1027 553 1027 553 588 c 0,0,1
EndSplineSet
Substitution2: "'c2sc' Capitals to Small Capitals in Latin lookup 21-1" parenright.sc
EndChar

StartChar: asterisk
Encoding: 42 42 10
Width: 829
GlyphClass: 2
Flags: W
LayerCount: 2
Fore
SplineSet
356 641 m 1,0,-1
 356 915 l 1,1,-1
 121 778 l 1,2,-1
 66 874 l 1,3,-1
 301 1012 l 1,4,-1
 66 1147 l 1,5,-1
 121 1243 l 1,6,-1
 356 1108 l 1,7,-1
 356 1380 l 1,8,-1
 467 1380 l 1,9,-1
 467 1108 l 1,10,-1
 702 1243 l 1,11,-1
 757 1147 l 1,12,-1
 522 1012 l 1,13,-1
 757 874 l 1,14,-1
 702 778 l 1,15,-1
 467 915 l 1,16,-1
 467 641 l 1,17,-1
 356 641 l 1,0,-1
EndSplineSet
EndChar

StartChar: plus
Encoding: 43 43 11
Width: 1064
GlyphClass: 2
Flags: W
LayerCount: 2
Fore
SplineSet
944 362 m 1,0,-1
 625 362 l 1,1,-1
 625 0 l 1,2,-1
 444 0 l 1,3,-1
 444 362 l 1,4,-1
 123 362 l 1,5,-1
 123 510 l 1,6,-1
 444 510 l 1,7,-1
 444 836 l 1,8,-1
 625 836 l 1,9,-1
 625 510 l 1,10,-1
 944 510 l 1,11,-1
 944 362 l 1,0,-1
EndSplineSet
EndChar

StartChar: comma
Encoding: 44 44 12
Width: 520
GlyphClass: 2
Flags: W
LayerCount: 2
Fore
SplineSet
453 49 m 0,0,1
 453 -84 453 -84 358.5 -200 c 128,-1,2
 264 -316 264 -316 145 -373 c 0,3,4
 122 -384 122 -384 109 -364 c 128,-1,5
 96 -344 96 -344 109 -330 c 0,6,7
 246 -168 246 -168 246 -64 c 0,8,9
 246 -43 246 -43 213 -32 c 128,-1,10
 180 -21 180 -21 136 25.5 c 128,-1,11
 92 72 92 72 92 132 c 128,-1,12
 92 192 92 192 140 230 c 128,-1,13
 188 268 188 268 255.5 268 c 128,-1,14
 323 268 323 268 388 206.5 c 128,-1,15
 453 145 453 145 453 49 c 0,0,1
EndSplineSet
EndChar

StartChar: hyphen
Encoding: 45 45 13
Width: 827
GlyphClass: 2
Flags: W
LayerCount: 2
Fore
SplineSet
698 610 m 2,0,1
 718 610 718 610 718 544.5 c 128,-1,2
 718 479 718 479 696 479 c 2,3,-1
 125 479 l 2,4,5
 106 479 106 479 106 544.5 c 128,-1,6
 106 610 106 610 125 610 c 2,7,-1
 698 610 l 2,0,1
EndSplineSet
EndChar

StartChar: period
Encoding: 46 46 14
Width: 520
GlyphClass: 2
Flags: W
LayerCount: 2
Fore
SplineSet
418 109 m 256,0,1
 418 53 418 53 373 13.5 c 128,-1,2
 328 -26 328 -26 263 -25.5 c 128,-1,3
 198 -25 198 -25 151 18.5 c 128,-1,4
 104 62 104 62 104 125 c 128,-1,5
 104 188 104 188 145.5 233.5 c 128,-1,6
 187 279 187 279 263 279 c 128,-1,7
 339 279 339 279 378.5 229.5 c 128,-1,8
 418 180 418 180 418 109 c 256,0,1
EndSplineSet
EndChar

StartChar: slash
Encoding: 47 47 15
Width: 716
GlyphClass: 2
Flags: W
LayerCount: 2
Fore
SplineSet
733 1423 m 1,0,-1
 121 -18 l 2,1,2
 117 -27 117 -27 100 -27 c 0,3,4
 60 -27 60 -27 13 2 c 0,5,6
 -15 19 -15 19 -15 33 c 0,7,8
 -15 36 -15 36 -14 39 c 2,9,-1
 596 1479 l 2,10,11
 599 1486 599 1486 615 1486 c 0,12,13
 657 1486 657 1486 705 1459 c 0,14,15
 731 1444 731 1444 734 1431 c 1,16,-1
 733 1423 l 1,0,-1
EndSplineSet
EndChar

StartChar: zero
Encoding: 48 48 16
Width: 956
GlyphClass: 2
Flags: W
LayerCount: 2
Fore
SplineSet
924 643 m 0,0,1
 924 440 924 440 854 270 c 0,2,3
 737 -16 737 -16 477 -16 c 0,4,5
 208 -16 208 -16 97 275 c 0,6,7
 33 443 33 443 33 668 c 0,8,9
 33 899 33 899 110 1072 c 0,10,11
 226 1333 226 1333 479 1333 c 0,12,13
 742 1333 742 1333 855 1049 c 0,14,15
 924 874 924 874 924 643 c 0,0,1
672 633 m 2,16,17
 672 907 672 907 633 1069 c 0,18,19
 592 1243 592 1243 481 1243 c 0,20,21
 323 1243 323 1243 289 889 c 0,22,23
 281 801 281 801 281 680 c 0,24,25
 281 422 281 422 310 297 c 0,26,27
 361 76 361 76 475 76 c 0,28,29
 672 76 672 76 672 571 c 2,30,-1
 672 633 l 2,16,17
EndSplineSet
Substitution2: "'onum' Oldstyle Figures in Latin lookup 9" zero.oldstyle
EndChar

StartChar: one
Encoding: 49 49 17
Width: 956
GlyphClass: 2
Flags: W
LayerCount: 2
Fore
SplineSet
614 283 m 2,0,1
 614 156 614 156 649 112 c 0,2,3
 685 68 685 68 776 68 c 0,4,5
 791 68 791 68 791 30 c 128,-1,6
 791 -8 791 -8 776 -8 c 1,7,8
 696 0 696 0 494 0 c 0,9,10
 289 0 289 0 209 -8 c 1,11,12
 194 -8 194 -8 194 30 c 128,-1,13
 194 68 194 68 209 68 c 0,14,15
 318 68 318 68 354 118 c 0,16,17
 387 163 387 163 387 281 c 2,18,-1
 387 1087 l 2,19,20
 387 1152 387 1152 366 1144 c 0,21,22
 261 1109 261 1109 205 1081 c 0,23,24
 185 1071 185 1071 174 1103 c 128,-1,25
 163 1135 163 1135 182 1141 c 0,26,27
 314 1196 314 1196 530 1354 c 0,28,29
 557 1374 557 1374 578 1374 c 0,30,31
 621 1374 621 1374 621 1321 c 0,32,33
 614 1250 614 1250 614 1161 c 2,34,-1
 614 283 l 2,0,1
EndSplineSet
Substitution2: "'sups' Superscript in Latin lookup 8" uni00B9
Substitution2: "'onum' Oldstyle Figures in Latin lookup 9" one.oldstyle
EndChar

StartChar: two
Encoding: 50 50 18
Width: 956
GlyphClass: 2
Flags: W
LayerCount: 2
Fore
SplineSet
799 31 m 2,0,1
 782 -8 782 -8 719 -8 c 0,2,3
 584 0 584 0 473 0 c 2,4,-1
 393 0 l 2,5,6
 232 0 232 0 51 -8 c 0,7,8
 -2 -8 -2 -8 -2 39 c 0,9,10
 -2 60 -2 60 18 80 c 0,11,12
 178 240 178 240 333 450 c 0,13,14
 588 797 588 797 588 979 c 0,15,16
 583 1184 583 1184 416 1184 c 0,17,18
 267 1184 267 1184 174 1020 c 0,19,20
 162 998 162 998 126 1021 c 0,21,22
 99 1038 99 1038 109 1055 c 0,23,24
 190 1213 190 1213 319 1286 c 0,25,26
 403 1333 403 1333 496 1333 c 0,27,28
 660 1333 660 1333 758 1223 c 0,29,30
 844 1127 844 1127 844 989 c 0,31,32
 844 798 844 798 569 490 c 0,33,34
 510 424 510 424 279 193 c 1,35,-1
 575 193 l 2,36,37
 690 193 690 193 733 211 c 0,38,39
 783 233 783 233 811 291 c 0,40,41
 822 312 822 312 864 295 c 0,42,43
 903 280 903 280 898 266 c 2,44,-1
 799 31 l 2,0,1
EndSplineSet
Substitution2: "'sups' Superscript in Latin lookup 8" uni00B2
Substitution2: "'onum' Oldstyle Figures in Latin lookup 9" two.oldstyle
EndChar

StartChar: three
Encoding: 51 51 19
Width: 956
GlyphClass: 2
Flags: W
LayerCount: 2
Fore
SplineSet
856 426 m 0,0,1
 856 252 856 252 732 125 c 0,2,3
 588 -23 588 -23 371 -23 c 0,4,5
 227 -23 227 -23 138 26 c 0,6,7
 59 69 59 69 59 143 c 0,8,9
 59 240 59 240 181 240 c 0,10,11
 226 240 226 240 273 185 c 2,12,-1
 324 125 l 2,13,14
 370 78 370 78 424 78 c 0,15,16
 525 78 525 78 578 211 c 0,17,18
 612 298 612 298 612 401 c 0,19,20
 612 534 612 534 531 611 c 0,21,22
 466 674 466 674 367 674 c 0,23,24
 308 674 308 674 260 657 c 1,25,26
 232 657 232 657 232 713 c 0,27,28
 232 764 232 764 254 764 c 0,29,30
 408 764 408 764 495 848 c 0,31,32
 563 913 563 913 563 1008 c 0,33,34
 563 1108 563 1108 508 1164 c 0,35,36
 469 1204 469 1204 412 1204 c 0,37,38
 321 1204 321 1204 244 1121 c 0,39,40
 214 1088 214 1088 188 1049 c 0,41,42
 174 1028 174 1028 139 1056 c 0,43,44
 112 1076 112 1076 123 1094 c 0,45,46
 218 1235 218 1235 305 1287 c 0,47,48
 383 1333 383 1333 479 1333 c 0,49,50
 612 1333 612 1333 703 1239 c 0,51,52
 788 1152 788 1152 788 1032 c 0,53,54
 788 861 788 861 616 760 c 1,55,56
 856 689 856 689 856 426 c 0,0,1
EndSplineSet
Substitution2: "'sups' Superscript in Latin lookup 8" uni00B3
Substitution2: "'onum' Oldstyle Figures in Latin lookup 9" three.oldstyle
EndChar

StartChar: four
Encoding: 52 52 20
Width: 956
GlyphClass: 2
Flags: W
LayerCount: 2
Fore
SplineSet
768 156 m 2,0,1
 768 68 768 68 870 68 c 0,2,3
 885 68 885 68 885 30 c 128,-1,4
 885 -8 885 -8 870 -8 c 1,5,6
 790 0 790 0 662 0 c 0,7,8
 483 0 483 0 399 -8 c 1,9,10
 384 -8 384 -8 384 30 c 128,-1,11
 384 68 384 68 399 68 c 0,12,13
 541 68 541 68 541 156 c 2,14,-1
 541 371 l 1,15,-1
 80 371 l 2,16,17
 -7 371 -7 371 -7 429 c 0,18,19
 -7 478 -7 478 45 551 c 2,20,-1
 334 934 l 2,21,22
 522 1183 522 1183 572 1263 c 2,23,-1
 666 1413 l 2,24,25
 681 1430 681 1430 710 1430 c 0,26,27
 795 1430 795 1430 795 1377 c 0,28,29
 795 1368 795 1368 791 1360 c 2,30,-1
 174 545 l 2,31,32
 165 533 165 533 165 523 c 0,33,34
 165 504 165 504 184 504 c 2,35,-1
 541 504 l 1,36,-1
 541 932 l 2,37,38
 541 954 541 954 653 954 c 0,39,40
 768 954 768 954 768 932 c 2,41,-1
 768 504 l 1,42,-1
 891 504 l 2,43,44
 906 504 906 504 906 438 c 0,45,46
 906 371 906 371 891 371 c 2,47,-1
 768 371 l 1,48,-1
 768 156 l 2,0,1
EndSplineSet
Substitution2: "'onum' Oldstyle Figures in Latin lookup 9" four.oldstyle
EndChar

StartChar: five
Encoding: 53 53 21
Width: 956
GlyphClass: 2
Flags: W
LayerCount: 2
Fore
SplineSet
850 504 m 0,0,1
 850 310 850 310 733 167 c 0,2,3
 583 -16 583 -16 334 -16 c 0,4,5
 187 -16 187 -16 110 35 c 0,6,7
 55 71 55 71 55 129 c 0,8,9
 55 182 55 182 90 208 c 0,10,11
 121 231 121 231 169 231 c 0,12,13
 231 231 231 231 275 178 c 0,14,15
 349 92 349 92 418 92 c 0,16,17
 524 90 524 90 597 200 c 0,18,19
 658 291 658 291 659 397 c 0,20,21
 659 550 659 550 554 634 c 0,22,23
 470 702 470 702 344 702 c 0,24,25
 279 702 279 702 207 682 c 0,26,27
 191 677 191 677 180 677 c 0,28,29
 144 677 144 677 148 711 c 0,30,31
 191 989 191 989 244 1262 c 0,32,33
 254 1317 254 1317 313 1317 c 2,34,-1
 815 1317 l 2,35,36
 821 1317 821 1317 821 1297 c 0,37,38
 821 1278 821 1278 816 1242 c 0,39,40
 799 1130 799 1130 780 1130 c 2,41,-1
 365 1130 l 2,42,43
 330 1130 330 1130 328 1116 c 0,44,45
 305 1023 305 1023 296 925 c 0,46,47
 295 909 295 909 311 912 c 0,48,49
 352 918 352 918 383 918 c 0,50,51
 615 918 615 918 741 792 c 0,52,53
 850 683 850 683 850 504 c 0,0,1
EndSplineSet
Substitution2: "'onum' Oldstyle Figures in Latin lookup 9" five.oldstyle
EndChar

StartChar: six
Encoding: 54 54 22
Width: 956
GlyphClass: 2
Flags: W
LayerCount: 2
Fore
SplineSet
901 406 m 0,0,1
 901 241 901 241 793 122 c 0,2,3
 668 -16 668 -16 473 -16 c 0,4,5
 248 -16 248 -16 138 171 c 0,6,7
 63 300 63 300 63 475 c 0,8,9
 63 730 63 730 241 977 c 0,10,11
 446 1259 446 1259 762 1385 c 0,12,13
 765 1386 765 1386 767 1386 c 0,14,15
 781 1386 781 1386 792 1360 c 0,16,17
 799 1343 799 1343 799 1334 c 0,18,19
 799 1324 799 1324 793 1321 c 0,20,21
 553 1189 553 1189 421 934 c 0,22,23
 359 814 359 814 330 686 c 1,24,25
 389 761 389 761 486 788 c 0,26,27
 518 797 518 797 549 797 c 0,28,29
 711 797 711 797 814 666 c 0,30,31
 901 555 901 555 901 406 c 0,0,1
682 348 m 0,32,33
 682 449 682 449 623 546 c 0,34,35
 563 643 563 643 469 643 c 0,36,37
 378 643 378 643 309 565 c 1,38,39
 301 525 301 525 301 473 c 0,40,41
 301 88 301 88 498 88 c 0,42,43
 604 88 604 88 653 201 c 0,44,45
 682 266 682 266 682 348 c 0,32,33
EndSplineSet
Substitution2: "'onum' Oldstyle Figures in Latin lookup 9" six.oldstyle
EndChar

StartChar: seven
Encoding: 55 55 23
Width: 956
GlyphClass: 2
Flags: W
LayerCount: 2
Fore
SplineSet
406 0 m 2,0,1
 397 -22 397 -22 314 -22 c 0,2,3
 226 -22 226 -22 179 3 c 0,4,5
 174 7 174 7 174 20 c 1,6,-1
 723 1141 l 1,7,-1
 426 1141 l 2,8,9
 311 1141 311 1141 253 1113 c 0,10,11
 189 1081 189 1081 160 1012 c 0,12,13
 154 995 154 995 118 995 c 0,14,15
 65 995 65 995 70 1018 c 2,16,-1
 121 1260 l 2,17,18
 129 1299 129 1299 139 1308 c 0,19,20
 150 1317 150 1317 176 1317 c 2,21,-1
 858 1317 l 2,22,23
 914 1317 914 1317 914 1284 c 0,24,25
 914 1275 914 1275 909 1263 c 2,26,-1
 406 0 l 2,0,1
EndSplineSet
Substitution2: "'onum' Oldstyle Figures in Latin lookup 9" seven.oldstyle
EndChar

StartChar: eight
Encoding: 56 56 24
Width: 956
GlyphClass: 2
Flags: W
LayerCount: 2
Fore
SplineSet
889 348 m 0,0,1
 889 190 889 190 768 87 c 0,2,3
 645 -16 645 -16 477 -16 c 0,4,5
 306 -16 306 -16 191 75 c 0,6,7
 68 172 68 172 68 334 c 0,8,9
 68 513 68 513 322 661 c 1,10,11
 104 794 104 794 104 989 c 0,12,13
 104 1134 104 1134 214 1236 c 0,14,15
 319 1333 319 1333 477 1333 c 0,16,17
 659 1333 659 1333 761 1235 c 0,18,19
 846 1152 846 1152 846 1018 c 0,20,21
 846 838 846 838 635 716 c 1,22,23
 889 565 889 565 889 348 c 0,0,1
633 979 m 0,24,25
 633 1119 633 1119 565 1188 c 0,26,27
 520 1233 520 1233 453 1233 c 0,28,29
 364 1233 364 1233 320 1154 c 0,30,31
 295 1109 295 1109 295 1053 c 0,32,33
 295 917 295 917 525 781 c 1,34,35
 633 843 633 843 633 979 c 0,24,25
672 281 m 0,36,37
 672 446 672 446 427 596 c 1,38,39
 297 521 297 521 297 352 c 0,40,41
 297 235 297 235 359 154 c 0,42,43
 418 76 418 76 508 76 c 0,44,45
 599 76 599 76 645 165 c 0,46,47
 672 217 672 217 672 281 c 0,36,37
EndSplineSet
Substitution2: "'onum' Oldstyle Figures in Latin lookup 9" eight.oldstyle
EndChar

StartChar: nine
Encoding: 57 57 25
Width: 956
GlyphClass: 2
Flags: W
LayerCount: 2
Fore
SplineSet
893 854 m 0,0,1
 893 548 893 548 657 283 c 0,2,3
 480 84 480 84 215 -41 c 0,4,5
 196 -49 196 -49 177 -9 c 0,6,7
 165 16 165 16 165 29 c 0,8,9
 165 39 165 39 172 43 c 0,10,11
 374 156 374 156 478 301 c 0,12,13
 563 420 563 420 625 627 c 1,14,15
 577 579 577 579 495 550 c 0,16,17
 451 535 451 535 416 535 c 0,18,19
 250 535 250 535 154 645 c 0,20,21
 55 759 55 759 55 893 c 0,22,23
 55 1082 55 1082 165 1202 c 0,24,25
 285 1333 285 1333 483 1333 c 0,26,27
 690 1333 690 1333 802 1167 c 0,28,29
 893 1032 893 1032 893 854 c 0,0,1
653 852 m 0,30,31
 653 1227 653 1227 453 1227 c 0,32,33
 346 1227 346 1227 304 1094 c 0,34,35
 285 1032 285 1032 285 958 c 0,36,37
 285 854 285 854 339 767 c 0,38,39
 397 674 397 674 481 674 c 0,40,41
 582 674 582 674 641 733 c 1,42,43
 653 779 653 779 653 852 c 0,30,31
EndSplineSet
Substitution2: "'onum' Oldstyle Figures in Latin lookup 9" nine.oldstsyle
EndChar

StartChar: colon
Encoding: 58 58 26
Width: 593
GlyphClass: 2
Flags: W
LayerCount: 2
Fore
SplineSet
483 703 m 256,0,1
 483 637 483 637 440.5 600 c 128,-1,2
 398 563 398 563 335.5 563 c 128,-1,3
 273 563 273 563 229.5 604.5 c 128,-1,4
 186 646 186 646 186 705 c 128,-1,5
 186 764 186 764 225.5 808 c 128,-1,6
 265 852 265 852 336.5 852 c 128,-1,7
 408 852 408 852 445.5 806.5 c 128,-1,8
 483 761 483 761 483 703 c 256,0,1
483 113 m 256,9,10
 483 47 483 47 440.5 10 c 128,-1,11
 398 -27 398 -27 335.5 -27 c 128,-1,12
 273 -27 273 -27 229.5 14.5 c 128,-1,13
 186 56 186 56 186 115 c 128,-1,14
 186 174 186 174 225.5 218 c 128,-1,15
 265 262 265 262 336 262 c 128,-1,16
 407 262 407 262 445 216.5 c 128,-1,17
 483 171 483 171 483 113 c 256,9,10
EndSplineSet
Substitution2: "'ss18' alt punct spacing-1" colon.alt
EndChar

StartChar: semicolon
Encoding: 59 59 27
Width: 593
GlyphClass: 2
Flags: W
LayerCount: 2
Fore
SplineSet
527 49 m 0,0,1
 527 -88 527 -88 432 -202.5 c 128,-1,2
 337 -317 337 -317 219 -373 c 0,3,4
 196 -384 196 -384 183 -364 c 128,-1,5
 170 -344 170 -344 183 -330 c 0,6,7
 320 -168 320 -168 320 -64 c 0,8,9
 320 -43 320 -43 287 -32 c 128,-1,10
 254 -21 254 -21 210 25.5 c 128,-1,11
 166 72 166 72 166 132 c 128,-1,12
 166 192 166 192 214 230 c 128,-1,13
 262 268 262 268 329.5 268 c 128,-1,14
 397 268 397 268 462 206.5 c 128,-1,15
 527 145 527 145 527 49 c 0,0,1
455 706 m 256,16,17
 455 645 455 645 412.5 604 c 128,-1,18
 370 563 370 563 308 563 c 128,-1,19
 246 563 246 563 201 604.5 c 128,-1,20
 156 646 156 646 156 708.5 c 128,-1,21
 156 771 156 771 197.5 813.5 c 128,-1,22
 239 856 239 856 307.5 856 c 128,-1,23
 376 856 376 856 415.5 811.5 c 128,-1,24
 455 767 455 767 455 706 c 256,16,17
EndSplineSet
Substitution2: "'ss18' alt punct spacing-1" semicolon.alt
EndChar

StartChar: less
Encoding: 60 60 28
Width: 1024
GlyphClass: 2
Flags: W
LayerCount: 2
Fore
SplineSet
344 422 m 1,0,-1
 948 162 l 1,1,-1
 948 -23 l 1,2,-1
 78 356 l 1,3,-1
 78 485 l 1,4,-1
 948 866 l 1,5,-1
 948 682 l 1,6,-1
 344 422 l 1,0,-1
EndSplineSet
EndChar

StartChar: equal
Encoding: 61 61 29
Width: 999
GlyphClass: 2
Flags: W
LayerCount: 2
Fore
SplineSet
897 575 m 1,0,-1
 68 575 l 1,1,-1
 68 717 l 1,2,-1
 897 717 l 1,3,-1
 897 575 l 1,0,-1
897 268 m 1,4,-1
 68 268 l 1,5,-1
 68 410 l 1,6,-1
 897 410 l 1,7,-1
 897 268 l 1,4,-1
EndSplineSet
EndChar

StartChar: greater
Encoding: 62 62 30
Width: 1024
GlyphClass: 2
Flags: W
LayerCount: 2
Fore
SplineSet
946 356 m 1,0,-1
 76 -23 l 1,1,-1
 76 162 l 1,2,-1
 680 422 l 1,3,-1
 76 682 l 1,4,-1
 76 866 l 1,5,-1
 946 485 l 1,6,-1
 946 356 l 1,0,-1
EndSplineSet
EndChar

StartChar: question
Encoding: 63 63 31
Width: 751
GlyphClass: 2
Flags: W
LayerCount: 2
Fore
SplineSet
694 936 m 0,0,1
 694 758 694 758 592 707 c 2,2,-1
 426 625 l 2,3,4
 354 589 354 589 354 567 c 0,5,6
 352 514 352 514 371 440 c 1,7,8
 368 415 368 415 318 415 c 0,9,10
 301 415 301 415 297 422 c 0,11,12
 217 570 217 570 217 650 c 0,13,14
 217 686 217 686 231 719 c 128,-1,15
 245 752 245 752 270.5 773 c 128,-1,16
 296 794 296 794 334 813 c 2,17,-1
 438 866 l 2,18,19
 563 930 563 930 563 979 c 0,20,21
 563 1037 563 1037 520.5 1077 c 128,-1,22
 478 1117 478 1117 358 1127 c 2,23,-1
 279 1133 l 2,24,25
 248 1135 248 1135 211 1168.5 c 128,-1,26
 174 1202 174 1202 174 1259 c 256,27,28
 174 1303 174 1303 210 1332.5 c 128,-1,29
 246 1362 246 1362 295 1362 c 0,30,31
 389 1362 389 1362 476.5 1301.5 c 128,-1,32
 564 1241 564 1241 629 1142.5 c 128,-1,33
 694 1044 694 1044 694 936 c 0,0,1
492 116 m 256,34,35
 492 54 492 54 447.5 14.5 c 128,-1,36
 403 -25 403 -25 336 -25 c 128,-1,37
 269 -25 269 -25 223.5 18.5 c 128,-1,38
 178 62 178 62 178 123.5 c 128,-1,39
 178 185 178 185 219 232 c 128,-1,40
 260 279 260 279 336.5 279 c 128,-1,41
 413 279 413 279 452.5 231 c 128,-1,42
 492 183 492 183 492 116 c 256,34,35
EndSplineSet
Substitution2: "'c2sc' Capitals to Small Capitals in Latin lookup 21-1" question.sc
Substitution2: "'ss18' alt punct spacing-1" question.alt
EndChar

StartChar: at
Encoding: 64 64 32
Width: 1597
GlyphClass: 2
Flags: W
LayerCount: 2
Fore
SplineSet
1198 109 m 0,0,1
 1210 86 1210 86 1194 76 c 0,2,3
 1017 -33 1017 -33 782 -33 c 0,4,5
 542 -33 542 -33 356 82 c 0,6,7
 72 256 72 256 72 602 c 0,8,9
 72 899 72 899 261 1110 c 0,10,11
 506 1384 506 1384 901 1384 c 0,12,13
 1181 1384 1181 1384 1355 1228 c 0,14,15
 1526 1075 1526 1075 1526 848 c 0,16,17
 1526 674 1526 674 1411 539 c 0,18,19
 1253 352 1253 352 975 352 c 0,20,21
 873 352 873 352 845 389 c 0,22,23
 831 408 831 408 831 436 c 0,24,25
 831 463 831 463 850 518 c 1,26,-1
 840 524 l 1,27,28
 689 358 689 358 590 358 c 0,29,30
 477 358 477 358 477 494 c 0,31,32
 477 610 477 610 556 752 c 0,33,34
 642 907 642 907 761 975 c 0,35,36
 830 1014 830 1014 899 1014 c 0,37,38
 961 1014 961 1014 991 983 c 1,39,-1
 1012 1034 l 2,40,41
 1025 1066 1025 1066 1086 1049 c 0,42,43
 1135 1035 1135 1035 1128 1010 c 2,44,-1
 987 532 l 2,45,46
 978 501 978 501 978 471 c 0,47,48
 978 430 978 430 1001 430 c 0,49,50
 1163 430 1163 430 1274 538 c 0,51,52
 1397 660 1397 660 1397 840 c 0,53,54
 1397 1026 1397 1026 1267 1153 c 0,55,56
 1119 1298 1119 1298 883 1298 c 0,57,58
 631 1298 631 1298 458 1125 c 0,59,60
 254 921 254 921 254 604 c 0,61,62
 254 423 254 423 350 282 c 0,63,64
 505 55 505 55 844 55 c 0,65,66
 1002 55 1002 55 1167 127 c 0,67,68
 1186 134 1186 134 1198 109 c 0,0,1
967 920 m 1,69,70
 946 967 946 967 883 967 c 0,71,72
 803 967 803 967 724 822 c 0,73,74
 629 650 629 650 629 518 c 0,75,76
 629 449 629 449 659 449 c 0,77,78
 713 449 713 449 825 580 c 0,79,80
 887 651 887 651 924 772 c 2,81,-1
 967 920 l 1,69,70
EndSplineSet
EndChar

StartChar: A
Encoding: 65 65 33
Width: 1401
GlyphClass: 2
Flags: W
AnchorPoint: "Anchor-0" 674 1425 basechar 0
LayerCount: 2
Back
SplineSet
482 808 m 2,57,-1
 1014 978 l 2,58,59
1154 186 m 2,0,1
 1193 69 1193 69 1346 69 c 0,2,3
 1359 69 1359 69 1359 31 c 128,-1,4
 1359 -7 1359 -7 1346 -7 c 1,5,6
 1273 0 1273 0 1115 0 c 256,7,8
 957 0 957 0 885 -7 c 1,9,10
 871 -7 871 -7 871 31 c 128,-1,11
 871 69 871 69 885 69 c 0,12,13
 984 69 984 69 984 137 c 0,14,15
 984 160 984 160 976 186 c 2,16,-1
 875 499 l 2,17,18
 866 531 866 531 831 531 c 2,19,-1
 424 531 l 2,20,21
 396 531 396 531 384 496 c 2,22,-1
 271 182 l 2,23,24
 262 160 262 160 262 142 c 0,25,26
 262 69 262 69 413 69 c 0,27,28
 427 69 427 69 427 31 c 128,-1,29
 427 -7 427 -7 413 -7 c 1,30,31
 328 0 328 0 200 0 c 256,32,33
 72 0 72 0 -12 -7 c 1,34,35
 -26 -7 -26 -7 -25.5 31 c 128,-1,36
 -25 69 -25 69 -12 69 c 0,37,38
 85 69 85 69 117 97 c 128,-1,39
 149 125 149 125 183 201 c 2,40,-1
 560 1188 l 2,41,42
 566 1205 566 1205 566 1218 c 128,-1,43
 566 1231 566 1231 553 1244.5 c 128,-1,44
 540 1258 540 1258 540 1264 c 128,-1,45
 540 1270 540 1270 579.5 1291.5 c 128,-1,46
 619 1313 619 1313 672 1350 c 128,-1,47
 725 1387 725 1387 737 1387 c 0,48,49
 760 1387 760 1387 772 1343 c 0,50,51
 798 1246 798 1246 821 1177 c 2,52,-1
 1154 186 l 2,0,1
810 600 m 2,53,54
 835 600 835 600 835 616 c 0,55,56
 835 621 835 621 833 627 c 2,57,-1
 663 1159 l 2,58,59
 657 1179 657 1179 645 1179 c 128,-1,60
 633 1179 633 1179 626 1159 c 2,61,-1
 429 627 l 2,62,63
 427 622 427 622 427 616 c 0,64,65
 427 600 427 600 451 600 c 2,66,-1
 810 600 l 2,53,54
EndSplineSet
Fore
SplineSet
1196 202 m 2,0,1
 1237 86 1237 86 1398 86 c 0,2,3
 1413 86 1413 86 1413 39.5 c 128,-1,4
 1413 -7 1413 -7 1398 -7 c 1,5,6
 1283 0 1283 0 1133 0 c 128,-1,7
 983 0 983 0 858 -7 c 1,8,9
 843 -7 843 -7 843 39.5 c 128,-1,10
 843 86 843 86 858 86 c 0,11,12
 954 86 954 86 954 151 c 0,13,14
 954 172 954 172 944 202 c 2,15,-1
 844 499 l 2,16,17
 837 521 837 521 810 523 c 2,18,-1
 437 523 l 2,19,20
 416 523 416 523 405 494 c 2,21,-1
 296 201 l 2,22,23
 287 177 287 177 287 159 c 0,24,25
 287 86 287 86 434 86 c 0,26,27
 447 86 447 86 447 39.5 c 128,-1,28
 447 -7 447 -7 434 -7 c 1,29,30
 351 0 351 0 201 0 c 128,-1,31
 51 0 51 0 -27 -7 c 1,32,33
 -41 -7 -41 -7 -41 39.5 c 128,-1,34
 -41 86 -41 86 -27 86 c 0,35,36
 125 86 125 86 175 217 c 2,37,-1
 545 1185 l 2,38,39
 558 1215 558 1215 558 1223 c 128,-1,40
 558 1231 558 1231 543.5 1245 c 128,-1,41
 529 1259 529 1259 529 1268 c 0,42,43
 529 1283 529 1283 562 1294 c 128,-1,44
 595 1305 595 1305 665.5 1347 c 128,-1,45
 736 1389 736 1389 755 1389 c 0,46,47
 788 1389 788 1389 799 1341.5 c 128,-1,48
 810 1294 810 1294 852 1177 c 2,49,-1
 1196 202 l 2,0,1
649 1068 m 2,50,51
 644 1084 644 1084 633 1084 c 256,52,53
 623 1084 623 1084 617 1068 c 2,54,-1
 458 634 l 2,55,56
 455 626 455 626 454 618 c 0,57,58
 454 607 454 607 475 607 c 2,59,-1
 768 607 l 2,60,61
 796 607 796 607 796 629 c 0,62,63
 796 635 796 635 793 644 c 2,64,-1
 649 1068 l 2,50,51
EndSplineSet
Substitution2: "'ss19' Latin to Gothic transliteration subtable" u10330
Substitution2: "'c2sc' Capitals to Small Capitals in Latin lookup 21-1" a.sc
EndChar

StartChar: B
Encoding: 66 66 34
Width: 1300
GlyphClass: 2
Flags: W
LayerCount: 2
Fore
SplineSet
237 202 m 2,0,-1
 237 1156 l 2,1,2
 237 1265 237 1265 65 1265 c 0,3,4
 51 1265 51 1265 51 1311.5 c 128,-1,5
 51 1358 51 1358 65 1358 c 1,6,7
 208 1352 208 1352 304 1352 c 256,8,9
 400 1352 400 1352 489 1355 c 128,-1,10
 578 1358 578 1358 639 1358 c 256,11,12
 856 1358 856 1358 970 1265.5 c 128,-1,13
 1084 1173 1084 1173 1084 1017 c 256,14,15
 1084 930 1084 930 1032 859.5 c 128,-1,16
 980 789 980 789 904 752 c 0,17,18
 885 741 885 741 885 734 c 128,-1,19
 885 727 885 727 906 718 c 0,20,21
 1023 680 1023 680 1101 583.5 c 128,-1,22
 1179 487 1179 487 1179 370 c 256,23,24
 1179 219 1179 219 1066 106 c 128,-1,25
 953 -7 953 -7 644 -7 c 256,26,27
 598 -7 598 -7 514.5 -3.5 c 128,-1,28
 431 0 431 0 361 0 c 256,29,30
 291 0 291 0 75 -7 c 1,31,32
 60 -7 60 -7 60 39.5 c 128,-1,33
 60 86 60 86 75 86 c 0,34,35
 158 86 158 86 197.5 122.5 c 128,-1,36
 237 159 237 159 237 202 c 2,0,-1
481 797 m 18,37,38
 481 777 481 777 499 773 c 128,-1,39
 517 769 517 769 552 769 c 0,40,41
 697 769 697 769 768.5 836.5 c 128,-1,42
 840 904 840 904 840 1014 c 256,43,44
 840 1144 840 1144 753.5 1212 c 128,-1,45
 667 1280 667 1280 499 1280 c 0,46,47
 481 1280 481 1280 481 1262 c 2,48,-1
 481 797 l 18,37,38
481 250 m 2,49,50
 481 75 481 75 631 75 c 0,51,52
 909 85 909 85 909 370 c 256,53,54
 909 509 909 509 816 590.5 c 128,-1,55
 723 672 723 672 506 674 c 0,56,57
 481 674 481 674 481 640 c 2,58,-1
 481 250 l 2,49,50
EndSplineSet
Substitution2: "'ss19' Latin to Gothic transliteration subtable" u10331
Substitution2: "'c2sc' Capitals to Small Capitals in Latin lookup 21-1" b.sc
EndChar

StartChar: C
Encoding: 67 67 35
Width: 1349
GlyphClass: 2
Flags: W
LayerCount: 2
Back
SplineSet
91 647 m 256,0,1
 91 870 91 870 186.5 1034.5 c 128,-1,2
 282 1199 282 1199 435 1292 c 128,-1,3
 588 1385 588 1385 812 1385 c 256,4,5
 923 1385 923 1385 1080 1355 c 2,6,-1
 1101 1351 l 2,7,8
 1227 1327 1227 1327 1230 1327 c 1,9,10
 1259 1193 1259 1193 1259 1016 c 1,11,12
 1255 1000 1255 1000 1223.5 1000 c 128,-1,13
 1192 1000 1192 1000 1190 1014 c 0,14,15
 1162 1314 1162 1314 783 1314 c 256,16,17
 579 1314 579 1314 430.5 1130 c 128,-1,18
 282 946 282 946 282 707 c 256,19,20
 282 424 282 424 427 236 c 128,-1,21
 572 48 572 48 780 48 c 256,22,23
 1134 48 1134 48 1232 317 c 0,24,25
 1236 328 1236 328 1260.5 328 c 128,-1,26
 1285 328 1285 328 1295 320 c 0,27,28
 1299 317 1299 317 1299 306 c 1,29,30
 1262 115 1262 115 1209 36 c 1,31,32
 1177 32 1177 32 1132 19 c 0,33,34
 985 -27 985 -27 756 -27 c 256,35,36
 578 -27 578 -27 426.5 59 c 128,-1,37
 275 145 275 145 183 296.5 c 128,-1,38
 91 448 91 448 91 647 c 256,0,1
EndSplineSet
Fore
SplineSet
55 647 m 256,0,1
 55 961 55 961 259.5 1173 c 128,-1,2
 464 1385 464 1385 795 1385 c 256,3,4
 925 1385 925 1385 1133 1342 c 0,5,6
 1189 1331 1189 1331 1240 1329 c 1,7,8
 1273 1239 1273 1239 1280 1003 c 0,9,10
 1280 985 1280 985 1233.5 982 c 128,-1,11
 1187 979 1187 979 1186 995 c 0,12,13
 1176 1105 1176 1105 1120.5 1172 c 128,-1,14
 1065 1239 1065 1239 980.5 1268 c 128,-1,15
 896 1297 896 1297 789 1297 c 256,16,17
 582 1297 582 1297 455 1129 c 128,-1,18
 328 961 328 961 328 705 c 256,19,20
 328 408 328 408 468.5 237.5 c 128,-1,21
 609 67 609 67 785 67 c 256,22,23
 1128 66 1128 66 1225 344 c 0,24,25
 1232 363 1232 363 1276.5 352.5 c 128,-1,26
 1321 342 1321 342 1320 321 c 0,27,28
 1315 264 1315 264 1278 168 c 128,-1,29
 1241 72 1241 72 1217 36 c 1,30,31
 1170 29 1170 29 1129 17 c 0,32,33
 976 -27 976 -27 771 -27 c 256,34,35
 479 -27 479 -27 267 163 c 128,-1,36
 55 353 55 353 55 647 c 256,0,1
EndSplineSet
Substitution2: "'c2sc' Capitals to Small Capitals in Latin lookup 21-1" c.sc
Substitution2: "'salt' Stylistic Alternatives in Latin lookup 7" uniF106
EndChar

StartChar: D
Encoding: 68 68 36
Width: 1567
GlyphClass: 2
Flags: W
LayerCount: 2
Fore
SplineSet
237 202 m 2,0,-1
 237 1156 l 2,1,2
 237 1265 237 1265 65 1265 c 0,3,4
 51 1265 51 1265 51 1311.5 c 128,-1,5
 51 1358 51 1358 65 1358 c 1,6,7
 208 1352 208 1352 304 1352 c 256,8,9
 400 1352 400 1352 522.5 1355 c 128,-1,10
 645 1358 645 1358 718 1358 c 0,11,12
 1048 1358 1048 1358 1267.5 1189 c 128,-1,13
 1487 1020 1487 1020 1487 726 c 0,14,15
 1487 388 1487 388 1288 190.5 c 128,-1,16
 1089 -7 1089 -7 766 -7 c 0,17,18
 702 -7 702 -7 557.5 -3.5 c 128,-1,19
 413 0 413 0 310 0 c 256,20,21
 207 0 207 0 75 -7 c 1,22,23
 60 -7 60 -7 60 39.5 c 128,-1,24
 60 86 60 86 75 86 c 0,25,26
 237 86 237 86 237 202 c 2,0,-1
481 273 m 2,27,28
 481 123 481 123 568 87 c 0,29,30
 607 71 607 71 698 71 c 0,31,32
 916 71 916 71 1065.5 241 c 128,-1,33
 1215 411 1215 411 1215 716 c 0,34,35
 1215 930 1215 930 1062.5 1105 c 128,-1,36
 910 1280 910 1280 636 1280 c 10,37,-1
 557 1280 l 2,38,39
 481 1280 481 1280 481 1201 c 2,40,-1
 481 273 l 2,27,28
EndSplineSet
Substitution2: "'ss19' Latin to Gothic transliteration subtable" u10333
Substitution2: "'c2sc' Capitals to Small Capitals in Latin lookup 21-1" d.sc
EndChar

StartChar: E
Encoding: 69 69 37
Width: 1250
GlyphClass: 2
Flags: W
AnchorPoint: "Anchor-0" 626 1425 basechar 0
LayerCount: 2
Fore
SplineSet
237 202 m 2,0,-1
 237 1156 l 2,1,2
 237 1265 237 1265 65 1265 c 0,3,4
 51 1265 51 1265 51 1311.5 c 128,-1,5
 51 1358 51 1358 65 1358 c 1,6,7
 208 1352 208 1352 364 1352 c 256,8,9
 520 1352 520 1352 735 1355 c 128,-1,10
 950 1358 950 1358 1072 1358 c 256,11,12
 1129 1358 1129 1358 1129 1307 c 2,13,-1
 1129 1001 l 2,14,15
 1129 984 1129 984 1078.5 984 c 128,-1,16
 1028 984 1028 984 1028 1001 c 0,17,18
 1028 1131 1028 1131 929 1206 c 0,19,20
 868 1253 868 1253 804 1255 c 2,21,-1
 508 1265 l 2,22,23
 481 1266 481 1266 481 1225 c 2,24,-1
 481 716 l 2,25,26
 481 687 481 687 510 687 c 2,27,-1
 645 687 l 2,28,29
 768 687 768 687 768 778 c 2,30,-1
 768 877 l 2,31,32
 768 891 768 891 820.5 891 c 128,-1,33
 873 891 873 891 873 877 c 1,34,35
 866 810 866 810 866 646 c 128,-1,36
 866 482 866 482 873 419 c 1,37,38
 873 404 873 404 820.5 404 c 128,-1,39
 768 404 768 404 768 419 c 2,40,-1
 768 505 l 2,41,42
 768 594 768 594 645 594 c 2,43,-1
 510 594 l 2,44,45
 481 594 481 594 481 563 c 2,46,-1
 481 222 l 2,47,48
 481 145 481 145 556 106 c 0,49,50
 595 86 595 86 637 86 c 2,51,-1
 860 91 l 2,52,53
 1017 93 1017 93 1065 228 c 0,54,55
 1083 278 1083 278 1083 344 c 0,56,57
 1083 361 1083 361 1134 361 c 128,-1,58
 1185 361 1185 361 1185 344 c 2,59,-1
 1185 57 l 2,60,61
 1185 -7 1185 -7 1068 -7 c 256,62,63
 881 -7 881 -7 708 -3.5 c 0,64,65
 534 0 534 0 372 0 c 256,66,67
 210 0 210 0 75 -7 c 1,68,69
 60 -7 60 -7 60 39.5 c 128,-1,70
 60 86 60 86 75 86 c 0,71,72
 237 86 237 86 237 202 c 2,0,-1
EndSplineSet
Substitution2: "'ss19' Latin to Gothic transliteration subtable" u10334
Substitution2: "'c2sc' Capitals to Small Capitals in Latin lookup 21-1" e.sc
Substitution2: "'salt' Stylistic Alternatives in Latin lookup 7" uniF10A
EndChar

StartChar: F
Encoding: 70 70 38
Width: 1191
GlyphClass: 2
Flags: W
LayerCount: 2
Fore
SplineSet
237 202 m 2,0,-1
 237 1156 l 2,1,2
 237 1265 237 1265 65 1265 c 0,3,4
 51 1265 51 1265 51 1311.5 c 128,-1,5
 51 1358 51 1358 65 1358 c 1,6,7
 208 1352 208 1352 353 1352 c 256,8,9
 498 1352 498 1352 720 1355 c 128,-1,10
 942 1358 942 1358 1069 1358 c 256,11,12
 1129 1358 1129 1358 1129 1307 c 2,13,-1
 1129 1001 l 2,14,15
 1129 984 1129 984 1078.5 984 c 128,-1,16
 1028 984 1028 984 1028 1001 c 0,17,18
 1028 1113 1028 1113 956.5 1182 c 128,-1,19
 885 1251 885 1251 804 1255 c 0,20,21
 589 1265 589 1265 508 1265 c 0,22,23
 481 1265 481 1265 481 1225 c 2,24,-1
 481 755 l 2,25,26
 481 725 481 725 510 725 c 2,27,-1
 645 725 l 2,28,29
 738 725 738 725 738 815 c 2,30,-1
 738 953 l 2,31,32
 738 967 738 967 790 967 c 128,-1,33
 842 967 842 967 842 953 c 1,34,35
 835 886 835 886 835 677.5 c 128,-1,36
 835 469 835 469 842 399 c 1,37,38
 842 386 842 386 790 386 c 128,-1,39
 738 386 738 386 738 399 c 2,40,-1
 738 543 l 2,41,42
 738 632 738 632 645 632 c 2,43,-1
 510 632 l 2,44,45
 481 632 481 632 481 602 c 2,46,-1
 481 202 l 2,47,48
 481 86 481 86 634 86 c 0,49,50
 648 86 648 86 648 39.5 c 128,-1,51
 648 -7 648 -7 634 -7 c 1,52,53
 540 0 540 0 360 0 c 256,54,55
 180 0 180 0 75 -7 c 1,56,57
 60 -7 60 -7 60 39.5 c 128,-1,58
 60 86 60 86 75 86 c 0,59,60
 237 86 237 86 237 202 c 2,0,-1
EndSplineSet
Substitution2: "'ss19' Latin to Gothic transliteration subtable" u10346
Substitution2: "'c2sc' Capitals to Small Capitals in Latin lookup 21-1" f.sc
EndChar

StartChar: G
Encoding: 71 71 39
Width: 1443
GlyphClass: 2
Flags: W
LayerCount: 2
Fore
SplineSet
832 523.5 m 128,-1,1
 832 569 832 569 846 569 c 1,2,3
 906 563 906 563 1163 563 c 0,4,5
 1331 563 1331 563 1391 569 c 1,6,7
 1404 569 1404 569 1404 523.5 c 128,-1,8
 1404 478 1404 478 1391 478 c 0,9,10
 1283 478 1283 478 1283 401 c 2,11,-1
 1283 160 l 2,12,13
 1283 115 1283 115 1325 115 c 0,14,15
 1340 115 1340 115 1340 75 c 128,-1,16
 1340 35 1340 35 1325 35 c 0,17,18
 1275 35 1275 35 1129 11 c 0,19,20
 903 -27 903 -27 771 -27 c 0,21,22
 508 -30 508 -30 308 126 c 0,23,24
 55 324 55 324 55 647 c 0,25,26
 55 913 55 913 207 1110 c 0,27,28
 419 1385 419 1385 795 1385 c 0,29,30
 926 1385 926 1385 1112 1347 c 0,31,32
 1182 1329 1182 1329 1240 1329 c 1,33,34
 1268 1270 1268 1270 1278 1054 c 2,35,-1
 1280 1003 l 2,36,37
 1280 985 1280 985 1237 981 c 0,38,39
 1189 979 1189 979 1186 995 c 0,40,41
 1167 1204 1167 1204 975 1270 c 0,42,43
 896 1297 896 1297 789 1297 c 0,44,45
 582 1297 582 1297 455 1129 c 128,-1,46
 328 961 328 961 328 705 c 0,47,48
 328 381 328 381 499 202 c 0,49,50
 628 67 628 67 785 67 c 0,51,52
 896 67 896 67 977 93 c 0,53,54
 1039 117 1039 117 1039 159 c 2,55,-1
 1039 401 l 2,56,57
 1039 478 1039 478 925 478 c 2,58,-1
 846 478 l 2,59,0
 832 478 832 478 832 523.5 c 128,-1,1
EndSplineSet
Substitution2: "'ss19' Latin to Gothic transliteration subtable" u10332
Substitution2: "'c2sc' Capitals to Small Capitals in Latin lookup 21-1" g.sc
Substitution2: "'salt' Stylistic Alternatives in Latin lookup 7" uniF10E
EndChar

StartChar: H
Encoding: 72 72 40
Width: 1686
GlyphClass: 2
Flags: W
LayerCount: 2
Fore
SplineSet
1432 202 m 2,0,1
 1432 86 1432 86 1591 86 c 0,2,3
 1605 86 1605 86 1605 39.5 c 128,-1,4
 1605 -7 1605 -7 1591 -7 c 1,5,6
 1465 0 1465 0 1311 0 c 0,7,8
 1159 0 1159 0 1026 -7 c 1,9,10
 1011 -7 1011 -7 1011 39.5 c 128,-1,11
 1011 86 1011 86 1026 86 c 0,12,13
 1188 86 1188 86 1188 202 c 2,14,-1
 1188 619 l 2,15,16
 1188 653 1188 653 1154 653 c 2,17,-1
 516 653 l 2,18,19
 481 653 481 653 481 619 c 2,20,-1
 481 202 l 2,21,22
 481 86 481 86 640 86 c 0,23,24
 654 86 654 86 654 39.5 c 128,-1,25
 654 -7 654 -7 640 -7 c 1,26,27
 507 0 507 0 361 0 c 0,28,29
 201 0 201 0 75 -7 c 1,30,31
 60 -7 60 -7 60 39.5 c 128,-1,32
 60 86 60 86 75 86 c 0,33,34
 237 86 237 86 237 202 c 2,35,-1
 237 1154 l 2,36,37
 237 1270 237 1270 76 1270 c 0,38,39
 62 1270 62 1270 62 1316.5 c 128,-1,40
 62 1363 62 1363 76 1363 c 1,41,42
 124 1358 124 1358 355 1358 c 0,43,44
 596 1358 596 1358 644 1363 c 1,45,46
 658 1363 658 1363 658 1316.5 c 128,-1,47
 658 1270 658 1270 644 1270 c 0,48,49
 481 1270 481 1270 481 1154 c 2,50,-1
 481 782 l 2,51,52
 481 747 481 747 516 747 c 2,53,-1
 1154 747 l 2,54,55
 1188 747 1188 747 1188 782 c 2,56,-1
 1188 1154 l 2,57,58
 1188 1270 1188 1270 1028 1270 c 0,59,60
 1013 1270 1013 1270 1013 1316.5 c 128,-1,61
 1013 1363 1013 1363 1028 1363 c 1,62,63
 1073 1358 1073 1358 1307 1358 c 0,64,65
 1548 1358 1548 1358 1595 1363 c 1,66,67
 1610 1363 1610 1363 1610 1316.5 c 128,-1,68
 1610 1270 1610 1270 1595 1270 c 0,69,70
 1432 1270 1432 1270 1432 1154 c 2,71,-1
 1432 202 l 2,0,1
EndSplineSet
Substitution2: "'ss19' Latin to Gothic transliteration subtable" u10337
Substitution2: "'c2sc' Capitals to Small Capitals in Latin lookup 21-1" h.sc
Substitution2: "'salt' Stylistic Alternatives in Latin lookup 7" uniF110
EndChar

StartChar: I
Encoding: 73 73 41
Width: 734
GlyphClass: 2
Flags: MW
AnchorPoint: "Anchor-0" 362 1425 basechar 0
LayerCount: 2
Fore
SplineSet
481 202 m 2,0,1
 481 86 481 86 640 86 c 0,2,3
 654 86 654 86 654 39.5 c 128,-1,4
 654 -7 654 -7 640 -7 c 1,5,6
 507 0 507 0 361 0 c 0,7,8
 201 0 201 0 75 -7 c 1,9,10
 60 -7 60 -7 60 39.5 c 128,-1,11
 60 86 60 86 75 86 c 0,12,13
 237 86 237 86 237 202 c 2,14,-1
 237 1154 l 2,15,16
 237 1270 237 1270 76 1270 c 0,17,18
 62 1270 62 1270 62 1316.5 c 128,-1,19
 62 1363 62 1363 76 1363 c 1,20,21
 124 1358 124 1358 355 1358 c 0,22,23
 596 1358 596 1358 644 1363 c 1,24,25
 658 1363 658 1363 658 1316.5 c 128,-1,26
 658 1270 658 1270 644 1270 c 0,27,28
 481 1270 481 1270 481 1154 c 2,29,-1
 481 202 l 2,0,1
EndSplineSet
Substitution2: "'ss19' Latin to Gothic transliteration subtable" u10339
Substitution2: "'c2sc' Capitals to Small Capitals in Latin lookup 21-1" i.sc
EndChar

StartChar: J
Encoding: 74 74 42
Width: 718
GlyphClass: 2
Flags: W
LayerCount: 2
Fore
SplineSet
419 -151 m 0,0,1
 330 -299 330 -299 204 -371 c 0,2,3
 118 -419 118 -419 33 -419 c 0,4,5
 -18 -419 -18 -419 -69 -386 c 0,6,7
 -132 -345 -132 -345 -132 -277 c 0,8,9
 -132 -206 -132 -206 -67 -174 c 0,10,11
 -34 -157 -34 -157 9 -157 c 0,12,13
 83 -157 83 -157 137 -215 c 0,14,15
 162 -242 162 -242 175 -277 c 1,16,17
 208 -253 208 -253 231 -195 c 0,18,19
 257 -107 257 -107 257 253 c 0,20,21
 257 1153 257 1153 257 1154 c 0,22,23
 257 1270 257 1270 86 1270 c 0,24,25
 72 1270 72 1270 72 1316.5 c 131,-1,26
 72 1363 72 1363 86 1363 c 1,27,28
 134 1358 134 1358 382 1358 c 0,29,30
 626 1358 626 1358 674 1363 c 1,31,32
 688 1363 688 1363 688 1316.5 c 128,-1,33
 688 1270 688 1270 674 1270 c 0,34,35
 502 1270 502 1270 502 1154 c 2,36,-1
 502 629 l 2,37,38
 502 522 502 522 492 195 c 0,39,40
 491 -32 491 -32 419 -151 c 0,0,1
EndSplineSet
Substitution2: "'ss19' Latin to Gothic transliteration subtable" u1033E
Substitution2: "'c2sc' Capitals to Small Capitals in Latin lookup 21-1" j.sc
EndChar

StartChar: K
Encoding: 75 75 43
Width: 1382
GlyphClass: 2
Flags: W
LayerCount: 2
Fore
SplineSet
1144 191 m 2,0,1
 1222 100 1222 100 1323 89 c 0,2,3
 1345 86 1345 86 1383 86 c 0,4,5
 1397 86 1397 86 1397 39.5 c 128,-1,6
 1397 -7 1397 -7 1383 -7 c 1,7,8
 1250 0 1250 0 1077 0 c 0,9,10
 944 0 944 0 804 -7 c 1,11,12
 790 -7 790 -7 790 39.5 c 128,-1,13
 790 86 790 86 804 86 c 0,14,15
 888 86 888 86 889 125 c 0,16,17
 889 151 889 151 848 202 c 2,18,-1
 589 525 l 2,19,20
 526 597 526 597 503 597 c 0,21,22
 481 597 481 597 481 569 c 2,23,-1
 481 202 l 2,24,25
 481 86 481 86 636 86 c 0,26,27
 650 86 650 86 650 39.5 c 128,-1,28
 650 -7 650 -7 636 -7 c 1,29,30
 503 0 503 0 361 0 c 0,31,32
 201 0 201 0 75 -7 c 1,33,34
 60 -7 60 -7 60 39.5 c 128,-1,35
 60 86 60 86 75 86 c 0,36,37
 237 86 237 86 237 202 c 2,38,-1
 237 1154 l 2,39,40
 237 1270 237 1270 65 1270 c 0,41,42
 51 1270 51 1270 51 1316.5 c 128,-1,43
 51 1363 51 1363 65 1363 c 1,44,45
 112 1358 112 1358 344 1358 c 0,46,47
 594 1358 594 1358 642 1363 c 1,48,49
 656 1363 656 1363 656 1316.5 c 128,-1,50
 656 1270 656 1270 642 1270 c 0,51,52
 481 1270 481 1270 481 1154 c 2,53,-1
 481 797 l 2,54,55
 481 770 481 770 497 770 c 0,56,57
 525 770 525 770 573 825 c 2,58,-1
 850 1156 l 2,59,60
 903 1219 903 1219 903 1245 c 1,61,62
 894 1269 894 1269 842 1270 c 0,63,64
 829 1270 829 1270 829 1316.5 c 128,-1,65
 829 1363 829 1363 842 1363 c 1,66,67
 892 1358 892 1358 1039 1358 c 0,68,69
 1190 1358 1190 1358 1238 1363 c 1,70,71
 1252 1363 1252 1363 1252 1316.5 c 128,-1,72
 1252 1270 1252 1270 1238 1270 c 0,73,74
 1150 1270 1150 1270 1106 1250 c 0,75,76
 1063 1230 1063 1230 1024 1185 c 2,77,-1
 687 793 l 2,78,79
 671 774 671 774 671 758 c 0,80,81
 671 741 671 741 686 724 c 2,82,-1
 1144 191 l 2,0,1
EndSplineSet
Substitution2: "'ss19' Latin to Gothic transliteration subtable" u1033A
Substitution2: "'c2sc' Capitals to Small Capitals in Latin lookup 21-1" k.sc
EndChar

StartChar: L
Encoding: 76 76 44
Width: 1359
GlyphClass: 2
Flags: W
LayerCount: 2
Fore
SplineSet
481 250 m 2,0,1
 481 140 481 140 548 97 c 0,2,3
 582 78 582 78 623 78 c 2,4,-1
 955 91 l 2,5,6
 1030 94 1030 94 1097 173 c 0,7,8
 1179 278 1179 278 1179 392 c 0,9,10
 1179 410 1179 410 1229.5 410 c 128,-1,11
 1280 410 1280 410 1280 392 c 2,12,-1
 1280 57 l 2,13,14
 1280 15 1280 15 1265 5 c 1,15,16
 1256 -7 1256 -7 1163 -7 c 3,17,18
 976 -7 976 -7 719 -3.5 c 128,-1,19
 462 0 462 0 355 0 c 3,20,21
 283 0 283 0 75 -7 c 1,22,23
 60 -7 60 -7 60 39.5 c 128,-1,24
 60 86 60 86 75 86 c 0,25,26
 237 86 237 86 237 212 c 2,27,-1
 237 1154 l 2,28,29
 237 1270 237 1270 65 1270 c 0,30,31
 51 1270 51 1270 51 1316.5 c 128,-1,32
 51 1363 51 1363 65 1363 c 1,33,34
 112 1358 112 1358 353 1358 c 0,35,36
 588 1358 588 1358 636 1363 c 1,37,38
 650 1363 650 1363 650 1316.5 c 128,-1,39
 650 1270 650 1270 636 1270 c 0,40,41
 481 1270 481 1270 481 1154 c 2,42,-1
 481 250 l 2,0,1
EndSplineSet
Substitution2: "'ss19' Latin to Gothic transliteration subtable" u1033B
Substitution2: "'c2sc' Capitals to Small Capitals in Latin lookup 21-1" l.sc
EndChar

StartChar: M
Encoding: 77 77 45
Width: 1815
GlyphClass: 2
Flags: W
LayerCount: 2
Fore
SplineSet
1608 208 m 2,0,1
 1610 86 1610 86 1770 86 c 0,2,3
 1785 86 1785 86 1785 39.5 c 128,-1,4
 1785 -7 1785 -7 1770 -7 c 1,5,6
 1644 0 1644 0 1490 0 c 0,7,8
 1360 0 1360 0 1221 -7 c 1,9,10
 1206 -7 1206 -7 1206 39.5 c 128,-1,11
 1206 86 1206 86 1221 86 c 0,12,13
 1374 86 1374 86 1374 208 c 2,14,-1
 1369 877 l 2,15,16
 1369 898 1369 898 1362 898 c 0,17,18
 1353 898 1353 898 1345 880 c 2,19,-1
 894 4 l 2,20,21
 882 -19 882 -19 864 -19 c 0,22,23
 842 -19 842 -19 833 4 c 2,24,-1
 374 968 l 2,25,26
 364 989 364 989 358 989 c 0,27,28
 351 989 351 989 348 963 c 2,29,-1
 298 206 l 1,30,-1
 298 175 l 2,31,32
 298 86 298 86 468 86 c 0,33,34
 482 86 482 86 482 39.5 c 128,-1,35
 482 -7 482 -7 468 -7 c 1,36,37
 335 0 335 0 239 0 c 0,38,39
 102 0 102 0 40 -7 c 1,40,41
 26 -9 26 -9 26 38.5 c 128,-1,42
 26 86 26 86 40 86 c 0,43,44
 187 86 187 86 193 210 c 2,45,-1
 254 1116 l 1,46,-1
 254 1161 l 2,47,48
 254 1270 254 1270 80 1270 c 0,49,50
 67 1270 67 1270 67 1316.5 c 128,-1,51
 67 1363 67 1363 80 1363 c 1,52,53
 162 1358 162 1358 254 1358 c 2,54,-1
 351 1358 l 2,55,56
 417 1358 417 1358 468 1270 c 2,57,-1
 908 357 l 2,58,59
 918 336 918 336 931 336 c 0,60,61
 946 336 946 336 959 359 c 2,62,-1
 1427 1276 l 2,63,64
 1469 1358 1469 1358 1538 1358 c 2,65,-1
 1591 1358 l 2,66,67
 1695 1358 1695 1358 1755 1363 c 1,68,69
 1770 1363 1770 1363 1770 1316.5 c 128,-1,70
 1770 1270 1770 1270 1755 1270 c 0,71,72
 1650 1270 1650 1270 1619 1223 c 0,73,74
 1596 1183 1596 1183 1598 1125 c 2,75,-1
 1608 208 l 2,0,1
EndSplineSet
Substitution2: "'ss19' Latin to Gothic transliteration subtable" u1033C
Substitution2: "'c2sc' Capitals to Small Capitals in Latin lookup 21-1" m.sc
Substitution2: "'salt' Stylistic Alternatives in Latin lookup 7" uniF11A
EndChar

StartChar: N
Encoding: 78 78 46
Width: 1482
GlyphClass: 2
Flags: W
LayerCount: 2
Fore
SplineSet
1288 76 m 2,0,1
 1288 -21 1288 -21 1257 -21 c 0,2,3
 1231 -21 1231 -21 1183 36 c 2,4,-1
 361 1014 l 2,5,6
 348 1030 348 1030 341 1030 c 0,7,8
 328 1030 328 1030 328 1008 c 2,9,-1
 328 202 l 2,10,11
 328 86 328 86 479 86 c 0,12,13
 494 86 494 86 494 39 c 128,-1,14
 494 -8 494 -8 479 -7 c 1,15,16
 387 0 387 0 279 0 c 0,17,18
 177 0 177 0 65 -7 c 1,19,20
 51 -9 51 -9 51 38.5 c 128,-1,21
 51 86 51 86 65 86 c 0,22,23
 224 86 224 86 224 202 c 2,24,-1
 224 1156 l 2,25,26
 224 1270 224 1270 51 1270 c 0,27,28
 38 1270 38 1270 38 1316.5 c 128,-1,29
 38 1363 38 1363 51 1363 c 1,30,31
 101 1358 101 1358 228 1358 c 0,32,33
 312 1358 312 1358 326 1356 c 0,34,35
 385 1347 385 1347 426 1299 c 2,36,-1
 1137 432 l 2,37,38
 1147 418 1147 418 1161 418 c 0,39,40
 1185 418 1185 418 1185 449 c 2,41,-1
 1185 1152 l 2,42,43
 1185 1270 1185 1270 1032 1270 c 0,44,45
 1017 1270 1017 1270 1017 1316.5 c 128,-1,46
 1017 1363 1017 1363 1032 1363 c 1,47,48
 1134 1358 1134 1358 1230 1358 c 0,49,50
 1330 1358 1330 1358 1423 1363 c 1,51,52
 1437 1363 1437 1363 1437 1316.5 c 128,-1,53
 1437 1270 1437 1270 1423 1270 c 0,54,55
 1288 1270 1288 1270 1288 1152 c 2,56,-1
 1288 76 l 2,0,1
EndSplineSet
Substitution2: "'ss19' Latin to Gothic transliteration subtable" u1033D
Substitution2: "'c2sc' Capitals to Small Capitals in Latin lookup 21-1" n.sc
EndChar

StartChar: O
Encoding: 79 79 47
Width: 1524
GlyphClass: 2
Flags: MW
AnchorPoint: "Anchor-0" 750 1425 basechar 0
LayerCount: 2
Fore
SplineSet
1430 663 m 0,0,1
 1430 443 1430 443 1285 246 c 0,2,3
 1083 -27 1083 -27 741 -27 c 0,4,5
 516 -27 516 -27 336 97 c 0,6,7
 55 291 55 291 55 667 c 0,8,9
 55 918 55 918 231 1141 c 0,10,11
 426 1385 426 1385 745 1385 c 0,12,13
 991 1385 991 1385 1171 1230 c 0,14,15
 1430 1006 1430 1006 1430 663 c 0,0,1
1157 649 m 0,16,17
 1157 904 1157 904 1033 1087 c 0,18,19
 891 1297 891 1297 740 1297 c 0,20,21
 587 1298 587 1298 473 1167 c 0,22,23
 328 1001 328 1001 328 724 c 0,24,25
 328 420 328 420 481 229 c 0,26,27
 610 67 610 67 755 67 c 0,28,29
 1020 67 1020 67 1113 346 c 0,30,31
 1157 476 1157 476 1157 649 c 0,16,17
EndSplineSet
Substitution2: "'ss19' Latin to Gothic transliteration subtable" u10349
Substitution2: "'c2sc' Capitals to Small Capitals in Latin lookup 21-1" o.sc
EndChar

StartChar: P
Encoding: 80 80 48
Width: 1214
GlyphClass: 2
Flags: W
LayerCount: 2
Fore
SplineSet
481 202 m 2,0,1
 481 86 481 86 649 86 c 0,2,3
 664 86 664 86 664 39.5 c 128,-1,4
 664 -7 664 -7 649 -7 c 1,5,6
 523 0 523 0 361 0 c 0,7,8
 213 0 213 0 80 -7 c 1,9,10
 67 -7 67 -7 67 39.5 c 128,-1,11
 67 86 67 86 80 86 c 0,12,13
 237 86 237 86 237 202 c 2,14,-1
 237 1156 l 2,15,16
 237 1265 237 1265 67 1265 c 0,17,18
 53 1265 53 1265 53 1311.5 c 128,-1,19
 53 1358 53 1358 67 1358 c 1,20,21
 210 1352 210 1352 355 1352 c 3,22,23
 415 1352 415 1352 496.5 1355 c 128,-1,24
 578 1358 578 1358 659 1358 c 3,25,26
 877 1358 877 1358 1022 1258 c 0,27,28
 1179 1148 1179 1148 1179 968 c 0,29,30
 1179 777 1179 777 1008 677 c 0,31,32
 869 596 869 596 653 596 c 0,33,34
 563 596 563 596 516 600 c 0,35,36
 481 602 481 602 481 569 c 2,37,-1
 481 202 l 2,0,1
924 968 m 0,38,39
 924 1088 924 1088 842 1174 c 0,40,41
 743 1278 743 1278 563 1278 c 0,42,43
 498 1278 498 1278 486 1264 c 0,44,45
 482 1258 482 1258 481 1249 c 2,46,-1
 481 716 l 2,47,48
 481 685 481 685 512 680 c 0,49,50
 548 676 548 676 592 676 c 0,51,52
 841 676 841 676 904 848 c 0,53,54
 924 901 924 901 924 968 c 0,38,39
EndSplineSet
Substitution2: "'ss19' Latin to Gothic transliteration subtable" u10340
Substitution2: "'c2sc' Capitals to Small Capitals in Latin lookup 21-1" p.sc
EndChar

StartChar: Q
Encoding: 81 81 49
Width: 1489
GlyphClass: 2
Flags: W
LayerCount: 2
Fore
SplineSet
1430 659 m 0,0,1
 1430 443 1430 443 1283 237 c 0,2,3
 1213 138 1213 138 1092 59 c 0,4,5
 1069 44 1069 44 1069 33 c 0,6,7
 1069 21 1069 21 1092 4 c 0,8,9
 1350 -166 1350 -166 1633 -248 c 0,10,11
 1634 -248 1634 -248 1664 -257 c 0,12,13
 1685 -263 1685 -263 1685 -290 c 3,14,15
 1685 -301 1685 -301 1682 -315 c 0,16,17
 1668 -364 1668 -364 1641 -359 c 0,18,19
 1239 -283 1239 -283 653 -59 c 2,20,-1
 499 0 l 2,21,22
 467 12 467 12 344 86 c 0,23,24
 213 167 213 167 134 322 c 0,25,26
 55 476 55 476 55 661 c 0,27,28
 55 924 55 924 233 1139 c 0,29,30
 437 1385 437 1385 745 1385 c 0,31,32
 1005 1385 1005 1385 1171 1230 c 0,33,34
 1430 991 1430 991 1430 659 c 0,0,1
1157 642 m 0,35,36
 1157 894 1157 894 1037 1087 c 0,37,38
 907 1297 907 1297 740 1297 c 0,39,40
 543 1297 543 1297 427 1104 c 0,41,42
 328 942 328 942 328 716 c 0,43,44
 328 408 328 408 482 220 c 0,45,46
 608 65 608 65 756 65 c 0,47,48
 1009 65 1009 65 1106 330 c 0,49,50
 1157 468 1157 468 1157 642 c 0,35,36
EndSplineSet
Substitution2: "'ss19' Latin to Gothic transliteration subtable" u10335
Substitution2: "'c2sc' Capitals to Small Capitals in Latin lookup 21-1" q.sc
EndChar

StartChar: R
Encoding: 82 82 50
Width: 1420
GlyphClass: 2
Flags: W
LayerCount: 2
Fore
SplineSet
1213 968 m 0,0,1
 1213 717 1213 717 930 632 c 0,2,3
 912 628 912 628 912 613 c 0,4,5
 912 603 912 603 924 585 c 0,6,7
 1055 361 1055 361 1249 162 c 0,8,9
 1344 61 1344 61 1429 46 c 0,10,11
 1455 41 1455 41 1455 17 c 3,12,13
 1455 -21 1455 -21 1431 -21 c 2,14,-1
 1340 -24 l 2,15,16
 1185 -23 1185 -23 1102 31 c 0,17,18
 960 119 960 119 839 291 c 2,19,-1
 709 478 l 2,20,21
 646 553 646 553 630 566 c 0,22,23
 606 587 606 587 567 587 c 2,24,-1
 500 587 l 2,25,26
 481 587 481 587 481 568 c 2,27,-1
 481 202 l 2,28,29
 481 86 481 86 636 86 c 0,30,31
 650 86 650 86 650 39.5 c 128,-1,32
 650 -7 650 -7 636 -7 c 1,33,34
 503 0 503 0 361 0 c 0,35,36
 210 0 210 0 75 -7 c 1,37,38
 60 -7 60 -7 60 39.5 c 128,-1,39
 60 86 60 86 75 86 c 0,40,41
 237 86 237 86 237 202 c 2,42,-1
 237 1156 l 2,43,44
 237 1265 237 1265 65 1265 c 0,45,46
 51 1265 51 1265 51 1311.5 c 128,-1,47
 51 1358 51 1358 65 1358 c 1,48,49
 208 1352 208 1352 355 1352 c 3,50,51
 410 1352 410 1352 488.5 1355 c 128,-1,52
 567 1358 567 1358 659 1358 c 3,53,54
 996 1358 996 1358 1140 1183 c 0,55,56
 1213 1093 1213 1093 1213 968 c 0,0,1
959 968 m 0,57,58
 959 1104 959 1104 841 1197 c 0,59,60
 734 1278 734 1278 563 1278 c 0,61,62
 501 1278 501 1278 491 1269 c 0,63,64
 481 1261 481 1261 481 1236 c 2,65,-1
 481 713 l 2,66,67
 481 680 481 680 506 674 c 0,68,69
 553 665 553 665 592 665 c 0,70,71
 856 665 856 665 932 832 c 0,72,73
 959 892 959 892 959 968 c 0,57,58
EndSplineSet
Substitution2: "'ss19' Latin to Gothic transliteration subtable" u10342
Substitution2: "'c2sc' Capitals to Small Capitals in Latin lookup 21-1" r.sc
EndChar

StartChar: S
Encoding: 83 83 51
Width: 1077
GlyphClass: 2
Flags: W
LayerCount: 2
Fore
SplineSet
980 403 m 0,0,1
 980 222 980 222 871 103 c 0,2,3
 753 -27 753 -27 554 -27 c 0,4,5
 410 -27 410 -27 308 9 c 2,6,-1
 164 71 l 1,7,8
 111 231 111 231 111 384 c 0,9,10
 111 408 111 408 157 410 c 0,11,12
 205 413 205 413 208 392 c 0,13,14
 218 276 218 276 298 185 c 0,15,16
 403 67 403 67 571 67 c 0,17,18
 643 67 643 67 700 124 c 0,19,20
 771 194 771 194 771 308 c 0,21,22
 771 514 771 514 501 583 c 0,23,24
 104 684 104 684 104 1033 c 0,25,26
 104 1175 104 1175 233 1291 c 0,27,28
 338 1385 338 1385 525 1385 c 0,29,30
 645 1385 645 1385 738 1364 c 0,31,32
 794 1352 794 1352 800 1352 c 2,33,-1
 836 1354 l 1,34,-1
 837 1354 l 1,35,36
 874 1236 874 1236 886 1083 c 0,37,38
 888 1057 888 1057 842 1050 c 0,39,40
 796 1044 796 1044 791 1062 c 0,41,42
 761 1179 761 1179 693 1240 c 128,-1,43
 625 1301 625 1301 506 1301 c 0,44,45
 411 1301 411 1301 352 1217 c 0,46,47
 312 1161 312 1161 312 1075 c 0,48,49
 312 894 312 894 559 834 c 0,50,51
 980 732 980 732 980 403 c 0,0,1
EndSplineSet
Substitution2: "'ss19' Latin to Gothic transliteration subtable" u10343
Substitution2: "'c2sc' Capitals to Small Capitals in Latin lookup 21-1" s.sc
Substitution2: "'salt' Stylistic Alternatives in Latin lookup 7" uniF126
EndChar

StartChar: T
Encoding: 84 84 52
Width: 1300
GlyphClass: 2
Flags: W
LayerCount: 2
Fore
SplineSet
773 202 m 2,0,1
 773 86 773 86 944 86 c 0,2,3
 957 86 957 86 957 39.5 c 128,-1,4
 957 -7 957 -7 944 -7 c 1,5,6
 859 0 859 0 651.5 0 c 128,-1,7
 444 0 444 0 349 -7 c 1,8,9
 335 -7 335 -7 335 39.5 c 128,-1,10
 335 86 335 86 349 86 c 0,11,12
 529 86 529 86 529 202 c 2,13,-1
 529 1236 l 2,14,15
 529 1265 529 1265 502 1265 c 2,16,-1
 359 1265 l 18,17,18
 273 1265 273 1265 204.5 1192.5 c 128,-1,19
 136 1120 136 1120 136 1008 c 0,20,21
 136 992 136 992 85.5 992 c 128,-1,22
 35 992 35 992 35 1008 c 2,23,-1
 35 1307 l 2,24,25
 35 1341 35 1341 49 1348 c 0,26,27
 73 1358 73 1358 147 1358 c 1,28,29
 335 1352 335 1352 643 1352 c 128,-1,30
 951 1352 951 1352 1163 1358 c 1,31,32
 1247 1358 1247 1358 1259 1342 c 0,33,34
 1267 1331 1267 1331 1267 1307 c 2,35,-1
 1267 1008 l 2,36,37
 1267 992 1267 992 1216 992 c 128,-1,38
 1165 992 1165 992 1165 1008 c 0,39,40
 1165 1137 1165 1137 1087 1201 c 128,-1,41
 1009 1265 1009 1265 934 1265 c 10,42,-1
 806 1265 l 2,43,44
 773 1265 773 1265 773 1236 c 2,45,-1
 773 202 l 2,0,1
EndSplineSet
Substitution2: "'ss19' Latin to Gothic transliteration subtable" u10344
Substitution2: "'c2sc' Capitals to Small Capitals in Latin lookup 21-1" t.sc
Substitution2: "'ss09' Alternates in PUA-1" T.alt
EndChar

StartChar: U
Encoding: 85 85 53
Width: 1512
GlyphClass: 2
Flags: W
AnchorPoint: "Anchor-0" 818 1425 basechar 0
LayerCount: 2
Fore
SplineSet
1322 880 m 2,0,1
 1322 604 1322 604 1310 464 c 0,2,3
 1293 219 1293 219 1156 91 c 0,4,5
 1030 -27 1030 -27 773 -27 c 0,6,7
 617 -27 617 -27 505 15 c 0,8,9
 348 76 348 76 286 200 c 0,10,11
 234 307 234 307 224 545 c 2,12,-1
 224 1154 l 2,13,14
 224 1270 224 1270 67 1270 c 0,15,16
 53 1270 53 1270 53 1316.5 c 128,-1,17
 53 1363 53 1363 67 1363 c 1,18,19
 214 1358 214 1358 348 1358 c 0,20,21
 494 1358 494 1358 642 1363 c 1,22,23
 656 1363 656 1363 656 1316.5 c 128,-1,24
 656 1270 656 1270 642 1270 c 0,25,26
 468 1270 468 1270 468 1154 c 2,27,-1
 468 686 l 1,28,-1
 479 405 l 2,29,30
 482 281 482 281 534 202 c 0,31,32
 624 67 624 67 810 67 c 0,33,34
 983 67 983 67 1087 173 c 0,35,36
 1177 266 1177 266 1177 496 c 2,37,-1
 1177 1154 l 2,38,39
 1177 1270 1177 1270 1020 1270 c 0,40,41
 1006 1270 1006 1270 1006 1316.5 c 128,-1,42
 1006 1363 1006 1363 1020 1363 c 1,43,44
 1158 1358 1158 1358 1249 1358 c 0,45,46
 1341 1358 1341 1358 1476 1363 c 1,47,48
 1491 1363 1491 1363 1491 1316.5 c 128,-1,49
 1491 1270 1491 1270 1476 1270 c 0,50,51
 1322 1270 1322 1270 1322 1154 c 2,52,-1
 1322 880 l 2,0,1
EndSplineSet
Substitution2: "'ss19' Latin to Gothic transliteration subtable" u1033F
Substitution2: "'c2sc' Capitals to Small Capitals in Latin lookup 21-1" u.sc
EndChar

StartChar: V
Encoding: 86 86 54
Width: 1358
GlyphClass: 2
Flags: W
LayerCount: 2
Fore
SplineSet
698 7 m 2,0,1
 677 -38 677 -38 647 -38 c 0,2,3
 613 -38 613 -38 596 7 c 2,4,-1
 173 1154 l 2,5,6
 132 1270 132 1270 31 1270 c 0,7,8
 16 1270 16 1270 16 1316.5 c 128,-1,9
 16 1363 16 1363 31 1363 c 1,10,11
 76 1358 76 1358 262 1358 c 0,12,13
 470 1358 470 1358 518 1363 c 1,14,15
 531 1363 531 1363 531 1316.5 c 128,-1,16
 531 1270 531 1270 518 1270 c 0,17,18
 394 1270 394 1270 394 1206 c 0,19,20
 394 1184 394 1184 405 1154 c 2,21,-1
 687 379 l 2,22,23
 696 359 696 359 712 359 c 0,24,25
 729 359 729 359 738 382 c 2,26,-1
 1032 1146 l 2,27,28
 1043 1176 1043 1176 1043 1199 c 0,29,30
 1038 1270 1038 1270 944 1270 c 0,31,32
 929 1270 929 1270 929 1316.5 c 128,-1,33
 929 1363 929 1363 944 1363 c 1,34,35
 992 1358 992 1358 1150 1358 c 0,36,37
 1316 1358 1316 1358 1364 1363 c 1,38,39
 1378 1363 1378 1363 1378 1316.5 c 128,-1,40
 1378 1270 1378 1270 1364 1270 c 0,41,42
 1216 1270 1216 1270 1181 1185 c 2,43,-1
 698 7 l 2,0,1
EndSplineSet
Substitution2: "'c2sc' Capitals to Small Capitals in Latin lookup 21-1" v.sc
EndChar

StartChar: W
Encoding: 87 87 55
Width: 2012
GlyphClass: 2
Flags: W
LayerCount: 2
Fore
SplineSet
1859 1185 m 2,0,-1
 1322 7 l 2,1,2
 1299 -38 1299 -38 1272 -38 c 0,3,4
 1246 -38 1246 -38 1215 25 c 2,5,-1
 1010 481 l 2,6,7
 1002 499 1002 499 995 499 c 0,8,9
 987 499 987 499 978 479 c 2,10,-1
 762 7 l 2,11,12
 741 -38 741 -38 712 -38 c 0,13,14
 684 -38 684 -38 655 25 c 2,15,-1
 149 1154 l 2,16,17
 98 1270 98 1270 6 1270 c 0,18,19
 -8 1270 -8 1270 -8 1316.5 c 128,-1,20
 -8 1363 -8 1363 6 1363 c 1,21,22
 54 1358 54 1358 222 1358 c 0,23,24
 408 1358 408 1358 456 1363 c 1,25,26
 471 1363 471 1363 471 1316.5 c 128,-1,27
 471 1270 471 1270 456 1270 c 0,28,29
 387 1270 387 1270 386 1225 c 0,30,31
 390 1185 390 1185 405 1154 c 2,32,-1
 756 374 l 2,33,34
 764 357 764 357 778 357 c 0,35,36
 790 357 790 357 798 374 c 2,37,-1
 919 640 l 2,38,39
 925 655 925 655 925 662 c 0,40,41
 925 671 925 671 919 686 c 2,42,-1
 684 1208 l 2,43,44
 656 1270 656 1270 602 1270 c 0,45,46
 588 1270 588 1270 588 1316.5 c 128,-1,47
 588 1363 588 1363 602 1363 c 1,48,49
 650 1358 650 1358 810 1358 c 0,50,51
 966 1358 966 1358 1014 1363 c 1,52,53
 1028 1363 1028 1363 1028 1316.5 c 128,-1,54
 1028 1270 1028 1270 1014 1270 c 0,55,56
 944 1270 944 1270 944 1229 c 0,57,58
 944 1197 944 1197 964 1154 c 2,59,-1
 1039 991 l 2,60,61
 1047 973 1047 973 1057 973 c 0,62,63
 1070 973 1070 973 1081 997 c 2,64,-1
 1150 1146 l 2,65,66
 1176 1202 1176 1202 1176 1231 c 0,67,68
 1176 1270 1176 1270 1123 1270 c 0,69,70
 1109 1270 1109 1270 1109 1316.5 c 128,-1,71
 1109 1363 1109 1363 1123 1363 c 1,72,73
 1173 1358 1173 1358 1299 1358 c 0,74,75
 1434 1358 1434 1358 1482 1363 c 1,76,77
 1497 1363 1497 1363 1497 1316.5 c 128,-1,78
 1497 1270 1497 1270 1482 1270 c 0,79,80
 1337 1270 1337 1270 1299 1185 c 2,81,-1
 1141 838 l 2,82,83
 1130 814 1130 814 1130 798 c 0,84,85
 1130 786 1130 786 1135 775 c 2,86,-1
 1316 376 l 2,87,88
 1324 358 1324 358 1339 358 c 0,89,90
 1351 358 1351 358 1358 374 c 2,91,-1
 1710 1146 l 2,92,93
 1731 1192 1731 1192 1731 1221 c 0,94,95
 1730 1270 1730 1270 1666 1270 c 0,96,97
 1651 1270 1651 1270 1651 1316.5 c 128,-1,98
 1651 1363 1651 1363 1666 1363 c 1,99,100
 1711 1358 1711 1358 1853 1358 c 0,101,102
 1994 1358 1994 1358 2042 1363 c 1,103,104
 2056 1363 2056 1363 2056 1316.5 c 128,-1,105
 2056 1270 2056 1270 2042 1270 c 0,106,107
 1897 1270 1897 1270 1859 1185 c 2,0,-1
EndSplineSet
Substitution2: "'ss19' Latin to Gothic transliteration subtable" u10345
Substitution2: "'c2sc' Capitals to Small Capitals in Latin lookup 21-1" w.sc
Substitution2: "'ss02' Style Set 2 in Latin lookup 5" uni01F7
EndChar

StartChar: X
Encoding: 88 88 56
Width: 1382
GlyphClass: 2
Flags: W
LayerCount: 2
Fore
SplineSet
1152 202 m 2,0,1
 1233 86 1233 86 1369 86 c 0,2,3
 1384 86 1384 86 1384 39.5 c 128,-1,4
 1384 -7 1384 -7 1369 -7 c 1,5,6
 1290 0 1290 0 1095 0 c 0,7,8
 920 0 920 0 825 -7 c 1,9,10
 811 -7 811 -7 811 39.5 c 128,-1,11
 811 86 811 86 825 86 c 0,12,13
 933 86 933 86 933 133 c 0,14,15
 933 162 933 162 898 208 c 2,16,-1
 655 527 l 2,17,18
 644 542 644 542 632 542 c 0,19,20
 618 542 618 542 607 527 c 2,21,-1
 436 300 l 2,22,23
 370 212 370 212 368 156 c 0,24,25
 366 86 366 86 468 86 c 0,26,27
 482 86 482 86 482 39.5 c 128,-1,28
 482 -7 482 -7 468 -7 c 1,29,30
 390 0 390 0 237 0 c 0,31,32
 9 0 9 0 -33 -7 c 1,33,34
 -46 -7 -46 -7 -46 39.5 c 128,-1,35
 -46 86 -46 86 -33 86 c 0,36,37
 118 86 118 86 189 172 c 2,38,-1
 554 631 l 2,39,40
 567 647 567 647 567 664 c 0,41,42
 567 678 567 678 554 695 c 2,43,-1
 198 1194 l 2,44,45
 144 1270 144 1270 21 1270 c 0,46,47
 7 1270 7 1270 7 1316.5 c 128,-1,48
 7 1363 7 1363 21 1363 c 1,49,50
 68 1358 68 1358 312 1358 c 0,51,52
 554 1358 554 1358 602 1363 c 1,53,54
 616 1363 616 1363 616 1316.5 c 128,-1,55
 616 1270 616 1270 602 1270 c 0,56,57
 478 1270 478 1270 478 1215 c 0,58,59
 478 1192 478 1192 505 1154 c 2,60,-1
 703 879 l 2,61,62
 713 865 713 865 722 865 c 0,63,64
 734 865 734 865 745 879 c 2,65,-1
 961 1146 l 2,66,67
 995 1188 995 1188 995 1217 c 0,68,69
 995 1270 995 1270 913 1270 c 0,70,71
 899 1270 899 1270 899 1316.5 c 128,-1,72
 899 1363 899 1363 913 1363 c 1,73,74
 960 1358 960 1358 1135 1358 c 0,75,76
 1308 1358 1308 1358 1356 1363 c 1,77,78
 1371 1363 1371 1363 1371 1316.5 c 128,-1,79
 1371 1270 1371 1270 1356 1270 c 0,80,81
 1239 1270 1239 1270 1146 1185 c 0,82,83
 1113 1155 1113 1155 1062 1092 c 2,84,-1
 810 782 l 2,85,86
 793 761 793 761 793 745 c 0,87,88
 793 731 793 731 804 713 c 2,89,-1
 1152 202 l 2,0,1
EndSplineSet
Substitution2: "'ss19' Latin to Gothic transliteration subtable" u10347
Substitution2: "'c2sc' Capitals to Small Capitals in Latin lookup 21-1" x.sc
EndChar

StartChar: Y
Encoding: 89 89 57
Width: 1325
GlyphClass: 2
Flags: W
AnchorPoint: "Anchor-0" 718 1425 basechar 0
LayerCount: 2
Fore
SplineSet
758 202 m 2,0,1
 758 86 758 86 906 86 c 0,2,3
 919 86 919 86 919 39.5 c 128,-1,4
 919 -7 919 -7 906 -7 c 1,5,6
 841 0 841 0 640 0 c 0,7,8
 440 0 440 0 367 -7 c 1,9,10
 353 -7 353 -7 353 39.5 c 128,-1,11
 353 86 353 86 367 86 c 0,12,13
 514 86 514 86 514 202 c 2,14,-1
 514 494 l 2,15,16
 514 562 514 562 504 588 c 0,17,18
 496 610 496 610 449 684 c 2,19,-1
 151 1154 l 2,20,21
 99 1236 99 1236 50 1258 c 0,22,23
 22 1270 22 1270 -13 1270 c 0,24,25
 -28 1270 -28 1270 -28 1316.5 c 128,-1,26
 -28 1363 -28 1363 -13 1363 c 1,27,28
 34 1358 34 1358 248 1358 c 0,29,30
 464 1358 464 1358 514 1363 c 1,31,32
 528 1363 528 1363 528 1316.5 c 128,-1,33
 528 1270 528 1270 514 1270 c 0,34,35
 404 1270 404 1270 404 1217 c 0,36,37
 404 1186 404 1186 424 1154 c 2,38,-1
 678 749 l 2,39,40
 689 732 689 732 698 732 c 0,41,42
 708 732 708 732 720 751 c 2,43,-1
 988 1146 l 2,44,45
 1011 1180 1011 1180 1011 1206 c 0,46,47
 1011 1270 1011 1270 906 1270 c 0,48,49
 891 1270 891 1270 891 1316.5 c 128,-1,50
 891 1363 891 1363 906 1363 c 1,51,52
 951 1358 951 1358 1127 1358 c 0,53,54
 1312 1358 1312 1358 1360 1363 c 1,55,56
 1374 1363 1374 1363 1374 1316.5 c 128,-1,57
 1374 1270 1374 1270 1360 1270 c 0,58,59
 1252 1270 1252 1270 1181 1202 c 2,60,-1
 1148 1167 l 1,61,-1
 811 686 l 2,62,63
 773 630 773 630 766 608 c 0,64,65
 758 580 758 580 758 499 c 2,66,-1
 758 202 l 2,0,1
EndSplineSet
Substitution2: "'c2sc' Capitals to Small Capitals in Latin lookup 21-1" y.sc
EndChar

StartChar: Z
Encoding: 90 90 58
Width: 1317
GlyphClass: 2
Flags: W
LayerCount: 2
Fore
SplineSet
1270 19 m 0,0,1
 1270 -29 1270 -29 1254 -29 c 0,2,3
 1229 -30 1229 -30 1175 -21 c 0,4,5
 1044 0 1044 0 594 0 c 2,6,-1
 146 0 l 2,7,8
 76 0 76 0 76 49 c 0,9,10
 76 75 76 75 93 97 c 2,11,-1
 964 1236 l 2,12,13
 974 1249 974 1249 974 1257 c 0,14,15
 974 1274 974 1274 934 1274 c 2,16,-1
 421 1274 l 2,17,18
 377 1274 377 1274 350 1247 c 0,19,20
 311 1216 311 1216 253 1075 c 0,21,22
 222 1000 222 1000 220 974 c 0,23,24
 219 963 219 963 194 962 c 0,25,26
 178 962 178 962 162 967 c 0,27,28
 138 975 138 975 137 988 c 1,29,30
 168 1223 168 1223 168 1320 c 0,31,32
 168 1368 168 1368 209 1368 c 0,33,34
 212 1368 212 1368 269 1359 c 0,35,36
 317 1352 317 1352 330 1352 c 2,37,-1
 837 1352 l 1,38,-1
 1219 1358 l 2,39,40
 1284 1359 1284 1359 1284 1326 c 0,41,42
 1284 1302 1284 1302 1259 1268 c 2,43,-1
 426 124 l 2,44,45
 419 114 419 114 419 107 c 0,46,47
 419 86 419 86 452 86 c 0,48,49
 863 86 863 86 1045 99 c 0,50,51
 1098 103 1098 103 1183 249 c 0,52,53
 1223 318 1223 318 1234 355 c 0,54,55
 1236 362 1236 362 1253 362 c 0,56,57
 1287 362 1287 362 1308 345 c 0,58,59
 1315 339 1315 339 1314 330 c 1,60,61
 1270 158 1270 158 1270 19 c 0,0,1
EndSplineSet
Substitution2: "'ss19' Latin to Gothic transliteration subtable" u10336
Substitution2: "'c2sc' Capitals to Small Capitals in Latin lookup 21-1" z.sc
EndChar

StartChar: bracketleft
Encoding: 91 91 59
Width: 798
GlyphClass: 2
Flags: W
LayerCount: 2
Fore
SplineSet
754 -354 m 2,0,-1
 317 -354 l 2,1,2
 295 -354 295 -354 295 -332 c 2,3,-1
 295 1511 l 2,4,5
 295 1530 295 1530 315 1530 c 2,6,-1
 754 1530 l 2,7,8
 774 1530 774 1530 774 1482 c 128,-1,9
 774 1434 774 1434 754 1434 c 2,10,-1
 528 1434 l 2,11,12
 508 1434 508 1434 508 1411 c 2,13,-1
 508 -229 l 2,14,15
 508 -258 508 -258 522 -258 c 2,16,-1
 754 -258 l 2,17,18
 774 -258 774 -258 774 -306 c 128,-1,19
 774 -354 774 -354 754 -354 c 2,0,-1
EndSplineSet
EndChar

StartChar: backslash
Encoding: 92 92 60
Width: 716
GlyphClass: 2
Flags: W
LayerCount: 2
Fore
SplineSet
731 31 m 2,0,1
 741 7 741 7 664 -19 c 0,2,3
 637 -28 637 -28 617 -28 c 0,4,5
 598 -28 598 -28 594 -18 c 2,6,-1
 -14 1425 l 2,7,8
 -26 1453 -26 1453 43 1482 c 0,9,10
 73 1494 73 1494 96 1494 c 0,11,12
 120 1494 120 1494 125 1481 c 2,13,-1
 731 31 l 2,0,1
EndSplineSet
EndChar

StartChar: bracketright
Encoding: 93 93 61
Width: 798
GlyphClass: 2
Flags: W
LayerCount: 2
Fore
SplineSet
504 -332 m 2,0,1
 504 -354 504 -354 481 -354 c 2,2,-1
 47 -354 l 2,3,4
 27 -354 27 -354 27 -306 c 128,-1,5
 27 -258 27 -258 47 -258 c 2,6,-1
 279 -258 l 2,7,8
 293 -258 293 -258 293 -233 c 2,9,-1
 293 1411 l 2,10,11
 293 1434 293 1434 274 1434 c 2,12,-1
 47 1434 l 2,13,14
 27 1434 27 1434 27 1482 c 128,-1,15
 27 1530 27 1530 47 1530 c 2,16,-1
 483 1530 l 2,17,18
 504 1530 504 1530 504 1511 c 2,19,-1
 504 -332 l 2,0,1
EndSplineSet
EndChar

StartChar: asciicircum
Encoding: 94 94 62
Width: 1095
GlyphClass: 2
Flags: W
LayerCount: 2
Fore
SplineSet
1044 535 m 1,0,-1
 825 535 l 1,1,-1
 549 1112 l 1,2,-1
 270 535 l 1,3,-1
 49 535 l 1,4,-1
 471 1372 l 1,5,-1
 625 1372 l 1,6,-1
 1044 535 l 1,0,-1
EndSplineSet
EndChar

StartChar: underscore
Encoding: 95 95 63
Width: 1024
GlyphClass: 2
Flags: W
LayerCount: 2
Fore
SplineSet
1024 -266 m 1,0,-1
 0 -266 l 1,1,-1
 0 -145 l 1,2,-1
 1024 -145 l 1,3,-1
 1024 -266 l 1,0,-1
EndSplineSet
EndChar

StartChar: grave
Encoding: 96 96 64
Width: 569
GlyphClass: 2
Flags: W
LayerCount: 2
Fore
SplineSet
461 1114 m 2,0,1
 469 1092 469 1092 469 1074 c 0,2,3
 469 1020 469 1020 427 1020 c 0,4,5
 392 1020 392 1020 358 1069 c 2,6,-1
 189 1318 l 2,7,8
 184 1326 184 1326 184 1334 c 0,9,10
 184 1366 184 1366 242 1397 c 0,11,12
 284 1420 284 1420 316 1420 c 0,13,14
 340 1420 340 1420 344 1406 c 2,15,-1
 461 1114 l 2,0,1
EndSplineSet
EndChar

StartChar: a
Encoding: 97 97 65
Width: 860
GlyphClass: 2
Flags: W
AnchorPoint: "Anchor-1" 392.158 -75 basechar 0
AnchorPoint: "Anchor-0" 371 900 basechar 0
LayerCount: 2
Fore
SplineSet
866 88 m 0,0,1
 808 -25 808 -25 676 -25 c 0,2,3
 584 -25 584 -25 514 57 c 0,4,5
 500 76 500 76 493 76 c 0,6,7
 480 76 480 76 465 59 c 0,8,9
 383 -23 383 -23 266 -23 c 0,10,11
 141 -23 141 -23 89 62 c 0,12,13
 63 105 63 105 63 162 c 0,14,15
 63 283 63 283 275 393 c 2,16,-1
 426 465 l 2,17,18
 461 485 461 485 461 512 c 2,19,-1
 461 702 l 2,20,21
 461 774 461 774 356 774 c 0,22,23
 277 774 277 774 240 723 c 0,24,25
 231 709 231 709 230 648 c 0,26,27
 230 613 230 613 225 596 c 0,28,29
 200 508 200 508 133 508 c 0,30,31
 43 508 43 508 43 586 c 0,32,33
 43 653 43 653 99 730 c 0,34,35
 130 774 130 774 164 795 c 0,36,37
 284 870 284 870 428 870 c 0,38,39
 541 870 541 870 623 814 c 0,40,41
 688 770 688 770 690 707 c 2,42,-1
 690 199 l 2,43,44
 690 85 690 85 757 85 c 0,45,46
 787 82 787 82 829 121 c 0,47,48
 837 129 837 129 857 112 c 0,49,50
 871 98 871 98 866 88 c 0,0,1
461 193 m 2,51,-1
 461 375 l 2,52,53
 461 398 461 398 447 398 c 0,54,55
 440 398 440 398 434 395 c 0,56,57
 293 324 293 324 293 205 c 0,58,59
 293 88 293 88 365 88 c 0,60,61
 461 88 461 88 461 193 c 2,51,-1
EndSplineSet
Substitution2: "'ss19' Latin to Gothic transliteration subtable" u10330
Substitution2: "'smcp' Lowercase to Small Capitals in Latin lookup 20-1" a.sc
EndChar

StartChar: b
Encoding: 98 98 66
Width: 1050
GlyphClass: 2
Flags: W
AnchorPoint: "Anchor-1" 532.158 -75 basechar 0
AnchorPoint: "Anchor-0" 480 1545 basechar 0
LayerCount: 2
Fore
SplineSet
981 440 m 0,0,1
 981 233 981 233 868 104 c 0,2,3
 758 -23 758 -23 537 -23 c 0,4,5
 479 -23 479 -23 407 7 c 0,6,7
 351 31 351 31 303 31 c 0,8,9
 286 31 286 31 248 -3 c 2,10,-1
 229 -18 l 2,11,12
 225 -21 225 -21 216 -21 c 0,13,14
 185 -21 185 -21 142 12 c 0,15,16
 123 27 123 27 123 35 c 0,17,18
 129 65 129 65 129 279 c 2,19,-1
 129 1161 l 2,20,21
 129 1286 129 1286 35 1286 c 0,22,23
 19 1286 19 1286 19 1322 c 0,24,25
 19 1360 19 1360 35 1360 c 0,26,27
 85 1360 85 1360 221 1426 c 0,28,29
 289 1459 289 1459 309 1477 c 0,30,31
 322 1487 322 1487 338 1487 c 0,32,33
 364 1487 364 1487 367 1462 c 2,34,-1
 358 1286 l 1,35,-1
 358 840 l 2,36,37
 358 812 358 812 374 812 c 0,38,39
 383 812 383 812 393 819 c 0,40,41
 466 870 466 870 561 870 c 0,42,43
 737 870 737 870 856 751 c 0,44,45
 981 626 981 626 981 440 c 0,0,1
727 428 m 0,46,47
 727 586 727 586 660 683 c 0,48,49
 601 770 601 770 502 770 c 0,50,51
 431 770 431 770 389 727 c 0,52,53
 358 696 358 696 358 647 c 2,54,-1
 358 297 l 2,55,56
 358 181 358 181 431 111 c 0,57,58
 487 57 487 57 565 57 c 0,59,60
 727 57 727 57 727 428 c 0,46,47
EndSplineSet
Substitution2: "'ss19' Latin to Gothic transliteration subtable" u10331
Substitution2: "'smcp' Lowercase to Small Capitals in Latin lookup 20-1" b.sc
EndChar

StartChar: c
Encoding: 99 99 67
Width: 880
GlyphClass: 2
Flags: W
AnchorPoint: "Anchor-1" 456.158 -75 basechar 0
AnchorPoint: "Anchor-0" 494 900 basechar 0
LayerCount: 2
Fore
SplineSet
709 620 m 0,0,1
 672 620 672 620 653 649 c 2,2,-1
 614 715 l 2,3,4
 575 774 575 774 502 774 c 0,5,6
 421 774 421 774 361 681 c 0,7,8
 295 579 295 579 295 436 c 0,9,10
 295 303 295 303 383 209 c 0,11,12
 462 125 462 125 563 125 c 0,13,14
 672 125 672 125 750 180 c 0,15,16
 767 192 767 192 796 150 c 0,17,18
 822 107 822 107 805 96 c 2,19,-1
 723 43 l 2,20,21
 607 -23 607 -23 457 -23 c 0,22,23
 317 -23 317 -23 206 76 c 0,24,25
 66 199 66 199 66 387 c 0,26,27
 66 557 66 557 172 694 c 0,28,29
 308 870 308 870 522 870 c 0,30,31
 657 870 657 870 745 825 c 0,32,33
 784 805 784 805 799 780 c 0,34,35
 805 764 805 764 805 740 c 0,36,37
 805 688 805 688 774 655 c 0,38,39
 739 620 739 620 709 620 c 0,0,1
EndSplineSet
Substitution2: "'swsh' Swash lookup 23-1" uniF198
Substitution2: "'smcp' Lowercase to Small Capitals in Latin lookup 20-1" c.sc
EndChar

StartChar: d
Encoding: 100 100 68
Width: 1036
GlyphClass: 2
Flags: W
AnchorPoint: "Anchor-1" 492.158 -75 basechar 0
AnchorPoint: "Anchor-0" 472 1545 basechar 0
LayerCount: 2
Fore
SplineSet
1022 31 m 0,0,1
 993 19 993 19 866 -4 c 0,2,3
 764 -30 764 -30 735 -35 c 2,4,-1
 723 -35 l 2,5,6
 713 -35 713 -35 713 10 c 2,7,-1
 713 39 l 2,8,9
 713 61 713 61 702 61 c 0,10,11
 690 61 690 61 674 47 c 0,12,13
 580 -23 580 -23 479 -23 c 0,14,15
 235 -23 235 -23 124 151 c 0,16,17
 53 262 53 262 53 418 c 0,18,19
 53 595 53 595 175 720 c 0,20,21
 322 870 322 870 567 870 c 0,22,23
 616 870 616 870 647 866 c 0,24,25
 674 863 674 863 674 889 c 2,26,-1
 674 1161 l 2,27,28
 674 1286 674 1286 582 1286 c 0,29,30
 566 1286 566 1286 566 1322 c 0,31,32
 566 1360 566 1360 582 1360 c 0,33,34
 632 1360 632 1360 767 1427 c 0,35,36
 832 1459 832 1459 852 1477 c 0,37,38
 865 1487 865 1487 879 1487 c 0,39,40
 909 1487 909 1487 909 1454 c 0,41,42
 903 1384 903 1384 903 1286 c 2,43,-1
 903 256 l 2,44,45
 903 166 903 166 913 139 c 0,46,47
 927 99 927 99 966 99 c 0,48,49
 979 99 979 99 999 104 c 0,50,51
 1015 108 1015 108 1026 73 c 0,52,53
 1034 36 1034 36 1022 31 c 0,0,1
674 141 m 2,54,-1
 674 694 l 2,55,56
 674 738 674 738 670 746 c 0,57,58
 665 756 665 756 653 764 c 0,59,60
 606 793 606 793 541 793 c 0,61,62
 407 793 407 793 345 649 c 0,63,64
 307 561 307 561 307 444 c 0,65,66
 307 251 307 251 386 142 c 0,67,68
 445 61 445 61 530 61 c 0,69,70
 616 61 616 61 660 113 c 0,71,72
 674 130 674 130 674 141 c 2,54,-1
EndSplineSet
Substitution2: "'ss19' Latin to Gothic transliteration subtable" u10333
Substitution2: "'swsh' Swash lookup 23-1" uniF193
Substitution2: "'smcp' Lowercase to Small Capitals in Latin lookup 20-1" d.sc
Substitution2: "'ss02' Style Set 2 in Latin lookup 5" uniA77A
EndChar

StartChar: e
Encoding: 101 101 69
Width: 876
GlyphClass: 2
Flags: W
AnchorPoint: "Anchor-1" 434.158 -75 basechar 0
AnchorPoint: "Anchor-0" 461 900 basechar 0
LayerCount: 2
Fore
SplineSet
809 612 m 0,0,1
 809 537 809 537 719 537 c 2,2,-1
 334 537 l 2,3,4
 297 537 297 537 297 510 c 0,5,6
 297 273 297 273 409 176 c 0,7,8
 471 123 471 123 561 123 c 0,9,10
 642 123 642 123 727 178 c 0,11,12
 747 189 747 189 776 152 c 0,13,14
 802 117 802 117 791 106 c 0,15,16
 743 57 743 57 657 18 c 0,17,18
 569 -23 569 -23 455 -23 c 0,19,20
 320 -23 320 -23 212 86 c 0,21,22
 68 230 68 230 68 436 c 0,23,24
 68 601 68 601 175 727 c 0,25,26
 297 870 297 870 461 870 c 0,27,28
 639 870 639 870 744 751 c 0,29,30
 809 662 809 662 809 612 c 0,0,1
309 653 m 0,31,32
 309 627 309 627 346 627 c 2,33,-1
 549 627 l 2,34,35
 586 627 586 627 586 651 c 0,36,37
 586 718 586 718 531 763 c 0,38,39
 497 791 497 791 463 791 c 0,40,41
 399 791 399 791 350 748 c 0,42,43
 309 708 309 708 309 653 c 0,31,32
EndSplineSet
Substitution2: "'ss19' Latin to Gothic transliteration subtable" u10334
Substitution2: "'smcp' Lowercase to Small Capitals in Latin lookup 20-1" e.sc
EndChar

StartChar: f
Encoding: 102 102 70
Width: 583
GlyphClass: 2
Flags: W
AnchorPoint: "Anchor-1" 284.158 -75 basechar 0
AnchorPoint: "Anchor-0" 552 1545 basechar 0
LayerCount: 2
Fore
SplineSet
609 798 m 0,0,1
 609 745 609 745 594 745 c 2,2,-1
 430 745 l 2,3,4
 393 745 393 745 393 709 c 2,5,-1
 393 136 l 2,6,7
 393 68 393 68 526 68 c 0,8,9
 542 68 542 68 542 30 c 128,-1,10
 542 -8 542 -8 526 -8 c 1,11,12
 446 0 446 0 287 0 c 0,13,14
 139 0 139 0 55 -8 c 1,15,16
 40 -8 40 -8 40 30 c 128,-1,17
 40 68 40 68 55 68 c 0,18,19
 164 68 164 68 164 136 c 2,20,-1
 164 709 l 2,21,22
 164 745 164 745 127 745 c 2,23,-1
 72 745 l 2,24,25
 56 745 56 745 56 782 c 128,-1,26
 56 819 56 819 72 819 c 3,27,28
 119 819 119 819 141.5 852 c 128,-1,29
 164 885 164 885 164 932 c 3,30,31
 164 1078 164 1078 232 1211 c 0,32,33
 265 1276 265 1276 309 1321 c 0,34,35
 467 1487 467 1487 674 1487 c 0,36,37
 797 1487 797 1487 859 1428 c 0,38,39
 897 1392 897 1392 897 1343 c 0,40,41
 897 1288 897 1288 844 1247 c 0,42,43
 813 1223 813 1223 784 1223 c 0,44,45
 683 1223 683 1223 637 1312 c 0,46,47
 608 1370 608 1370 559 1374 c 0,48,49
 501 1374 501 1374 463 1321 c 0,50,51
 393 1225 393 1225 393 1048 c 2,52,-1
 393 887 l 2,53,54
 393 850 393 850 430 850 c 2,55,-1
 594 850 l 2,56,57
 609 850 609 850 609 798 c 0,0,1
EndSplineSet
Substitution2: "'ss19' Latin to Gothic transliteration subtable" u10346
Substitution2: "'swsh' Swash lookup 23-1" uniF194
Substitution2: "'smcp' Lowercase to Small Capitals in Latin lookup 20-1" f.sc
Substitution2: "'salt' Stylistic Alternatives in Latin lookup 7" f.alt
Substitution2: "Single Substitution dot strip-1" f.alt
Substitution2: "'ss02' Style Set 2 in Latin lookup 5" uniA77C
EndChar

StartChar: g
Encoding: 103 103 71
Width: 948
GlyphClass: 2
Flags: W
AnchorPoint: "Anchor-0" 444 900 basechar 0
LayerCount: 2
Fore
SplineSet
981 -141 m 0,0,1
 981 -303 981 -303 834 -421 c 0,2,3
 661 -559 661 -559 412 -559 c 0,4,5
 112 -559 112 -559 40 -411 c 0,6,7
 20 -370 20 -370 20 -319 c 0,8,9
 20 -238 20 -238 123 -153 c 0,10,11
 157 -125 157 -125 203 -102 c 0,12,13
 217 -95 217 -95 217 -88 c 0,14,15
 217 -83 217 -83 201 -76 c 0,16,17
 68 -20 68 -20 68 98 c 0,18,19
 68 173 68 173 213 236 c 0,20,21
 229 243 229 243 229 249 c 0,22,23
 229 254 229 254 211 266 c 0,24,25
 57 363 57 363 57 528 c 0,26,27
 57 669 57 669 166 768 c 0,28,29
 278 870 278 870 442 870 c 0,30,31
 553 870 553 870 664 827 c 0,32,33
 729 799 729 799 755 797 c 2,34,-1
 948 797 l 2,35,36
 964 797 964 797 964 742 c 0,37,38
 964 682 964 682 948 682 c 2,39,-1
 856 682 l 2,40,41
 825 682 825 682 825 653 c 2,42,-1
 825 575 l 2,43,44
 825 406 825 406 706 305 c 0,45,46
 602 217 602 217 430 217 c 0,47,48
 380 217 380 217 324 224 c 0,49,50
 312 225 312 225 301 217 c 0,51,52
 264 187 264 187 264 160 c 0,53,54
 264 128 264 128 304 108 c 0,55,56
 337 92 337 92 391 92 c 2,57,-1
 645 92 l 2,58,59
 774 92 774 92 837 71 c 0,60,61
 981 24 981 24 981 -141 c 0,0,1
592 522 m 0,62,63
 592 699 592 699 521 764 c 0,64,65
 490 793 490 793 446 793 c 0,66,67
 374 793 374 793 327 707 c 0,68,69
 289 637 289 637 289 549 c 0,70,71
 289 428 289 428 348 353 c 0,72,73
 394 295 394 295 461 295 c 0,74,75
 550 295 550 295 580 414 c 0,76,77
 592 462 592 462 592 522 c 0,62,63
811 -242 m 0,78,79
 811 -111 811 -111 575 -111 c 2,80,-1
 363 -111 l 2,81,82
 342 -111 342 -111 322 -125 c 0,83,84
 259 -171 259 -171 258 -248 c 0,85,86
 258 -323 258 -323 318 -378 c 0,87,88
 386 -440 386 -440 504 -440 c 0,89,90
 755 -440 755 -440 802 -300 c 0,91,92
 811 -273 811 -273 811 -242 c 0,78,79
EndSplineSet
Substitution2: "'ss19' Latin to Gothic transliteration subtable" u10332
Substitution2: "'swsh' Swash lookup 23-1" uniF196
Substitution2: "'smcp' Lowercase to Small Capitals in Latin lookup 20-1" g.sc
Substitution2: "'ss02' Style Set 2 in Latin lookup 5" uniF10F
EndChar

StartChar: h
Encoding: 104 104 72
Width: 1093
GlyphClass: 2
Flags: W
AnchorPoint: "Anchor-1" 562.158 -75 basechar 0
AnchorPoint: "Anchor-0" 480 1545 basechar 0
LayerCount: 2
Fore
SplineSet
1079 -8 m 1,0,1
 999 0 999 0 858 0 c 0,2,3
 709 0 709 0 629 -8 c 1,4,5
 613 -8 613 -8 613 30 c 128,-1,6
 613 68 613 68 629 68 c 0,7,8
 733 68 733 68 733 132 c 2,9,-1
 733 555 l 2,10,11
 733 630 733 630 688 694 c 0,12,13
 639 762 639 762 565 762 c 0,14,15
 475 762 475 762 422 699 c 0,16,17
 393 664 393 664 393 627 c 2,18,-1
 393 143 l 2,19,20
 393 68 393 68 496 68 c 0,21,22
 511 68 511 68 511 30 c 128,-1,23
 511 -8 511 -8 496 -8 c 1,24,25
 412 0 412 0 287 0 c 0,26,27
 135 0 135 0 51 -8 c 1,28,29
 36 -8 36 -8 36 29.5 c 128,-1,30
 36 67 36 67 51 68 c 0,31,32
 164 68 164 68 164 137 c 2,33,-1
 164 1161 l 2,34,35
 164 1286 164 1286 72 1286 c 0,36,37
 56 1286 56 1286 56 1322 c 0,38,39
 56 1360 56 1360 72 1360 c 0,40,41
 122 1360 122 1360 257 1427 c 0,42,43
 322 1459 322 1459 342 1477 c 0,44,45
 355 1487 355 1487 371 1487 c 0,46,47
 398 1487 398 1487 399 1460 c 0,48,49
 397 1375 397 1375 393 1286 c 2,50,-1
 393 821 l 2,51,52
 393 798 393 798 404 798 c 0,53,54
 412 798 412 798 426 809 c 0,55,56
 508 870 508 870 637 870 c 0,57,58
 817 870 817 870 907 734 c 0,59,60
 963 650 963 650 963 557 c 2,61,-1
 963 143 l 2,62,63
 970 68 970 68 1079 68 c 0,64,65
 1095 68 1095 68 1095 30 c 128,-1,66
 1095 -8 1095 -8 1079 -8 c 1,0,1
EndSplineSet
Substitution2: "'ss19' Latin to Gothic transliteration subtable" u10337
Substitution2: "'smcp' Lowercase to Small Capitals in Latin lookup 20-1" h.sc
EndChar

StartChar: i
Encoding: 105 105 73
Width: 524
GlyphClass: 2
Flags: W
AnchorPoint: "Anchor-1" 282.158 -75 basechar 0
AnchorPoint: "Anchor-0" 260 1380 basechar 0
LayerCount: 2
Fore
SplineSet
496 -8 m 1,0,1
 412 0 412 0 287 0 c 0,2,3
 143 0 143 0 59 -8 c 1,4,5
 44 -8 44 -8 44 30 c 128,-1,6
 44 68 44 68 59 68 c 0,7,8
 164 68 164 68 164 143 c 2,9,-1
 164 557 l 2,10,11
 164 682 164 682 72 682 c 0,12,13
 56 682 56 682 56 719 c 128,-1,14
 56 756 56 756 72 756 c 0,15,16
 122 756 122 756 259 824 c 0,17,18
 322 855 322 855 342 872 c 0,19,20
 355 883 355 883 373 883 c 0,21,22
 401 883 401 883 399 856 c 0,23,24
 393 768 393 768 393 682 c 2,25,-1
 393 143 l 2,26,27
 393 68 393 68 496 68 c 0,28,29
 511 68 511 68 511 30.5 c 128,-1,30
 511 -7 511 -7 496 -8 c 1,0,1
401 1185 m 0,31,32
 401 1114 401 1114 342 1074 c 0,33,34
 304 1048 304 1048 256 1048 c 0,35,36
 181 1048 181 1048 139 1106 c 0,37,38
 113 1142 113 1142 113 1185 c 0,39,40
 113 1254 113 1254 170 1296 c 0,41,42
 208 1324 208 1324 256 1324 c 0,43,44
 334 1324 334 1324 374 1266 c 0,45,46
 401 1226 401 1226 401 1185 c 0,31,32
EndSplineSet
Substitution2: "'ss19' Latin to Gothic transliteration subtable" u10339
Substitution2: "'smcp' Lowercase to Small Capitals in Latin lookup 20-1" i.sc
Substitution2: "Single Substitution dot strip-1" dotlessi
EndChar

StartChar: j
Encoding: 106 106 74
Width: 499
GlyphClass: 2
Flags: W
AnchorPoint: "Anchor-0" 228 1380 basechar 0
LayerCount: 2
Fore
SplineSet
373 1187 m 0,0,1
 373 1116 373 1116 314 1075 c 0,2,3
 275 1048 275 1048 227 1048 c 0,4,5
 153 1048 153 1048 110 1104 c 0,6,7
 82 1141 82 1141 82 1187 c 0,8,9
 82 1255 82 1255 139 1297 c 0,10,11
 178 1326 178 1326 227 1326 c 0,12,13
 300 1326 300 1326 344 1269 c 0,14,15
 373 1231 373 1231 373 1187 c 0,0,1
375 856 m 0,16,17
 367 764 367 764 367 682 c 2,18,-1
 367 139 l 2,19,20
 367 -47 367 -47 356 -129 c 0,21,22
 332 -304 332 -304 248 -416 c 0,23,24
 172 -519 172 -519 40 -547 c 0,25,26
 3 -555 3 -555 -32 -555 c 0,27,28
 -92 -555 -92 -555 -149 -512 c 0,29,30
 -193 -477 -193 -477 -193 -426 c 0,31,32
 -193 -369 -193 -369 -142 -339 c 0,33,34
 -116 -324 -116 -324 -84 -324 c 0,35,36
 -36 -324 -36 -324 -4 -376 c 0,37,38
 40 -449 40 -449 76 -449 c 0,39,40
 122 -448 122 -448 132 -358 c 0,41,42
 137 -315 137 -315 137 -229 c 2,43,-1
 137 557 l 2,44,45
 137 682 137 682 45 682 c 0,46,47
 30 682 30 682 30 719 c 128,-1,48
 30 756 30 756 45 756 c 0,49,50
 96 756 96 756 234 824 c 0,51,52
 297 855 297 855 317 872 c 0,53,54
 331 883 331 883 346 883 c 0,55,56
 374 883 374 883 375 856 c 0,16,17
EndSplineSet
Substitution2: "'ss19' Latin to Gothic transliteration subtable" u1033E
Substitution2: "'smcp' Lowercase to Small Capitals in Latin lookup 20-1" j.sc
Substitution2: "Single Substitution alternate j-1" j.alt
Substitution2: "Single Substitution dot strip-1" uni0237
EndChar

StartChar: k
Encoding: 107 107 75
Width: 1073
GlyphClass: 2
Flags: W
AnchorPoint: "Anchor-1" 556.158 -75 basechar 0
AnchorPoint: "Anchor-0" 508 1545 basechar 0
LayerCount: 2
Fore
SplineSet
1079 -8 m 1,0,1
 999 0 999 0 850 0 c 0,2,3
 700 0 700 0 616 -8 c 1,4,5
 601 -8 601 -8 601 30 c 128,-1,6
 601 68 601 68 616 68 c 0,7,8
 690 68 690 68 691 97 c 0,9,10
 691 113 691 113 664 145 c 2,11,-1
 469 369 l 2,12,13
 444 399 444 399 410 399 c 0,14,15
 393 399 393 399 393 365 c 2,16,-1
 393 143 l 2,17,18
 393 68 393 68 502 68 c 0,19,20
 517 68 517 68 517 30 c 128,-1,21
 517 -8 517 -8 502 -8 c 1,22,23
 418 0 418 0 287 0 c 0,24,25
 133 0 133 0 49 -8 c 1,26,27
 34 -8 34 -8 34 30 c 128,-1,28
 34 68 34 68 49 68 c 0,29,30
 164 68 164 68 164 139 c 2,31,-1
 164 1161 l 2,32,33
 155 1279 155 1279 72 1286 c 0,34,35
 56 1286 56 1286 56 1323 c 128,-1,36
 56 1360 56 1360 72 1360 c 0,37,38
 122 1360 122 1360 257 1427 c 0,39,40
 322 1459 322 1459 342 1477 c 0,41,42
 355 1487 355 1487 371 1487 c 0,43,44
 398 1487 398 1487 399 1460 c 0,45,46
 393 1373 393 1373 393 1287 c 2,47,-1
 393 528 l 2,48,49
 393 492 393 492 414 492 c 0,50,51
 458 492 458 492 494 530 c 2,52,-1
 647 700 l 2,53,54
 679 736 679 736 679 754 c 0,55,56
 679 784 679 784 596 784 c 0,57,58
 580 784 580 784 580 820 c 128,-1,59
 580 856 580 856 596 856 c 1,60,61
 656 850 656 850 813 850 c 0,62,63
 953 850 953 850 1016 856 c 1,64,65
 1031 856 1031 856 1031 820 c 128,-1,66
 1031 784 1031 784 1016 784 c 0,67,68
 911 784 911 784 834 713 c 2,69,-1
 625 524 l 2,70,71
 614 514 614 514 614 505 c 0,72,73
 614 491 614 491 625 479 c 2,74,-1
 954 121 l 2,75,76
 1001 68 1001 68 1079 68 c 0,77,78
 1095 68 1095 68 1095 30 c 128,-1,79
 1095 -8 1095 -8 1079 -8 c 1,0,1
EndSplineSet
Substitution2: "'ss19' Latin to Gothic transliteration subtable" u1033A
Substitution2: "'swsh' Swash lookup 23-1" uniF195
Substitution2: "'smcp' Lowercase to Small Capitals in Latin lookup 20-1" k.sc
EndChar

StartChar: l
Encoding: 108 108 76
Width: 524
GlyphClass: 2
Flags: W
AnchorPoint: "Anchor-1" 282.158 -75 basechar 0
AnchorPoint: "Anchor-0" 259 1545 basechar 0
LayerCount: 2
Fore
SplineSet
496 -8 m 1,0,1
 412 0 412 0 287 0 c 0,2,3
 143 0 143 0 59 -8 c 1,4,5
 44 -8 44 -8 44 30 c 128,-1,6
 44 68 44 68 59 68 c 0,7,8
 164 68 164 68 164 135 c 2,9,-1
 164 1161 l 2,10,11
 164 1286 164 1286 72 1286 c 0,12,13
 56 1286 56 1286 56 1323 c 128,-1,14
 56 1360 56 1360 72 1360 c 0,15,16
 122 1360 122 1360 257 1427 c 0,17,18
 322 1459 322 1459 342 1477 c 0,19,20
 355 1487 355 1487 369 1487 c 0,21,22
 399 1487 399 1487 399 1454 c 0,23,24
 393 1379 393 1379 393 1286 c 2,25,-1
 393 143 l 2,26,27
 393 68 393 68 496 68 c 0,28,29
 511 68 511 68 511 30 c 128,-1,30
 511 -8 511 -8 496 -8 c 1,0,1
EndSplineSet
Substitution2: "'ss19' Latin to Gothic transliteration subtable" u1033B
Substitution2: "'smcp' Lowercase to Small Capitals in Latin lookup 20-1" l.sc
EndChar

StartChar: m
Encoding: 109 109 77
Width: 1630
GlyphClass: 2
Flags: W
AnchorPoint: "Anchor-1" 814.158 -75 basechar 0
AnchorPoint: "Anchor-0" 874 900 basechar 0
LayerCount: 2
Fore
SplineSet
1587 -8 m 1,0,1
 1507 0 1507 0 1366 0 c 0,2,3
 1231 0 1231 0 1151 -8 c 1,4,5
 1135 -8 1135 -8 1135 30 c 128,-1,6
 1135 68 1135 68 1151 68 c 0,7,8
 1251 68 1251 68 1251 135 c 2,9,-1
 1251 610 l 2,10,11
 1251 762 1251 762 1100 762 c 0,12,13
 1031 762 1031 762 981 700 c 0,14,15
 936 644 936 644 936 569 c 2,16,-1
 936 140 l 2,17,18
 936 68 936 68 1040 68 c 0,19,20
 1056 68 1056 68 1056 30 c 128,-1,21
 1056 -8 1056 -8 1040 -8 c 1,22,23
 960 0 960 0 821 0 c 0,24,25
 690 0 690 0 606 -8 c 1,26,27
 591 -8 591 -8 591 30 c 128,-1,28
 591 68 591 68 606 68 c 0,29,30
 707 68 707 68 707 132 c 2,31,-1
 707 565 l 2,32,33
 707 699 707 699 662 740 c 0,34,35
 636 762 636 762 565 762 c 0,36,37
 513 762 513 762 468 730 c 0,38,39
 393 672 393 672 393 604 c 2,40,-1
 393 133 l 2,41,42
 393 68 393 68 492 68 c 0,43,44
 507 68 507 68 507 30 c 128,-1,45
 507 -8 507 -8 492 -8 c 1,46,47
 408 0 408 0 272 0 c 0,48,49
 135 0 135 0 51 -8 c 1,50,51
 36 -8 36 -8 36 30 c 128,-1,52
 36 68 36 68 51 68 c 0,53,54
 164 68 164 68 164 137 c 2,55,-1
 164 551 l 2,56,57
 164 682 164 682 72 682 c 0,58,59
 56 682 56 682 56 719 c 128,-1,60
 56 756 56 756 72 756 c 0,61,62
 122 756 122 756 259 824 c 0,63,64
 322 855 322 855 342 872 c 0,65,66
 355 883 355 883 371 883 c 0,67,68
 399 883 399 883 399 859 c 2,69,-1
 393 788 l 2,70,71
 392 769 392 769 402 769 c 0,72,73
 411 769 411 769 420 778 c 0,74,75
 501 870 501 870 639 870 c 0,76,77
 780 870 780 870 854 743 c 0,78,79
 863 727 863 727 871 727 c 0,80,81
 881 727 881 727 897 745 c 0,82,83
 976 829 976 829 1083 858 c 0,84,85
 1127 870 1127 870 1167 870 c 0,86,87
 1295 870 1295 870 1372 801 c 0,88,89
 1481 705 1481 705 1481 553 c 2,90,-1
 1481 140 l 2,91,92
 1481 68 1481 68 1587 68 c 0,93,94
 1603 68 1603 68 1603 30 c 128,-1,95
 1603 -8 1603 -8 1587 -8 c 1,0,1
EndSplineSet
Substitution2: "'ss19' Latin to Gothic transliteration subtable" u1033C
Substitution2: "'smcp' Lowercase to Small Capitals in Latin lookup 20-1" m.sc
EndChar

StartChar: n
Encoding: 110 110 78
Width: 1087
GlyphClass: 2
Flags: W
AnchorPoint: "Anchor-1" 546.158 -75 basechar 0
AnchorPoint: "Anchor-0" 652 900 basechar 0
LayerCount: 2
Fore
SplineSet
1069 -8 m 1,0,1
 962 0 962 0 858 0 c 0,2,3
 753 0 753 0 633 -8 c 1,4,5
 618 -9 618 -9 618 29.5 c 128,-1,6
 618 68 618 68 633 68 c 0,7,8
 734 68 734 68 734 130 c 2,9,-1
 734 537 l 2,10,11
 734 686 734 686 675 737 c 0,12,13
 646 762 646 762 579 762 c 0,14,15
 517 762 517 762 460 712 c 0,16,17
 393 654 393 654 393 592 c 2,18,-1
 393 143 l 2,19,20
 393 68 393 68 492 68 c 0,21,22
 507 68 507 68 507 30 c 128,-1,23
 507 -8 507 -8 492 -8 c 1,24,25
 408 0 408 0 276 0 c 0,26,27
 141 0 141 0 57 -8 c 1,28,29
 42 -8 42 -8 42 30 c 128,-1,30
 42 68 42 68 57 68 c 0,31,32
 164 68 164 68 164 143 c 2,33,-1
 164 549 l 2,34,35
 164 682 164 682 72 682 c 0,36,37
 56 682 56 682 56 719 c 128,-1,38
 56 756 56 756 72 756 c 0,39,40
 122 756 122 756 259 824 c 0,41,42
 322 855 322 855 342 872 c 0,43,44
 355 883 355 883 369 883 c 0,45,46
 398 883 398 883 399 856 c 2,47,-1
 393 788 l 2,48,49
 393 769 393 769 402 769 c 128,-1,50
 411 769 411 769 420 778 c 0,51,52
 462 833 462 833 558 859 c 0,53,54
 599 870 599 870 653 870 c 0,55,56
 842 870 842 870 927 685 c 0,57,58
 963 612 963 612 963 465 c 2,59,-1
 963 136 l 2,60,61
 963 68 963 68 1069 68 c 0,62,63
 1085 68 1085 68 1085 30 c 128,-1,64
 1085 -8 1085 -8 1069 -8 c 1,0,1
EndSplineSet
Substitution2: "'ss19' Latin to Gothic transliteration subtable" u1033D
Substitution2: "'swsh' Swash lookup 23-1" uniF19A
Substitution2: "'smcp' Lowercase to Small Capitals in Latin lookup 20-1" n.sc
EndChar

StartChar: o
Encoding: 111 111 79
Width: 1032
GlyphClass: 2
Flags: MW
AnchorPoint: "Anchor-1" 512.158 -75 basechar 0
AnchorPoint: "Anchor-0" 509 900 basechar 0
LayerCount: 2
Fore
SplineSet
969 426 m 0,0,1
 969 217 969 217 846 95 c 0,2,3
 727 -23 727 -23 518 -23 c 0,4,5
 333 -23 333 -23 205 99 c 0,6,7
 66 230 66 230 66 424 c 0,8,9
 66 594 66 594 176 720 c 0,10,11
 308 870 308 870 516 870 c 0,12,13
 734 870 734 870 867 712 c 0,14,15
 969 590 969 590 969 426 c 0,0,1
715 420 m 0,16,17
 715 604 715 604 644 712 c 0,18,19
 591 793 591 793 518 793 c 0,20,21
 436 793 436 793 379 689 c 0,22,23
 319 580 319 580 319 420 c 0,24,25
 319 235 319 235 392 133 c 0,26,27
 444 61 444 61 516 61 c 0,28,29
 610 61 610 61 666 175 c 0,30,31
 715 274 715 274 715 420 c 0,16,17
EndSplineSet
Substitution2: "'ss19' Latin to Gothic transliteration subtable" u10349
Substitution2: "'smcp' Lowercase to Small Capitals in Latin lookup 20-1" o.sc
EndChar

StartChar: p
Encoding: 112 112 80
Width: 1009
GlyphClass: 2
Flags: W
AnchorPoint: "Anchor-0" 508 900 basechar 0
LayerCount: 2
Fore
SplineSet
958 475 m 0,0,1
 958 126 958 126 758 23 c 0,2,3
 669 -23 669 -23 527 -23 c 0,4,5
 436 -23 436 -23 399 -4 c 0,6,7
 391 0 391 0 385 0 c 0,8,9
 367 0 367 0 367 -27 c 2,10,-1
 367 -397 l 2,11,12
 367 -483 367 -483 508 -483 c 0,13,14
 523 -483 523 -483 523 -521 c 128,-1,15
 523 -559 523 -559 508 -559 c 1,16,17
 424 -551 424 -551 256 -551 c 0,18,19
 113 -551 113 -551 33 -559 c 1,20,21
 17 -559 17 -559 17 -521 c 128,-1,22
 17 -483 17 -483 33 -483 c 0,23,24
 136 -483 136 -483 137 -399 c 2,25,-1
 137 549 l 2,26,27
 137 682 137 682 45 682 c 0,28,29
 30 682 30 682 30 719 c 128,-1,30
 30 756 30 756 45 756 c 0,31,32
 100 756 100 756 235 826 c 0,33,34
 293 856 293 856 313 872 c 0,35,36
 327 883 327 883 340 883 c 0,37,38
 367 883 367 883 371 862 c 2,39,-1
 367 815 l 2,40,41
 366 791 366 791 380 791 c 0,42,43
 392 791 392 791 408 809 c 0,44,45
 436 842 436 842 492 861 c 0,46,47
 522 870 522 870 560 870 c 0,48,49
 710 870 710 870 801 804 c 0,50,51
 958 690 958 690 958 475 c 0,0,1
725 401 m 0,52,53
 725 627 725 627 641 719 c 0,54,55
 589 770 589 770 519 770 c 0,56,57
 434 770 434 770 379 686 c 0,58,59
 367 668 367 668 367 616 c 2,60,-1
 367 178 l 2,61,62
 374 60 374 60 544 59 c 0,63,64
 632 59 632 59 688 199 c 0,65,66
 725 291 725 291 725 401 c 0,52,53
EndSplineSet
Substitution2: "'ss19' Latin to Gothic transliteration subtable" u10340
Substitution2: "'smcp' Lowercase to Small Capitals in Latin lookup 20-1" p.sc
EndChar

StartChar: q
Encoding: 113 113 81
Width: 980
GlyphClass: 2
Flags: W
AnchorPoint: "Anchor-0" 504 900 basechar 0
LayerCount: 2
Fore
SplineSet
1016 -559 m 1,0,1
 936 -551 936 -551 781 -551 c 0,2,3
 625 -551 625 -551 541 -559 c 1,4,5
 526 -559 526 -559 526 -521 c 128,-1,6
 526 -483 526 -483 541 -483 c 0,7,8
 664 -483 664 -483 664 -397 c 2,9,-1
 664 -6 l 1,10,11
 603 -23 603 -23 514 -23 c 0,12,13
 66 -23 66 -23 66 481 c 0,14,15
 66 653 66 653 181 765 c 0,16,17
 289 870 289 870 467 870 c 0,18,19
 620 870 620 870 711 818 c 0,20,21
 718 814 718 814 725 811 c 1,22,-1
 834 864 l 2,23,24
 869 881 869 881 900 836 c 0,25,26
 924 802 924 802 908 788 c 0,27,28
 893 774 893 774 893 616 c 2,29,-1
 893 -399 l 2,30,31
 893 -483 893 -483 1016 -483 c 0,32,33
 1032 -483 1032 -483 1032 -521 c 128,-1,34
 1032 -559 1032 -559 1016 -559 c 1,0,1
664 180 m 2,35,-1
 664 643 l 2,36,37
 664 666 664 666 656 678 c 0,38,39
 589 770 589 770 508 770 c 0,40,41
 299 770 299 770 299 420 c 0,42,43
 299 266 299 266 350 160 c 0,44,45
 398 59 398 59 487 59 c 0,46,47
 607 59 607 59 646 117 c 0,48,49
 664 143 664 143 664 180 c 2,35,-1
EndSplineSet
Substitution2: "'ss19' Latin to Gothic transliteration subtable" u10335
Substitution2: "'smcp' Lowercase to Small Capitals in Latin lookup 20-1" q.sc
EndChar

StartChar: r
Encoding: 114 114 82
Width: 755
GlyphClass: 2
Flags: W
AnchorPoint: "Anchor-1" 378 -75 basechar 0
AnchorPoint: "Anchor-0" 456 900 basechar 0
LayerCount: 2
Fore
SplineSet
756 752 m 0,0,1
 756 693 756 693 714 657 c 0,2,3
 687 633 687 633 653 633 c 0,4,5
 602 633 602 633 551 684 c 0,6,7
 528 707 528 707 502 707 c 0,8,9
 460 707 460 707 425 649 c 0,10,11
 393 594 393 594 393 522 c 2,12,-1
 393 143 l 2,13,14
 393 68 393 68 496 68 c 0,15,16
 511 68 511 68 511 30 c 128,-1,17
 511 -8 511 -8 496 -8 c 1,18,19
 412 0 412 0 287 0 c 0,20,21
 143 0 143 0 59 -8 c 1,22,23
 44 -8 44 -8 44 30 c 128,-1,24
 44 68 44 68 59 68 c 0,25,26
 164 68 164 68 164 143 c 2,27,-1
 164 549 l 2,28,29
 164 682 164 682 72 682 c 0,30,31
 56 682 56 682 56 719 c 128,-1,32
 56 756 56 756 72 756 c 0,33,34
 123 756 123 756 262 826 c 0,35,36
 322 856 322 856 342 872 c 0,37,38
 355 883 355 883 371 883 c 0,39,40
 395 883 395 883 399 863 c 2,41,-1
 393 788 l 2,42,43
 393 765 393 765 406 765 c 128,-1,44
 419 765 419 765 442 791 c 0,45,46
 510 870 510 870 610 870 c 0,47,48
 680 870 680 870 725 826 c 0,49,50
 756 795 756 795 756 752 c 0,0,1
EndSplineSet
Substitution2: "'ss19' Latin to Gothic transliteration subtable" u10342
Substitution2: "'swsh' Swash lookup 23-1" uniF19B
Substitution2: "'smcp' Lowercase to Small Capitals in Latin lookup 20-1" r.sc
Substitution2: "'ss02' Style Set 2 in Latin lookup 5" uniA783
EndChar

StartChar: s
Encoding: 115 115 83
Width: 749
GlyphClass: 2
Flags: W
AnchorPoint: "Anchor-1" 342.158 -75 basechar 0
AnchorPoint: "Anchor-0" 384 900 basechar 0
LayerCount: 2
Fore
SplineSet
346 -23 m 0,0,1
 200 -23 200 -23 106 37 c 1,2,3
 78 104 78 104 78 258 c 0,4,5
 78 277 78 277 112 277 c 0,6,7
 150 277 150 277 154 260 c 0,8,9
 158 206 158 206 221 133 c 0,10,11
 286 57 286 57 379 57 c 0,12,13
 428 57 428 57 469 99 c 0,14,15
 502 133 502 133 502 174 c 0,16,17
 502 294 502 294 330 340 c 0,18,19
 153 387 153 387 93 490 c 0,20,21
 63 542 63 542 63 612 c 0,22,23
 63 726 63 726 163 801 c 0,24,25
 256 870 256 870 387 870 c 0,26,27
 510 870 510 870 604 834 c 1,28,29
 643 729 643 729 643 643 c 0,30,31
 643 624 643 624 613 624 c 0,32,33
 581 624 581 624 578 635 c 0,34,35
 560 686 560 686 498 748 c 0,36,37
 457 788 457 788 373 788 c 0,38,39
 312 788 312 788 274 738 c 0,40,41
 251 707 251 707 252 674 c 0,42,43
 252 574 252 574 420 532 c 0,44,45
 580 492 580 492 644 415 c 0,46,47
 694 354 694 354 694 258 c 0,48,49
 694 125 694 125 583 44 c 0,50,51
 490 -25 490 -25 346 -23 c 0,0,1
EndSplineSet
Substitution2: "'ss19' Latin to Gothic transliteration subtable" u10343
Substitution2: "'smcp' Lowercase to Small Capitals in Latin lookup 20-1" s.sc
Substitution2: "'hist' Historical Forms in Latin-1" longs
Substitution2: "'ss02' Style Set 2 in Latin lookup 5" uniA785
EndChar

StartChar: t
Encoding: 116 116 84
Width: 671
GlyphClass: 2
Flags: W
AnchorPoint: "Anchor-1" 390.158 -75 basechar 0
AnchorPoint: "Anchor-0" 330 1080 basechar 0
LayerCount: 2
Fore
SplineSet
686 90 m 0,0,1
 578 -23 578 -23 412 -23 c 0,2,3
 193 -21 193 -21 160 160 c 0,4,5
 154 193 154 193 154 233 c 2,6,-1
 154 714 l 2,7,8
 154 745 154 745 123 745 c 2,9,-1
 68 745 l 2,10,11
 52 745 52 745 52 782 c 128,-1,12
 52 819 52 819 68 819 c 0,13,14
 129 819 129 819 201 878 c 0,15,16
 270 935 270 935 293 1004 c 0,17,18
 297 1016 297 1016 335 1005 c 0,19,20
 379 993 379 993 385 975 c 1,21,-1
 385 881 l 2,22,23
 385 850 385 850 416 850 c 2,24,-1
 631 850 l 2,25,26
 646 850 646 850 646 797.5 c 128,-1,27
 646 745 646 745 631 745 c 2,28,-1
 416 745 l 2,29,30
 385 745 385 745 385 714 c 2,31,-1
 385 299 l 2,32,33
 385 178 385 178 419 140 c 0,34,35
 446 109 446 109 506 109 c 0,36,37
 558 109 558 109 633 156 c 0,38,39
 644 164 644 164 671 132 c 0,40,41
 689 109 689 109 689 97 c 3,42,43
 689 93 689 93 686 90 c 0,0,1
EndSplineSet
Substitution2: "'ss19' Latin to Gothic transliteration subtable" u10344
Substitution2: "'swsh' Swash lookup 23-1" uniF199
Substitution2: "'smcp' Lowercase to Small Capitals in Latin lookup 20-1" t.sc
Substitution2: "'ss02' Style Set 2 in Latin lookup 5" uniA787
EndChar

StartChar: u
Encoding: 117 117 85
Width: 1028
GlyphClass: 2
Flags: W
AnchorPoint: "Anchor-1" 476.158 -75 basechar 0
AnchorPoint: "Anchor-0" 506 900 basechar 0
LayerCount: 2
Fore
SplineSet
1038 31 m 0,0,1
 1030 29 1030 29 933 10 c 0,2,3
 907 5 907 5 882 0 c 0,4,5
 826 -12 826 -12 768 -31 c 0,6,7
 755 -35 755 -35 744 -35 c 0,8,9
 729 -35 729 -35 729 10 c 2,10,-1
 729 57 l 2,11,12
 729 80 729 80 717 80 c 128,-1,13
 705 80 705 80 690 66 c 0,14,15
 598 -23 598 -23 444 -23 c 0,16,17
 318 -23 318 -23 274 12 c 0,18,19
 127 130 127 130 127 309 c 2,20,-1
 127 655 l 2,21,22
 127 758 127 758 43 758 c 0,23,24
 28 758 28 758 28 794.5 c 128,-1,25
 28 831 28 831 43 831 c 0,26,27
 155 831 155 831 267 849 c 0,28,29
 298 854 298 854 317 854 c 0,30,31
 363 854 363 854 363 810 c 0,32,33
 356 712 356 712 356 649 c 2,34,-1
 356 307 l 2,35,36
 356 184 356 184 406 125 c 0,37,38
 434 92 434 92 504 92 c 0,39,40
 568 92 568 92 636 147 c 0,41,42
 690 191 690 191 690 240 c 2,43,-1
 690 655 l 2,44,45
 690 758 690 758 606 758 c 0,46,47
 590 758 590 758 590 794.5 c 128,-1,48
 590 831 590 831 606 831 c 0,49,50
 717 831 717 831 835 850 c 0,51,52
 860 854 860 854 874 854 c 0,53,54
 927 854 927 854 927 818 c 0,55,56
 919 723 919 723 919 662 c 2,57,-1
 919 256 l 2,58,59
 919 166 919 166 929 139 c 0,60,61
 943 99 943 99 982 99 c 0,62,63
 995 99 995 99 1015 104 c 0,64,65
 1031 108 1031 108 1042 72 c 0,66,67
 1045 58 1045 58 1045 49 c 3,68,69
 1045 34 1045 34 1038 31 c 0,0,1
EndSplineSet
Substitution2: "'ss19' Latin to Gothic transliteration subtable" u1033F
Substitution2: "'smcp' Lowercase to Small Capitals in Latin lookup 20-1" u.sc
EndChar

StartChar: v
Encoding: 118 118 86
Width: 925
GlyphClass: 2
Flags: W
AnchorPoint: "Anchor-1" 460.158 -75 basechar 0
AnchorPoint: "Anchor-0" 510 900 basechar 0
LayerCount: 2
Fore
SplineSet
113 713 m 2,0,1
 83 784 83 784 12 784 c 0,2,3
 -3 784 -3 784 -3 820 c 128,-1,4
 -3 856 -3 856 12 856 c 1,5,6
 75 850 75 850 205 850 c 0,7,8
 361 850 361 850 424 856 c 1,9,10
 439 856 439 856 439 820 c 128,-1,11
 439 784 439 784 424 784 c 0,12,13
 354 784 354 784 354 739 c 0,14,15
 354 720 354 720 356 713 c 2,16,-1
 502 256 l 2,17,18
 506 242 506 242 515 242 c 0,19,20
 522 242 522 242 528 256 c 2,21,-1
 684 707 l 2,22,23
 689 720 689 720 689 731 c 0,24,25
 689 784 689 784 598 784 c 0,26,27
 583 784 583 784 583 820 c 128,-1,28
 583 856 583 856 598 856 c 1,29,30
 658 850 658 850 778 850 c 0,31,32
 871 850 871 850 934 856 c 1,33,34
 949 856 949 856 949 820 c 128,-1,35
 949 784 949 784 934 784 c 0,36,37
 835 784 835 784 809 713 c 2,38,-1
 551 39 l 2,39,40
 525 -23 525 -23 472 -23 c 0,41,42
 421 -23 421 -23 399 29 c 2,43,-1
 113 713 l 2,0,1
EndSplineSet
Substitution2: "'smcp' Lowercase to Small Capitals in Latin lookup 20-1" v.sc
EndChar

StartChar: w
Encoding: 119 119 87
Width: 1458
GlyphClass: 2
Flags: W
AnchorPoint: "Anchor-1" 736.158 -75 basechar 0
AnchorPoint: "Anchor-0" 744 900 basechar 0
LayerCount: 2
Fore
SplineSet
113 713 m 2,0,1
 83 784 83 784 12 784 c 0,2,3
 -3 784 -3 784 -3 820 c 128,-1,4
 -3 856 -3 856 12 856 c 1,5,6
 75 850 75 850 205 850 c 0,7,8
 361 850 361 850 424 856 c 1,9,10
 439 856 439 856 439 820 c 128,-1,11
 439 784 439 784 424 784 c 0,12,13
 354 784 354 784 354 739 c 0,14,15
 354 720 354 720 360 700 c 2,16,-1
 502 256 l 2,17,18
 507 242 507 242 514 242 c 0,19,20
 522 242 522 242 528 256 c 2,21,-1
 651 614 l 2,22,23
 655 627 655 627 655 637 c 128,-1,24
 655 647 655 647 651 659 c 2,25,-1
 629 713 l 2,26,27
 599 784 599 784 541 784 c 0,28,29
 525 784 525 784 525 820 c 128,-1,30
 525 856 525 856 541 856 c 1,31,32
 601 850 601 850 721 850 c 0,33,34
 880 850 880 850 940 856 c 1,35,36
 956 856 956 856 956 820 c 128,-1,37
 956 784 956 784 940 784 c 0,38,39
 871 784 871 784 870 738 c 0,40,41
 870 724 870 724 877 700 c 2,42,-1
 1018 256 l 2,43,44
 1023 242 1023 242 1030 242 c 0,45,46
 1039 242 1039 242 1044 256 c 2,47,-1
 1200 707 l 2,48,49
 1205 720 1205 720 1205 731 c 0,50,51
 1205 784 1205 784 1114 784 c 0,52,53
 1099 784 1099 784 1099 820 c 128,-1,54
 1099 856 1099 856 1114 856 c 1,55,56
 1177 850 1177 850 1294 850 c 0,57,58
 1390 850 1390 850 1450 856 c 1,59,60
 1465 856 1465 856 1465 820 c 128,-1,61
 1465 784 1465 784 1450 784 c 0,62,63
 1351 784 1351 784 1325 713 c 2,64,-1
 1067 39 l 2,65,66
 1044 -23 1044 -23 991 -23 c 0,67,68
 937 -23 937 -23 915 29 c 2,69,-1
 737 455 l 2,70,71
 732 468 732 468 724 468 c 128,-1,72
 716 468 716 468 711 455 c 2,73,-1
 551 39 l 2,74,75
 527 -23 527 -23 473 -23 c 0,76,77
 424 -23 424 -23 399 29 c 2,78,-1
 113 713 l 2,0,1
EndSplineSet
Substitution2: "'ss19' Latin to Gothic transliteration subtable" u10345
Substitution2: "'smcp' Lowercase to Small Capitals in Latin lookup 20-1" w.sc
Substitution2: "'ss02' Style Set 2 in Latin lookup 5" uni01BF
EndChar

StartChar: x
Encoding: 120 120 88
Width: 950
GlyphClass: 2
Flags: W
AnchorPoint: "Anchor-1" 446.158 -75 basechar 0
AnchorPoint: "Anchor-0" 490 900 basechar 0
LayerCount: 2
Fore
SplineSet
811 154 m 2,0,1
 875 68 875 68 946 68 c 0,2,3
 962 68 962 68 962 30 c 128,-1,4
 962 -8 962 -8 946 -8 c 1,5,6
 866 0 866 0 727 0 c 0,7,8
 578 0 578 0 498 -8 c 1,9,10
 482 -8 482 -8 482 30 c 128,-1,11
 482 68 482 68 498 68 c 0,12,13
 580 68 580 68 580 92 c 0,14,15
 580 103 580 103 549 147 c 2,16,-1
 444 299 l 2,17,18
 438 307 438 307 427 307 c 0,19,20
 418 307 418 307 410 297 c 2,21,-1
 299 164 l 2,22,23
 252 108 252 108 252 91 c 0,24,25
 252 67 252 67 311 68 c 0,26,27
 327 68 327 68 327 30 c 128,-1,28
 327 -8 327 -8 311 -8 c 1,29,30
 231 0 231 0 147 0 c 0,31,32
 66 0 66 0 -14 -8 c 1,33,34
 -30 -8 -30 -8 -30 30 c 128,-1,35
 -30 68 -30 68 -14 68 c 0,36,37
 86 68 86 68 141 135 c 2,38,-1
 346 385 l 2,39,40
 357 397 357 397 357 412 c 0,41,42
 357 423 357 423 350 434 c 2,43,-1
 129 715 l 2,44,45
 75 784 75 784 16 784 c 0,46,47
 1 784 1 784 1 820 c 128,-1,48
 1 856 1 856 16 856 c 1,49,50
 79 850 79 850 229 850 c 0,51,52
 382 850 382 850 442 856 c 1,53,54
 458 856 458 856 458 820 c 128,-1,55
 458 784 458 784 442 784 c 0,56,57
 381 784 381 784 381 756 c 0,58,59
 381 738 381 738 406 702 c 2,60,-1
 481 596 l 2,61,62
 488 585 488 585 499 585 c 0,63,64
 509 585 509 585 518 596 c 2,65,-1
 590 686 l 2,66,67
 623 728 623 728 623 751 c 0,68,69
 623 784 623 784 551 784 c 0,70,71
 535 784 535 784 535 820 c 128,-1,72
 535 856 535 856 551 856 c 1,73,74
 611 850 611 850 717 850 c 0,75,76
 822 850 822 850 885 856 c 1,77,78
 900 856 900 856 900 820 c 128,-1,79
 900 784 900 784 885 784 c 0,80,81
 822 784 822 784 765 719 c 2,82,-1
 584 502 l 2,83,84
 574 490 574 490 574 478 c 0,85,86
 574 468 574 468 584 455 c 2,87,-1
 811 154 l 2,0,1
EndSplineSet
Substitution2: "'ss19' Latin to Gothic transliteration subtable" u10347
Substitution2: "'smcp' Lowercase to Small Capitals in Latin lookup 20-1" x.sc
EndChar

StartChar: y
Encoding: 121 121 89
Width: 884
GlyphClass: 2
Flags: W
AnchorPoint: "Anchor-0" 430 900 basechar 0
LayerCount: 2
Fore
SplineSet
338 -399 m 2,0,1
 297 -505 297 -505 210 -540 c 0,2,3
 177 -553 177 -553 141 -553 c 0,4,5
 79 -553 79 -553 40 -510 c 0,6,7
 14 -480 14 -480 14 -442 c 0,8,9
 14 -381 14 -381 73 -351 c 0,10,11
 103 -336 103 -336 139 -336 c 0,12,13
 243 -336 243 -336 260 -297 c 2,14,-1
 338 -115 l 2,15,16
 345 -97 345 -97 345 -80 c 128,-1,17
 345 -63 345 -63 338 -45 c 2,18,-1
 68 713 l 2,19,20
 42 784 42 784 -39 784 c 0,21,22
 -54 784 -54 784 -54 820 c 128,-1,23
 -54 856 -54 856 -39 856 c 1,24,25
 24 850 24 850 164 850 c 0,26,27
 312 850 312 850 375 856 c 1,28,29
 390 856 390 856 390 820 c 128,-1,30
 390 784 390 784 375 784 c 0,31,32
 295 784 295 784 295 737 c 0,33,34
 295 722 295 722 303 700 c 2,35,-1
 455 276 l 2,36,37
 462 256 462 256 472 256 c 0,38,39
 485 256 485 256 494 279 c 2,40,-1
 659 700 l 2,41,42
 664 713 664 713 664 723 c 0,43,44
 664 784 664 784 543 784 c 0,45,46
 527 784 527 784 527 820 c 128,-1,47
 527 856 527 856 543 856 c 1,48,49
 603 850 603 850 737 850 c 0,50,51
 851 850 851 850 911 856 c 1,52,53
 927 856 927 856 927 820 c 128,-1,54
 927 784 927 784 911 784 c 0,55,56
 819 784 819 784 786 725 c 2,57,-1
 338 -399 l 2,0,1
EndSplineSet
Substitution2: "'smcp' Lowercase to Small Capitals in Latin lookup 20-1" y.sc
EndChar

StartChar: z
Encoding: 122 122 90
Width: 770
GlyphClass: 2
Flags: W
AnchorPoint: "Anchor-1" 368.158 -75 basechar 0
AnchorPoint: "Anchor-0" 400 900 basechar 0
LayerCount: 2
Fore
SplineSet
766 264 m 9,0,-1
 742 76 l 2,1,2
 739 42 739 42 739 16 c 0,3,4
 739 -25 739 -25 700 -25 c 0,5,6
 689 -25 689 -25 605 -10 c 0,7,8
 552 0 552 0 512 0 c 2,9,-1
 69 0 l 2,10,11
 28 0 28 0 28 37 c 0,12,13
 28 50 28 50 37 68 c 2,14,-1
 393 727 l 2,15,16
 402 744 402 744 402 754 c 0,17,18
 402 774 402 774 373 774 c 2,19,-1
 262 774 l 2,20,21
 199 774 199 774 138 646 c 2,22,-1
 92 543 l 2,23,24
 88 534 88 534 74 534 c 0,25,26
 55 534 55 534 38 546 c 0,27,28
 25 555 25 555 25 569 c 0,29,30
 54 821 54 821 55 825 c 0,31,32
 62 868 62 868 86 870 c 0,33,34
 244 850 244 850 297 850 c 2,35,-1
 645 850 l 2,36,37
 691 850 691 850 691 817 c 0,38,39
 691 799 691 799 683 785 c 2,40,-1
 324 119 l 2,41,42
 320 112 320 112 320 104 c 0,43,44
 320 80 320 80 348 80 c 2,45,-1
 457 80 l 2,46,47
 589 80 589 80 682 285 c 0,48,49
 687 296 687 296 709 296 c 0,50,51
 718 296 718 296 735 292 c 0,52,53
 766 283 766 283 766 264 c 9,0,-1
EndSplineSet
Substitution2: "'ss19' Latin to Gothic transliteration subtable" u10336
Substitution2: "'smcp' Lowercase to Small Capitals in Latin lookup 20-1" z.sc
EndChar

StartChar: braceleft
Encoding: 123 123 91
Width: 784
GlyphClass: 2
Flags: W
LayerCount: 2
Fore
SplineSet
715 -319 m 0,0,1
 539 -319 539 -319 476 -309 c 0,2,3
 337 -285 337 -285 286 -185 c 0,4,5
 250 -113 250 -113 250 6 c 2,6,-1
 250 430 l 2,7,8
 250 545 250 545 174 574 c 0,9,10
 143 586 143 586 96 586 c 0,11,12
 81 586 81 586 81 616 c 0,13,14
 81 647 81 647 96 647 c 0,15,16
 213 647 213 647 240 725 c 0,17,18
 250 754 250 754 250 797 c 2,19,-1
 250 1122 l 2,20,21
 250 1341 250 1341 331 1419 c 0,22,23
 392 1479 392 1479 537 1489 c 0,24,25
 591 1493 591 1493 713 1493 c 0,26,27
 728 1493 728 1493 728 1455 c 128,-1,28
 728 1417 728 1417 715 1417 c 0,29,30
 582 1417 582 1417 530 1380 c 0,31,32
 461 1332 461 1332 461 1184 c 2,33,-1
 461 950 l 2,34,35
 461 806 461 806 444 749 c 0,36,37
 419 665 419 665 334 616 c 1,38,39
 425 560 425 560 448 463 c 0,40,41
 461 407 461 407 461 305 c 2,42,-1
 461 39 l 2,43,44
 461 -124 461 -124 503 -182 c 0,45,46
 547 -243 547 -243 713 -243 c 0,47,48
 730 -243 730 -243 730 -281 c 128,-1,49
 730 -319 730 -319 715 -319 c 0,0,1
EndSplineSet
EndChar

StartChar: bar
Encoding: 124 124 92
Width: 536
GlyphClass: 2
Flags: W
LayerCount: 2
Fore
SplineSet
197 -334 m 1,0,-1
 197 1434 l 1,1,-1
 391 1434 l 1,2,-1
 391 -334 l 1,3,-1
 197 -334 l 1,0,-1
EndSplineSet
EndChar

StartChar: braceright
Encoding: 125 125 93
Width: 784
GlyphClass: 2
Flags: W
LayerCount: 2
Fore
SplineSet
80 -319 m 0,0,1
 64 -319 64 -319 64 -281 c 128,-1,2
 64 -243 64 -243 80 -243 c 0,3,4
 216 -243 216 -243 265 -208 c 0,5,6
 332 -158 332 -158 332 39 c 2,7,-1
 332 305 l 2,8,9
 332 452 332 452 365 518 c 0,10,11
 394 577 394 577 461 616 c 1,12,13
 370 669 370 669 347 765 c 0,14,15
 334 819 334 819 334 950 c 2,16,-1
 334 1184 l 2,17,18
 334 1336 334 1336 259 1384 c 0,19,20
 207 1417 207 1417 80 1417 c 0,21,22
 64 1417 64 1417 64 1455 c 128,-1,23
 64 1493 64 1493 80 1493 c 0,24,25
 274 1493 274 1493 347 1476 c 0,26,27
 463 1450 463 1450 504 1360 c 0,28,29
 543 1272 543 1272 543 1122 c 2,30,-1
 543 797 l 2,31,32
 543 685 543 685 620 658 c 0,33,34
 651 647 651 647 696 647 c 0,35,36
 713 647 713 647 713 617 c 0,37,38
 713 586 713 586 698 586 c 0,39,40
 585 586 585 586 557 511 c 0,41,42
 545 479 545 479 545 430 c 2,43,-1
 545 6 l 2,44,45
 545 -197 545 -197 425 -273 c 0,46,47
 352 -319 352 -319 80 -319 c 0,0,1
EndSplineSet
EndChar

StartChar: asciitilde
Encoding: 126 126 94
Width: 743
GlyphClass: 2
Flags: W
LayerCount: 2
Fore
SplineSet
735 518 m 1,0,-1
 658 431 l 2,1,2
 574 346 574 346 481 346 c 0,3,4
 429 346 429 346 336 390 c 0,5,6
 247 432 247 432 207 437 c 0,7,8
 197 438 197 438 188 438 c 0,9,10
 142 438 142 438 76 382 c 2,11,-1
 60 368 l 1,12,-1
 59 367 l 2,13,14
 55 363 55 363 48 363 c 2,15,-1
 34 366 l 2,16,17
 11 377 11 377 4 399 c 2,18,-1
 3 411 l 1,19,20
 4 414 4 414 6 416 c 2,21,-1
 69 488 l 2,22,23
 152 573 152 573 260 573 c 0,24,25
 312 573 312 573 408 528 c 0,26,27
 494 487 494 487 530 484 c 0,28,29
 536 483 536 483 541 483 c 0,30,31
 587 483 587 483 636 525 c 0,32,33
 671 555 671 555 680 561 c 1,34,-1
 691 563 l 2,35,36
 714 561 714 561 731 539 c 2,37,-1
 738 527 l 1,38,-1
 736 519 l 1,39,-1
 735 518 l 1,0,-1
EndSplineSet
EndChar

StartChar: exclamdown
Encoding: 161 161 96
Width: 520
GlyphClass: 2
Flags: W
LayerCount: 2
Fore
SplineSet
118 726 m 256,0,1
 118 788 118 788 163 827 c 128,-1,2
 208 866 208 866 275 866 c 128,-1,3
 342 866 342 866 387 823 c 128,-1,4
 432 780 432 780 432 718 c 128,-1,5
 432 656 432 656 391 609 c 128,-1,6
 350 562 350 562 274 562 c 128,-1,7
 198 562 198 562 158 610.5 c 128,-1,8
 118 659 118 659 118 726 c 256,0,1
136 -438 m 0,9,10
 136 -320 136 -320 204 156 c 0,11,12
 218 246 218 246 226 402 c 0,13,14
 227 422 227 422 276.5 422 c 128,-1,15
 326 422 326 422 328 402 c 0,16,17
 330 300 330 300 369 -37 c 128,-1,18
 408 -374 408 -374 408 -406 c 0,19,20
 408 -477 408 -477 366 -517.5 c 128,-1,21
 324 -558 324 -558 272 -558 c 0,22,23
 205 -558 205 -558 170.5 -522.5 c 128,-1,24
 136 -487 136 -487 136 -438 c 0,9,10
EndSplineSet
Substitution2: "'c2sc' Capitals to Small Capitals in Latin lookup 21-1" exclamdown.sc
EndChar

StartChar: cent
Encoding: 162 162 97
Width: 880
GlyphClass: 2
Flags: W
LayerCount: 2
Fore
SplineSet
796 394 m 0,0,1
 822 349 822 349 805 338 c 2,2,-1
 723 285 l 2,3,4
 607 219 607 219 457 219 c 2,5,-1
 436 219 l 1,6,-1
 403 29 l 2,7,8
 402 21 402 21 381 21 c 0,9,10
 367 21 367 21 346 24 c 0,11,12
 292 32 292 32 294 45 c 2,13,-1
 328 244 l 1,14,15
 197 293 197 293 125 415 c 0,16,17
 66 514 66 514 66 633 c 0,18,19
 66 805 66 805 170 942 c 0,20,21
 292 1102 292 1102 479 1118 c 1,22,-1
 514 1311 l 2,23,24
 515 1318 515 1318 534 1318 c 0,25,26
 559 1318 559 1318 592 1309 c 0,27,28
 625 1299 625 1299 625 1290 c 2,29,-1
 594 1116 l 1,30,31
 737 1106 737 1106 799 1030 c 1,32,33
 805 1013 805 1013 805 990 c 0,34,35
 805 935 805 935 774 905 c 0,36,37
 739 870 739 870 717 870 c 0,38,39
 675 870 675 870 653 899 c 0,40,41
 647 907 647 907 615 966 c 0,42,43
 605 984 605 984 575 1004 c 1,44,-1
 465 379 l 1,45,46
 512 358 512 358 543 358 c 0,47,48
 671 358 671 358 750 422 c 0,49,50
 771 435 771 435 796 394 c 0,0,1
463 1018 m 1,51,52
 386 993 386 993 337 888 c 0,53,54
 295 797 295 797 295 682 c 0,55,56
 295 562 295 562 367 467 c 1,57,-1
 463 1018 l 1,51,52
EndSplineSet
Substitution2: "'onum' Oldstyle Figures in Latin lookup 9" cent.oldstyle
EndChar

StartChar: sterling
Encoding: 163 163 98
Width: 1263
GlyphClass: 2
Flags: W
LayerCount: 2
Fore
SplineSet
688 489 m 0,0,1
 688 327 688 327 614 182 c 1,2,3
 731 141 731 141 854 141 c 0,4,5
 969 141 969 141 1073 211 c 0,6,7
 1136 254 1136 254 1151 254 c 0,8,9
 1189 254 1189 254 1189 224 c 0,10,11
 1189 210 1189 210 1180 188 c 0,12,13
 1126 53 1126 53 1012 -6 c 0,14,15
 945 -41 945 -41 866 -41 c 0,16,17
 731 -41 731 -41 551 88 c 1,18,19
 434 -41 434 -41 268 -41 c 0,20,21
 151 -41 151 -41 96 32 c 0,22,23
 68 69 68 69 68 113 c 0,24,25
 68 187 68 187 137 230 c 0,26,27
 194 266 194 266 281 266 c 0,28,29
 368 262 368 262 487 221 c 1,30,31
 501 274 501 274 502 346 c 0,32,33
 502 474 502 474 442 641 c 1,34,-1
 203 641 l 2,35,36
 187 641 187 641 187 689 c 0,37,38
 187 739 187 739 203 739 c 2,39,-1
 406 739 l 1,40,41
 356 861 356 861 356 993 c 0,42,43
 356 1152 356 1152 479 1261 c 0,44,45
 599 1370 599 1370 780 1370 c 0,46,47
 845 1370 845 1370 953 1336 c 0,48,49
 1107 1288 1107 1288 1108 1229 c 0,50,51
 1108 1143 1108 1143 1091 1041 c 0,52,53
 1080 975 1080 975 1044 975 c 0,54,55
 1000 975 1000 975 971 1090 c 0,56,57
 958 1138 958 1138 958 1139 c 0,58,59
 911 1298 911 1298 770 1298 c 0,60,61
 569 1298 569 1298 569 1079 c 0,62,63
 569 991 569 991 653 739 c 1,64,-1
 942 739 l 2,65,66
 958 739 958 739 958 691 c 0,67,68
 958 641 958 641 942 641 c 2,69,-1
 674 641 l 1,70,71
 688 566 688 566 688 489 c 0,0,1
457 145 m 1,72,73
 368 195 368 195 283 195 c 0,74,75
 201 195 201 195 170 148 c 0,76,77
 160 132 160 132 160 115 c 0,78,79
 160 70 160 70 207 47 c 0,80,81
 233 35 233 35 268 35 c 0,82,83
 389 35 389 35 457 145 c 1,72,73
EndSplineSet
EndChar

StartChar: currency
Encoding: 164 164 99
Width: 1024
GlyphClass: 2
Flags: W
LayerCount: 2
Fore
SplineSet
946 668 m 0,0,1
 946 523 946 523 858 406 c 1,2,-1
 936 328 l 1,3,-1
 937 321 l 1,4,5
 933 299 933 299 893 264 c 2,6,-1
 869 246 l 1,7,-1
 856 242 l 2,8,9
 854 242 854 242 852 244 c 2,10,-1
 774 322 l 1,11,12
 656 233 656 233 514 233 c 0,13,14
 369 233 369 233 252 324 c 1,15,-1
 172 244 l 1,16,-1
 165 242 l 1,17,18
 144 246 144 246 108 287 c 0,19,20
 87 311 87 311 86 323 c 0,21,22
 86 326 86 326 88 328 c 2,23,-1
 168 408 l 1,24,25
 80 522 80 522 80 668 c 0,26,27
 80 813 80 813 168 928 c 1,28,-1
 88 1008 l 1,29,-1
 87 1015 l 1,30,31
 91 1036 91 1036 131 1072 c 0,32,33
 156 1093 156 1093 167 1094 c 0,34,35
 170 1094 170 1094 172 1092 c 2,36,-1
 252 1012 l 1,37,38
 370 1102 370 1102 512 1102 c 0,39,40
 656 1102 656 1102 774 1014 c 1,41,-1
 852 1092 l 1,42,-1
 859 1093 l 1,43,44
 880 1089 880 1089 916 1049 c 2,45,-1
 933 1025 l 1,46,-1
 938 1011 l 1,47,-1
 936 1008 l 1,48,-1
 858 930 l 1,49,50
 946 812 946 812 946 668 c 0,0,1
825 668 m 0,51,52
 825 798 825 798 733 889 c 0,53,54
 642 979 642 979 512 979 c 0,55,56
 383 979 383 979 291 887 c 2,57,-1
 263 855 l 2,58,59
 201 772 201 772 201 668 c 0,60,61
 201 539 201 539 292 447 c 0,62,63
 383 356 383 356 512 356 c 0,64,65
 643 356 643 356 734 448 c 0,66,67
 825 539 825 539 825 668 c 0,51,52
EndSplineSet
EndChar

StartChar: yen
Encoding: 165 165 100
Width: 1421
GlyphClass: 2
Flags: W
LayerCount: 2
Fore
SplineSet
426 821 m 1,0,-1
 176 821 l 2,1,2
 161 821 161 821 161 892 c 128,-1,3
 161 963 161 963 176 963 c 2,4,-1
 336 963 l 1,5,-1
 162 1237 l 2,6,7
 107 1324 107 1324 55 1348 c 0,8,9
 24 1362 24 1362 -14 1362 c 0,10,11
 -29 1362 -29 1362 -30 1411 c 2,12,-1
 -27 1443 l 2,13,14
 -22 1462 -22 1462 -14 1462 c 1,15,16
 46 1456 46 1456 266 1456 c 0,17,18
 488 1456 488 1456 551 1462 c 1,19,20
 566 1462 566 1462 566 1412 c 2,21,-1
 563 1379 l 2,22,23
 558 1362 558 1362 551 1362 c 0,24,25
 439 1362 439 1362 433 1304 c 2,26,-1
 435 1282 l 1,27,-1
 446 1253 l 2,28,29
 450 1245 450 1245 455 1237 c 2,30,-1
 727 803 l 2,31,32
 738 786 738 786 749 786 c 128,-1,33
 760 786 760 786 772 805 c 2,34,-1
 1059 1229 l 2,35,36
 1084 1266 1084 1266 1084 1294 c 0,37,38
 1084 1306 1084 1306 1080 1317 c 0,39,40
 1060 1362 1060 1362 971 1362 c 0,41,42
 956 1362 956 1362 955 1411 c 2,43,-1
 958 1443 l 2,44,45
 963 1462 963 1462 971 1462 c 1,46,47
 1031 1456 1031 1456 1208 1456 c 0,48,49
 1398 1456 1398 1456 1458 1462 c 1,50,51
 1473 1462 1473 1462 1474 1413 c 2,52,-1
 1471 1381 l 1,53,-1
 1465 1366 l 2,54,55
 1462 1362 1462 1362 1458 1362 c 0,56,57
 1343 1362 1343 1362 1268 1291 c 0,58,59
 1229 1254 1229 1254 1152 1142 c 2,60,-1
 1133 1114 l 1,61,-1
 1028 963 l 1,62,-1
 1210 963 l 2,63,64
 1225 963 1225 963 1226 893 c 2,65,-1
 1222 847 l 1,66,-1
 1216 826 l 2,67,68
 1214 821 1214 821 1210 821 c 2,69,-1
 930 821 l 1,70,-1
 870 735 l 2,71,72
 833 681 833 681 823 655 c 1,73,-1
 1210 655 l 2,74,75
 1225 655 1225 655 1226 587 c 2,76,-1
 1223 540 l 1,77,-1
 1216 519 l 2,78,79
 1214 514 1214 514 1210 514 c 2,80,-1
 813 514 l 1,81,-1
 813 217 l 2,82,83
 813 131 813 131 872 107 c 0,84,85
 907 92 907 92 971 92 c 0,86,87
 986 92 986 92 986 42 c 128,-1,88
 986 -8 986 -8 971 -8 c 1,89,90
 887 0 887 0 686 0 c 0,91,92
 477 0 477 0 393 -8 c 1,93,94
 378 -8 378 -8 378 42 c 128,-1,95
 378 92 378 92 393 92 c 0,96,97
 496 92 496 92 526 125 c 0,98,99
 551 152 551 152 551 217 c 2,100,-1
 551 514 l 1,101,-1
 176 514 l 2,102,103
 161 514 161 514 161 584 c 0,104,105
 161 633 161 633 170 650 c 0,106,107
 173 655 173 655 176 655 c 2,108,-1
 528 655 l 1,109,110
 511 688 511 688 481 733 c 2,111,-1
 426 821 l 1,0,-1
EndSplineSet
EndChar

StartChar: brokenbar
Encoding: 166 166 101
Width: 536
GlyphClass: 2
Flags: W
LayerCount: 2
Fore
SplineSet
391 795 m 1,0,-1
 197 795 l 1,1,-1
 197 1372 l 1,2,-1
 391 1372 l 1,3,-1
 391 795 l 1,0,-1
391 109 m 1,4,-1
 197 109 l 1,5,-1
 197 688 l 1,6,-1
 391 688 l 1,7,-1
 391 109 l 1,4,-1
EndSplineSet
EndChar

StartChar: section
Encoding: 167 167 102
Width: 956
GlyphClass: 2
Flags: W
LayerCount: 2
Fore
SplineSet
915 481 m 0,0,1
 915 309 915 309 737 211 c 1,2,3
 864 88 864 88 864 -37 c 0,4,5
 864 -187 864 -187 747 -292 c 0,6,7
 625 -403 625 -403 455 -403 c 0,8,9
 372 -403 372 -403 258 -361 c 0,10,11
 82 -297 82 -297 82 -203 c 0,12,13
 82 -161 82 -161 138 -120 c 0,14,15
 177 -92 177 -92 207 -92 c 0,16,17
 238 -92 238 -92 277 -151 c 2,18,-1
 334 -235 l 2,19,20
 391 -319 391 -319 471 -319 c 0,21,22
 562 -319 562 -319 618 -242 c 0,23,24
 659 -185 659 -185 659 -111 c 0,25,26
 659 -20 659 -20 537 67 c 0,27,28
 486 101 486 101 349 179 c 0,29,30
 190 270 190 270 126 347 c 0,31,32
 57 430 57 430 57 528 c 0,33,34
 57 651 57 651 155 749 c 0,35,36
 192 785 192 785 238 811 c 1,37,38
 133 918 133 918 133 1038 c 0,39,40
 133 1185 133 1185 246 1284 c 0,41,42
 357 1380 357 1380 510 1380 c 0,43,44
 594 1380 594 1380 682 1343 c 0,45,46
 817 1284 817 1284 825 1212 c 0,47,48
 825 1167 825 1167 779 1129 c 0,49,50
 746 1102 746 1102 711 1102 c 0,51,52
 683 1102 683 1102 653 1152 c 2,53,-1
 610 1223 l 2,54,55
 566 1296 566 1296 485 1296 c 0,56,57
 409 1296 409 1296 359 1231 c 0,58,59
 322 1182 322 1182 322 1122 c 0,60,61
 322 1034 322 1034 440 952 c 0,62,63
 470 932 470 932 606 856 c 0,64,65
 763 769 763 769 830 695 c 0,66,67
 915 600 915 600 915 481 c 0,0,1
727 426 m 0,68,69
 727 522 727 522 512 637 c 0,70,71
 419 688 419 688 315 758 c 1,72,73
 242 691 242 691 242 598 c 0,74,75
 242 518 242 518 403 422 c 0,76,77
 537 346 537 346 664 262 c 1,78,79
 727 320 727 320 727 426 c 0,68,69
EndSplineSet
EndChar

StartChar: dieresis
Encoding: 168 168 103
Width: 778
GlyphClass: 2
Flags: W
LayerCount: 2
Back
SplineSet
731 1179 m 0,0,1
 731 1100 731 1100 671 1065 c 0,2,3
 642 1048 642 1048 606 1048 c 0,4,5
 522 1048 522 1048 490 1111 c 0,6,7
 478 1136 478 1136 477 1169 c 0,8,9
 477 1243 477 1243 534 1280 c 0,10,11
 566 1300 566 1300 606 1300 c 0,12,13
 673 1300 673 1300 710 1246 c 0,14,15
 731 1215 731 1215 731 1179 c 0,0,1
301 1179 m 0,16,17
 301 1100 301 1100 241 1065 c 0,18,19
 212 1048 212 1048 176 1048 c 0,20,21
 92 1048 92 1048 60 1111 c 0,22,23
 48 1136 48 1136 47 1169 c 0,24,25
 47 1243 47 1243 104 1280 c 0,26,27
 136 1300 136 1300 176 1300 c 0,28,29
 244 1300 244 1300 280 1246 c 0,30,31
 301 1214 301 1214 301 1179 c 0,16,17
EndSplineSet
Fore
SplineSet
691 1179 m 0,0,1
 691 1100 691 1100 631 1065 c 0,2,3
 602 1048 602 1048 566 1048 c 0,4,5
 482 1048 482 1048 450 1111 c 0,6,7
 438 1136 438 1136 437 1169 c 0,8,9
 437 1243 437 1243 494 1280 c 0,10,11
 526 1300 526 1300 566 1300 c 0,12,13
 633 1300 633 1300 670 1246 c 0,14,15
 691 1215 691 1215 691 1179 c 0,0,1
341 1179 m 0,16,17
 341 1100 341 1100 281 1065 c 0,18,19
 252 1048 252 1048 216 1048 c 0,20,21
 130 1048 130 1048 100 1111 c 0,22,23
 88 1136 88 1136 87 1169 c 0,24,25
 87 1243 87 1243 144 1280 c 0,26,27
 176 1300 176 1300 216 1300 c 0,28,29
 284 1300 284 1300 320 1246 c 0,30,31
 341 1214 341 1214 341 1179 c 0,16,17
EndSplineSet
EndChar

StartChar: copyright
Encoding: 169 169 104
Width: 1611
GlyphClass: 2
Flags: W
LayerCount: 2
Fore
SplineSet
1532 748 m 0,0,1
 1532 504 1532 504 1384 310 c 0,2,3
 1325 234 1325 234 1250 176 c 0,4,5
 1056 27 1056 27 811 27 c 0,6,7
 567 27 567 27 374 175 c 0,8,9
 195 312 195 312 125 525 c 0,10,11
 90 633 90 633 90 748 c 0,12,13
 90 991 90 991 238 1185 c 0,14,15
 375 1363 375 1363 588 1433 c 0,16,17
 696 1468 696 1468 811 1468 c 0,18,19
 1054 1468 1054 1468 1248 1320 c 0,20,21
 1427 1183 1427 1183 1497 971 c 0,22,23
 1532 863 1532 863 1532 748 c 0,0,1
1430 748 m 0,24,25
 1430 966 1430 966 1293 1136 c 0,26,27
 1165 1294 1165 1294 969 1346 c 0,28,29
 892 1366 892 1366 811 1366 c 0,30,31
 592 1366 592 1366 423 1229 c 0,32,33
 371 1188 371 1188 330 1136 c 0,34,35
 193 967 193 967 193 748 c 0,36,37
 193 530 193 530 329 360 c 0,38,39
 457 201 457 201 653 149 c 0,40,41
 730 129 730 129 811 129 c 0,42,43
 1029 129 1029 129 1199 266 c 0,44,45
 1358 394 1358 394 1410 590 c 0,46,47
 1430 667 1430 667 1430 748 c 0,24,25
1108 561 m 1,48,49
 1105 524 1105 524 1074 452 c 2,50,-1
 1056 414 l 1,51,-1
 1053 410 l 1,52,53
 1021 403 1021 403 1006 399 c 0,54,55
 916 375 916 375 815 375 c 0,56,57
 652 375 652 375 541 479 c 0,58,59
 435 579 435 579 430 724 c 0,60,61
 430 731 430 731 430 737 c 0,62,63
 430 907 430 907 539 1019 c 0,64,65
 650 1133 650 1133 825 1133 c 0,66,67
 891 1133 891 1133 1017 1107 c 2,68,-1
 1022 1106 l 2,69,70
 1032 1104 1032 1104 1065 1104 c 1,71,72
 1082 1067 1082 1067 1087 942 c 2,73,-1
 1087 928 l 2,74,75
 1087 917 1087 917 1059 916 c 2,76,-1
 1041 919 l 2,77,78
 1037 921 1037 921 1036 924 c 0,79,80
 1021 1078 1021 1078 839 1085 c 2,81,-1
 823 1085 l 2,82,83
 697 1085 697 1085 628 972 c 0,84,85
 575 886 575 886 575 768 c 0,86,87
 575 573 575 573 689 478 c 0,88,89
 752 426 752 426 821 426 c 0,90,91
 1007 426 1007 426 1057 575 c 0,92,93
 1059 581 1059 581 1070 581 c 0,94,95
 1093 581 1093 581 1105 568 c 1,96,-1
 1108 561 l 1,48,49
EndSplineSet
EndChar

StartChar: ordfeminine
Encoding: 170 170 105
Width: 532
GlyphClass: 2
Flags: W
LayerCount: 2
Fore
SplineSet
537 874 m 1,0,1
 496 805 496 805 420 805 c 0,2,3
 359 805 359 805 319 854 c 0,4,5
 309 866 309 866 305 867 c 1,6,-1
 296 863 l 1,7,8
 293 860 293 860 289 856 c 0,9,10
 234 805 234 805 166 805 c 0,11,12
 76 805 76 805 48 871 c 0,13,14
 39 893 39 893 39 920 c 0,15,16
 39 995 39 995 177 1066 c 2,17,-1
 264 1108 l 2,18,19
 285 1118 285 1118 285 1137 c 2,20,-1
 285 1255 l 2,21,22
 279 1295 279 1295 221 1298 c 0,23,24
 170 1298 170 1298 150 1268 c 0,25,26
 143 1259 143 1259 142 1214 c 0,27,28
 141 1197 141 1197 139 1188 c 0,29,30
 125 1135 125 1135 82 1135 c 0,31,32
 30 1140 30 1140 27 1182 c 0,33,34
 27 1232 27 1232 70 1283 c 0,35,36
 85 1302 85 1302 102 1313 c 0,37,38
 176 1358 176 1358 266 1358 c 0,39,40
 346 1358 346 1358 397 1315 c 0,41,42
 428 1289 428 1289 428 1257 c 2,43,-1
 428 942 l 2,44,45
 428 888 428 888 456 875 c 2,46,-1
 471 872 l 2,47,48
 490 873 490 873 514 895 c 1,49,-1
 520 896 l 1,50,51
 531 893 531 893 537 881 c 1,52,-1
 537 874 l 1,0,1
285 938 m 2,53,-1
 285 1051 l 2,54,55
 285 1065 285 1065 277 1067 c 1,56,-1
 268 1065 l 2,57,58
 182 1019 182 1019 182 946 c 0,59,60
 182 874 182 874 225 874 c 128,-1,61
 268 874 268 874 281 913 c 0,62,63
 285 925 285 925 285 938 c 2,53,-1
EndSplineSet
EndChar

StartChar: guillemotleft
Encoding: 171 171 106
Width: 867
GlyphClass: 2
Flags: W
LayerCount: 2
Fore
SplineSet
92 399 m 2,0,1
 75 418 75 418 75 436.5 c 128,-1,2
 75 455 75 455 92 474 c 2,3,-1
 409 833 l 2,4,5
 421 847 421 847 441 830 c 128,-1,6
 461 813 461 813 455 802 c 2,7,-1
 288 468 l 2,8,9
 279 450 279 450 279.5 438.5 c 128,-1,10
 280 427 280 427 286 415 c 2,11,-1
 455 67 l 2,12,13
 462 52 462 52 441 37.5 c 128,-1,14
 420 23 420 23 409 36 c 2,15,-1
 92 399 l 2,0,1
447 399 m 2,16,17
 430 418 430 418 430 436.5 c 128,-1,18
 430 455 430 455 447 474 c 2,19,-1
 764 833 l 2,20,21
 776 847 776 847 796 830 c 128,-1,22
 816 813 816 813 810 802 c 2,23,-1
 644 468 l 2,24,25
 635 450 635 450 634.5 438.5 c 128,-1,26
 634 427 634 427 640 415 c 2,27,-1
 810 67 l 2,28,29
 817 52 817 52 796 37.5 c 128,-1,30
 775 23 775 23 764 36 c 2,31,-1
 447 399 l 2,16,17
EndSplineSet
EndChar

StartChar: logicalnot
Encoding: 172 172 107
Width: 1366
GlyphClass: 2
Flags: W
LayerCount: 2
Fore
SplineSet
1180 0 m 1,0,-1
 1180 483 l 1,1,-1
 0 483 l 1,2,-1
 0 657 l 1,3,-1
 1366 657 l 1,4,-1
 1366 0 l 1,5,-1
 1180 0 l 1,0,-1
EndSplineSet
EndChar

StartChar: registered
Encoding: 174 174 108
Width: 1611
GlyphClass: 2
Flags: W
LayerCount: 2
Fore
SplineSet
1532 748 m 0,0,1
 1532 504 1532 504 1384 310 c 0,2,3
 1325 234 1325 234 1250 176 c 0,4,5
 1056 27 1056 27 811 27 c 0,6,7
 567 27 567 27 374 175 c 0,8,9
 195 312 195 312 125 525 c 0,10,11
 90 633 90 633 90 748 c 0,12,13
 90 991 90 991 238 1185 c 0,14,15
 375 1363 375 1363 588 1433 c 0,16,17
 696 1468 696 1468 811 1468 c 0,18,19
 1054 1468 1054 1468 1248 1320 c 0,20,21
 1427 1183 1427 1183 1497 971 c 0,22,23
 1532 863 1532 863 1532 748 c 0,0,1
1430 748 m 0,24,25
 1430 966 1430 966 1293 1136 c 0,26,27
 1165 1294 1165 1294 969 1346 c 0,28,29
 892 1366 892 1366 811 1366 c 0,30,31
 592 1366 592 1366 423 1229 c 0,32,33
 371 1188 371 1188 330 1136 c 0,34,35
 193 967 193 967 193 748 c 0,36,37
 193 530 193 530 329 360 c 0,38,39
 457 201 457 201 653 149 c 0,40,41
 730 129 730 129 811 129 c 0,42,43
 1029 129 1029 129 1199 266 c 0,44,45
 1358 394 1358 394 1410 590 c 0,46,47
 1430 667 1430 667 1430 748 c 0,24,25
1092 922 m 0,48,49
 1092 802 1092 802 940 741 c 0,50,51
 928 736 928 736 930 730 c 2,52,-1
 933 719 l 2,53,54
 951 652 951 652 1110 489 c 0,55,56
 1165 432 1165 432 1206 426 c 0,57,58
 1221 424 1221 424 1221 408 c 0,59,60
 1221 390 1221 390 1206 390 c 10,61,-1
 1143 390 l 18,62,63
 1083 390 1083 390 1032 418 c 0,64,65
 958 460 958 460 879 575 c 0,66,67
 862 600 862 600 821 657 c 0,68,69
 779 715 779 715 753 715 c 2,70,-1
 745 715 l 2,71,72
 742 715 742 715 713 717 c 0,73,74
 698 718 698 718 698 705 c 2,75,-1
 698 510 l 2,76,77
 698 460 698 460 740 452 c 0,78,79
 756 449 756 449 780 449 c 0,80,81
 790 449 790 449 790 422 c 0,82,83
 790 397 790 397 783 397 c 1,84,85
 749 401 749 401 635 401 c 128,-1,86
 521 401 521 401 481 397 c 1,87,88
 472 397 472 397 472 422 c 0,89,90
 472 446 472 446 479 446 c 1,91,92
 567 446 567 446 567 510 c 2,93,-1
 567 1020 l 2,94,95
 567 1073 567 1073 502 1078 c 0,96,97
 490 1079 490 1079 475 1079 c 0,98,99
 468 1079 468 1079 468 1103 c 0,100,101
 468 1128 468 1128 475 1128 c 1,102,103
 605 1124 605 1124 631 1124 c 0,104,105
 653 1124 653 1124 714 1127 c 0,106,107
 770 1130 770 1130 793 1130 c 0,108,109
 972 1130 972 1130 1047 1044 c 0,110,111
 1092 993 1092 993 1092 922 c 0,48,49
954 922 m 0,112,113
 954 995 954 995 892 1043 c 0,114,115
 836 1087 836 1087 743 1087 c 0,116,117
 706 1087 706 1087 701 1080 c 0,118,119
 698 1072 698 1072 698 1068 c 2,120,-1
 698 784 l 2,121,122
 698 765 698 765 711 764 c 0,123,124
 735 758 735 758 758 758 c 0,125,126
 929 758 929 758 951 885 c 0,127,128
 954 902 954 902 954 922 c 0,112,113
EndSplineSet
EndChar

StartChar: macron
Encoding: 175 175 109
Width: 608
GlyphClass: 2
Flags: W
LayerCount: 2
Fore
SplineSet
528 1240 m 2,0,1
 555 1240 555 1240 555 1188 c 0,2,3
 555 1128 555 1128 524 1128 c 2,4,-1
 78 1128 l 2,5,6
 55 1128 55 1128 55 1186 c 0,7,8
 55 1240 55 1240 78 1240 c 2,9,-1
 528 1240 l 2,0,1
EndSplineSet
EndChar

StartChar: degree
Encoding: 176 176 110
Width: 712
GlyphClass: 2
Flags: W
LayerCount: 2
Fore
SplineSet
631 1047 m 0,0,1
 631 910 631 910 529 835 c 0,2,3
 456 782 456 782 356 782 c 0,4,5
 229 782 229 782 151 864 c 0,6,7
 82 936 82 936 82 1047 c 0,8,9
 82 1173 82 1173 176 1249 c 0,10,11
 252 1311 252 1311 356 1311 c 0,12,13
 478 1311 478 1311 558 1230 c 0,14,15
 631 1156 631 1156 631 1047 c 0,0,1
485 1047 m 0,16,17
 485 1144 485 1144 422 1186 c 0,18,19
 392 1206 392 1206 356 1206 c 0,20,21
 289 1206 289 1206 252 1145 c 0,22,23
 227 1104 227 1104 227 1047 c 0,24,25
 227 950 227 950 290 907 c 0,26,27
 320 887 320 887 356 887 c 0,28,29
 425 887 425 887 461 949 c 0,30,31
 485 990 485 990 485 1047 c 0,16,17
EndSplineSet
EndChar

StartChar: plusminus
Encoding: 177 177 111
Width: 1064
GlyphClass: 2
Flags: W
LayerCount: 2
Fore
SplineSet
924 629 m 1,0,-1
 625 629 l 1,1,-1
 625 287 l 1,2,-1
 444 287 l 1,3,-1
 444 629 l 1,4,-1
 143 629 l 1,5,-1
 143 776 l 1,6,-1
 444 776 l 1,7,-1
 444 1081 l 1,8,-1
 625 1081 l 1,9,-1
 625 776 l 1,10,-1
 924 776 l 1,11,-1
 924 629 l 1,0,-1
924 -6 m 1,12,-1
 143 -6 l 1,13,-1
 143 141 l 1,14,-1
 924 141 l 1,15,-1
 924 -6 l 1,12,-1
EndSplineSet
EndChar

StartChar: uni00B2
Encoding: 178 178 112
Width: 626
GlyphClass: 2
Flags: W
LayerCount: 2
Fore
SplineSet
522 539 m 2,0,1
 511 515 511 515 473 515 c 0,2,3
 389 520 389 520 320 520 c 2,4,-1
 271 520 l 2,5,6
 171 520 171 520 59 515 c 0,7,8
 26 515 26 515 26 544 c 0,9,10
 26 557 26 557 38 570 c 0,11,12
 137 669 137 669 233 799 c 0,13,14
 391 1014 391 1014 392 1127 c 0,15,16
 389 1254 389 1254 285 1254 c 0,17,18
 193 1254 193 1254 135 1152 c 0,19,20
 128 1138 128 1138 105 1153 c 0,21,22
 88 1164 88 1164 95 1174 c 0,23,24
 145 1272 145 1272 225 1317 c 0,25,26
 277 1346 277 1346 335 1346 c 0,27,28
 437 1346 437 1346 497 1278 c 0,29,30
 550 1218 550 1218 550 1133 c 0,31,32
 550 1015 550 1015 380 824 c 0,33,34
 343 783 343 783 200 640 c 1,35,-1
 384 640 l 2,36,37
 455 640 455 640 481 651 c 0,38,39
 512 665 512 665 530 700 c 0,40,41
 537 713 537 713 563 703 c 0,42,43
 587 694 587 694 584 685 c 2,44,-1
 522 539 l 2,0,1
EndSplineSet
EndChar

StartChar: uni00B3
Encoding: 179 179 113
Width: 956
GlyphClass: 2
Flags: W
LayerCount: 2
Fore
SplineSet
531 784 m 0,0,1
 531 676 531 676 454 598 c 0,2,3
 365 506 365 506 230 506 c 0,4,5
 141 506 141 506 86 536 c 0,6,7
 37 563 37 563 37 609 c 0,8,9
 37 669 37 669 112 669 c 0,10,11
 140 669 140 669 169 635 c 2,12,-1
 201 598 l 2,13,14
 230 569 230 569 263 568 c 0,15,16
 326 568 326 568 358 651 c 0,17,18
 379 705 379 705 379 769 c 0,19,20
 379 851 379 851 329 899 c 0,21,22
 289 938 289 938 228 938 c 0,23,24
 191 938 191 938 161 927 c 1,25,26
 144 927 144 927 144 962 c 0,27,28
 144 994 144 994 157 994 c 0,29,30
 252 994 252 994 307 1046 c 0,31,32
 349 1086 349 1086 349 1145 c 0,33,34
 349 1207 349 1207 315 1242 c 0,35,36
 291 1267 291 1267 255 1266 c 0,37,38
 199 1266 199 1266 151 1215 c 0,39,40
 132 1195 132 1195 117 1170 c 0,41,42
 108 1157 108 1157 86 1175 c 0,43,44
 69 1187 69 1187 76 1198 c 0,45,46
 135 1285 135 1285 189 1318 c 0,47,48
 237 1347 237 1347 297 1346 c 0,49,50
 379 1346 379 1346 436 1288 c 0,51,52
 489 1234 489 1234 489 1160 c 0,53,54
 489 1054 489 1054 382 991 c 1,55,56
 531 947 531 947 531 784 c 0,0,1
EndSplineSet
EndChar

StartChar: acute
Encoding: 180 180 114
Width: 569
GlyphClass: 2
Flags: W
LayerCount: 2
Fore
SplineSet
186 1020 m 0,0,1
 144 1020 144 1020 144 1073 c 0,2,3
 144 1094 144 1094 152 1114 c 2,4,-1
 272 1416 l 2,5,6
 279 1433 279 1433 300 1433 c 0,7,8
 332 1433 332 1433 395 1390 c 0,9,10
 433 1364 433 1364 433 1343 c 0,11,12
 433 1337 433 1337 430 1332 c 2,13,-1
 254 1069 l 2,14,15
 222 1020 222 1020 186 1020 c 0,0,1
EndSplineSet
EndChar

StartChar: uni00B5
Encoding: 181 181 115
Width: 1073
GlyphClass: 2
Flags: W
LayerCount: 2
Fore
SplineSet
1055 31 m 0,0,1
 1039 24 1039 24 926 2 c 2,2,-1
 899 -4 l 2,3,4
 797 -30 797 -30 768 -35 c 2,5,-1
 756 -35 l 1,6,7
 745 -31 745 -31 745 10 c 2,8,-1
 745 57 l 2,9,10
 745 79 745 79 734 80 c 1,11,-1
 721 76 l 2,12,13
 715 73 715 73 707 66 c 0,14,15
 624 -9 624 -9 508 -20 c 0,16,17
 482 -23 482 -23 453 -23 c 0,18,19
 398 -23 398 -23 340 0 c 1,20,21
 334 -75 334 -75 334 -76 c 2,22,-1
 342 -361 l 1,23,-1
 342 -362 l 2,24,25
 342 -421 342 -421 291 -461 c 0,26,27
 251 -492 251 -492 201 -492 c 0,28,29
 126 -492 126 -492 92 -431 c 0,30,31
 78 -405 78 -405 78 -377 c 0,32,33
 78 -341 78 -341 102 -137 c 0,34,35
 110 -66 110 -66 113 -25 c 0,36,37
 127 167 127 167 127 279 c 2,38,-1
 127 299 l 1,39,-1
 127 655 l 2,40,41
 127 748 127 748 61 757 c 0,42,43
 53 758 53 758 43 758 c 0,44,45
 28 758 28 758 28 794 c 2,46,-1
 31 818 l 2,47,48
 35 831 35 831 43 831 c 0,49,50
 142 831 142 831 267 849 c 0,51,52
 298 854 298 854 317 854 c 0,53,54
 362 854 362 854 363 810 c 0,55,56
 363 803 363 803 362 795 c 0,57,58
 356 717 356 717 356 649 c 2,59,-1
 356 307 l 2,60,61
 356 207 356 207 401 144 c 0,62,63
 438 92 438 92 498 92 c 0,64,65
 594 92 594 92 660 151 c 0,66,67
 707 193 707 193 707 240 c 2,68,-1
 707 655 l 2,69,70
 707 736 707 736 649 754 c 2,71,-1
 624 758 l 1,72,-1
 623 758 l 2,73,74
 608 758 608 758 607 794 c 2,75,-1
 611 818 l 2,76,77
 615 831 615 831 623 831 c 0,78,79
 734 831 734 831 852 850 c 0,80,81
 877 854 877 854 891 854 c 0,82,83
 938 854 938 854 944 818 c 2,84,-1
 944 788 l 2,85,86
 936 702 936 702 936 662 c 2,87,-1
 936 256 l 2,88,89
 936 166 936 166 946 139 c 0,90,91
 960 99 960 99 999 99 c 0,92,93
 1012 99 1012 99 1032 104 c 1,94,-1
 1040 103 l 1,95,96
 1056 94 1056 94 1061 58 c 2,97,-1
 1061 38 l 1,98,99
 1059 32 1059 32 1055 31 c 0,0,1
EndSplineSet
EndChar

StartChar: paragraph
Encoding: 182 182 116
Width: 1118
GlyphClass: 2
Flags: W
LayerCount: 2
Fore
SplineSet
487 143 m 2,0,-1
 487 557 l 2,1,2
 487 579 487 579 463 579 c 0,3,4
 251 579 251 579 133.5 688.5 c 128,-1,5
 16 798 16 798 16 964 c 0,6,7
 16 1144 16 1144 145.5 1251 c 128,-1,8
 275 1358 275 1358 463 1358 c 0,9,10
 548 1358 548 1358 648.5 1355 c 128,-1,11
 749 1352 749 1352 891 1352 c 128,-1,12
 1033 1352 1033 1352 1081 1358 c 1,13,14
 1097 1358 1097 1358 1097 1320 c 128,-1,15
 1097 1282 1097 1282 1081 1282 c 0,16,17
 963 1282 963 1282 963 1208 c 2,18,-1
 963 145 l 2,19,20
 963 68 963 68 1081 68 c 0,21,22
 1097 68 1097 68 1097 30 c 128,-1,23
 1097 -8 1097 -8 1081 -8 c 1,24,25
 1001 0 1001 0 887 0 c 2,26,-1
 580 0 l 2,27,28
 451 0 451 0 371 -8 c 1,29,30
 355 -8 355 -8 355 30 c 128,-1,31
 355 68 355 68 371 68 c 0,32,33
 487 68 487 68 487 143 c 2,0,-1
653 145 m 2,34,35
 653 68 653 68 723 68 c 0,36,37
 797 68 797 68 797 143 c 2,38,-1
 797 1208 l 2,39,40
 797 1282 797 1282 731 1282 c 0,41,42
 653 1282 653 1282 653 1208 c 2,43,-1
 653 145 l 2,34,35
EndSplineSet
EndChar

StartChar: periodcentered
Encoding: 183 183 117
Width: 593
GlyphClass: 2
Flags: W
LayerCount: 2
Fore
SplineSet
492 512 m 0,0,1
 492 434 492 434 429 391 c 0,2,3
 390 365 390 365 342 365 c 0,4,5
 270 365 270 365 221 410 c 0,6,7
 176 452 176 452 176 522 c 0,8,9
 176 578 176 578 216 622 c 0,10,11
 261 672 261 672 342 672 c 0,12,13
 435 672 435 672 476 587 c 0,14,15
 492 553 492 553 492 512 c 0,0,1
EndSplineSet
EndChar

StartChar: cedilla
Encoding: 184 184 118
Width: 778
GlyphClass: 2
Flags: W
LayerCount: 2
Fore
SplineSet
618 -324 m 0,0,1
 618 -410 618 -410 530 -466 c 0,2,3
 456 -514 456 -514 358 -514 c 0,4,5
 234 -514 234 -514 207 -453 c 0,6,7
 201 -440 201 -440 201 -424 c 0,8,9
 201 -382 201 -382 237 -363 c 0,10,11
 250 -356 250 -356 266 -356 c 0,12,13
 297 -356 297 -356 341 -395 c 0,14,15
 384 -432 384 -432 406 -432 c 0,16,17
 459 -432 459 -432 459 -381 c 0,18,19
 459 -304 459 -304 317 -239 c 0,20,21
 297 -230 297 -230 297 -222 c 0,22,23
 297 -217 297 -217 303 -209 c 2,24,-1
 444 0 l 1,25,-1
 553 0 l 1,26,-1
 475 -106 l 2,27,28
 466 -118 466 -118 466 -124 c 0,29,30
 466 -134 466 -134 494 -150 c 0,31,32
 618 -216 618 -216 618 -324 c 0,0,1
EndSplineSet
EndChar

StartChar: uni00B9
Encoding: 185 185 119
Width: 667
GlyphClass: 2
Flags: W
LayerCount: 2
Fore
SplineSet
516 522 m 0,0,1
 476 526 476 526 322 526 c 0,2,3
 165 526 165 526 125 522 c 0,4,5
 116 522 116 522 116 552 c 128,-1,6
 116 582 116 582 125 582 c 0,7,8
 197 582 197 582 218 607 c 0,9,10
 238 631 238 631 238 698 c 2,11,-1
 238 1208 l 2,12,13
 238 1236 238 1236 218 1237 c 2,14,-1
 197 1233 l 2,15,16
 145 1215 145 1215 123 1210 c 1,17,-1
 116 1212 l 1,18,19
 102 1224 102 1224 102 1247 c 0,20,21
 102 1259 102 1259 109 1262 c 0,22,23
 301 1325 301 1325 393 1374 c 0,24,25
 399 1378 399 1378 410 1378 c 0,26,27
 419 1378 419 1378 420 1366 c 2,28,-1
 420 1360 l 2,29,30
 418 1342 418 1342 418 1253 c 2,31,-1
 418 698 l 2,32,33
 418 619 418 619 437 600 c 0,34,35
 455 582 455 582 516 582 c 0,36,37
 525 582 525 582 525 552 c 2,38,-1
 522 528 l 1,39,40
 519 522 519 522 516 522 c 0,0,1
EndSplineSet
EndChar

StartChar: ordmasculine
Encoding: 186 186 120
Width: 624
GlyphClass: 2
Flags: W
LayerCount: 2
Fore
SplineSet
586 1083 m 0,0,1
 586 938 586 938 494 863 c 0,2,3
 424 805 424 805 313 805 c 0,4,5
 194 805 194 805 114 893 c 0,6,7
 41 973 41 973 41 1081 c 0,8,9
 41 1199 41 1199 124 1281 c 0,10,11
 202 1358 202 1358 313 1358 c 0,12,13
 436 1358 436 1358 516 1269 c 0,14,15
 586 1191 586 1191 586 1083 c 0,0,1
442 1079 m 0,16,17
 442 1200 442 1200 388 1269 c 0,18,19
 354 1311 354 1311 313 1311 c 0,20,21
 258 1311 258 1311 219 1238 c 2,22,-1
 201 1198 l 2,23,24
 182 1143 182 1143 182 1079 c 0,25,26
 182 962 182 962 238 897 c 0,27,28
 271 858 271 858 313 858 c 0,29,30
 376 858 376 858 413 937 c 0,31,32
 442 997 442 997 442 1079 c 0,16,17
EndSplineSet
EndChar

StartChar: guillemotright
Encoding: 187 187 121
Width: 867
GlyphClass: 2
Flags: W
LayerCount: 2
Fore
SplineSet
793 470 m 2,0,1
 810 451 810 451 810 432.5 c 128,-1,2
 810 414 810 414 793 395 c 2,3,-1
 476 36 l 2,4,5
 464 22 464 22 444 39 c 128,-1,6
 424 56 424 56 430 67 c 2,7,-1
 596 401 l 2,8,9
 605 419 605 419 605.5 430.5 c 128,-1,10
 606 442 606 442 600 454 c 2,11,-1
 430 802 l 2,12,13
 423 817 423 817 444 831.5 c 128,-1,14
 465 846 465 846 476 833 c 2,15,-1
 793 470 l 2,0,1
438 470 m 2,16,17
 455 451 455 451 455 432.5 c 128,-1,18
 455 414 455 414 438 395 c 2,19,-1
 121 36 l 2,20,21
 109 22 109 22 89 39 c 128,-1,22
 69 56 69 56 75 67 c 2,23,-1
 242 401 l 2,24,25
 251 419 251 419 250.5 430.5 c 128,-1,26
 250 442 250 442 244 454 c 2,27,-1
 75 802 l 2,28,29
 68 817 68 817 89 831.5 c 128,-1,30
 110 846 110 846 121 833 c 2,31,-1
 438 470 l 2,16,17
EndSplineSet
EndChar

StartChar: onequarter
Encoding: 188 188 122
Width: 1509
GlyphClass: 2
Flags: W
LayerCount: 2
Fore
SplineSet
402 700 m 2,0,1
 402 621 402 621 424 594 c 128,-1,2
 446 567 446 567 502 567 c 0,3,4
 511 567 511 567 511 543.5 c 128,-1,5
 511 520 511 520 502 520 c 1,6,7
 452 525 452 525 326 525 c 128,-1,8
 200 525 200 525 151 520 c 1,9,10
 142 520 142 520 141.5 543.5 c 128,-1,11
 141 567 141 567 151 567 c 0,12,13
 219 567 219 567 240 596.5 c 128,-1,14
 261 626 261 626 261 699 c 2,15,-1
 261 1199 l 2,16,17
 261 1239 261 1239 248 1234 c 0,18,19
 183 1212 183 1212 148 1195 c 0,20,21
 136 1189 136 1189 129 1209 c 128,-1,22
 122 1229 122 1229 134 1232 c 0,23,24
 216 1266 216 1266 350 1364 c 0,25,26
 367 1376 367 1376 379 1377 c 0,27,28
 406 1377 406 1377 406 1344 c 0,29,30
 402 1300 402 1300 402 1245 c 2,31,-1
 402 700 l 2,0,1
1370 97 m 2,32,33
 1370 42 1370 42 1433 42 c 0,34,35
 1442 42 1442 42 1442.5 18.5 c 128,-1,36
 1443 -5 1443 -5 1433 -5 c 1,37,38
 1383 0 1383 0 1288 0 c 128,-1,39
 1193 0 1193 0 1141 -5 c 1,40,41
 1132 -5 1132 -5 1132 18.5 c 128,-1,42
 1132 42 1132 42 1141 42 c 0,43,44
 1229 42 1229 42 1229 97 c 2,45,-1
 1229 230 l 1,46,-1
 944 230 l 2,47,48
 890 230 890 230 890 266 c 0,49,50
 890 296 890 296 922 342 c 2,51,-1
 1101 579 l 2,52,53
 1218 733 1218 733 1249 783 c 2,54,-1
 1307 876 l 2,55,56
 1316 887 1316 887 1334 887 c 0,57,58
 1387 887 1387 887 1387 854 c 0,59,60
 1387 848 1387 848 1384 843 c 2,61,-1
 1002 338 l 2,62,63
 996 331 996 331 996 324 c 0,64,65
 996 312 996 312 1008 312 c 2,66,-1
 1229 312 l 1,67,-1
 1229 578 l 2,68,69
 1229 592 1229 592 1299.5 591.5 c 128,-1,70
 1370 591 1370 591 1370 578 c 2,71,-1
 1370 312 l 1,72,-1
 1446 312 l 2,73,74
 1455 312 1455 312 1455.5 271 c 128,-1,75
 1456 230 1456 230 1446 230 c 2,76,-1
 1370 230 l 1,77,-1
 1370 97 l 2,32,33
1044 1300 m 1,78,-1
 590 0 l 1,79,-1
 463 0 l 1,80,-1
 918 1300 l 1,81,-1
 1044 1300 l 1,78,-1
EndSplineSet
LCarets2: 2 0 0 
Ligature2: "'frac' Diagonal Fractions in Latin lookup 4" one fraction four
Ligature2: "'frac' Diagonal Fractions in Latin lookup 4" one slash four
EndChar

StartChar: onehalf
Encoding: 189 189 123
Width: 1509
GlyphClass: 2
Flags: W
LayerCount: 2
Fore
SplineSet
1392 19 m 2,0,1
 1381 -5 1381 -5 1343 -5 c 0,2,3
 1259 0 1259 0 1190 0 c 2,4,-1
 1141 0 l 2,5,6
 1041 0 1041 0 929 -5 c 0,7,8
 896 -5 896 -5 896 24 c 0,9,10
 896 37 896 37 908 50 c 0,11,12
 1007 149 1007 149 1103 279 c 0,13,14
 1261 494 1261 494 1262 607 c 0,15,16
 1259 734 1259 734 1155 734 c 0,17,18
 1063 734 1063 734 1005 632 c 0,19,20
 998 618 998 618 975 633 c 0,21,22
 958 644 958 644 965 654 c 0,23,24
 1015 752 1015 752 1095 797 c 0,25,26
 1147 826 1147 826 1205 826 c 0,27,28
 1307 826 1307 826 1367 758 c 0,29,30
 1420 698 1420 698 1420 613 c 0,31,32
 1420 495 1420 495 1250 304 c 0,33,34
 1213 263 1213 263 1070 120 c 1,35,-1
 1254 120 l 2,36,37
 1325 120 1325 120 1351 131 c 0,38,39
 1382 145 1382 145 1400 180 c 0,40,41
 1407 193 1407 193 1433 183 c 0,42,43
 1457 174 1457 174 1454 165 c 2,44,-1
 1392 19 l 2,0,1
402 700 m 2,45,46
 402 621 402 621 424 594 c 128,-1,47
 446 567 446 567 502 567 c 0,48,49
 511 567 511 567 511 543.5 c 128,-1,50
 511 520 511 520 502 520 c 1,51,52
 452 525 452 525 326 525 c 128,-1,53
 200 525 200 525 151 520 c 1,54,55
 142 520 142 520 141.5 543.5 c 128,-1,56
 141 567 141 567 151 567 c 0,57,58
 219 567 219 567 240 596.5 c 128,-1,59
 261 626 261 626 261 699 c 2,60,-1
 261 1199 l 2,61,62
 261 1239 261 1239 248 1234 c 0,63,64
 183 1212 183 1212 148 1195 c 0,65,66
 136 1189 136 1189 129 1209 c 128,-1,67
 122 1229 122 1229 134 1232 c 0,68,69
 216 1266 216 1266 350 1364 c 0,70,71
 367 1376 367 1376 379 1377 c 0,72,73
 406 1377 406 1377 406 1344 c 0,74,75
 402 1300 402 1300 402 1245 c 2,76,-1
 402 700 l 2,45,46
1044 1300 m 1,77,-1
 590 0 l 1,78,-1
 463 0 l 1,79,-1
 918 1300 l 1,80,-1
 1044 1300 l 1,77,-1
EndSplineSet
LCarets2: 2 0 0 
Ligature2: "'frac' Diagonal Fractions in Latin lookup 4" one fraction two
Ligature2: "'frac' Diagonal Fractions in Latin lookup 4" one slash two
EndChar

StartChar: threequarters
Encoding: 190 190 124
Width: 1509
GlyphClass: 2
Flags: W
LayerCount: 2
Fore
SplineSet
531 789 m 0,0,1
 531 680 531 680 454 602 c 0,2,3
 365 510 365 510 230 511 c 0,4,5
 141 511 141 511 86 541 c 0,6,7
 37 568 37 568 37 614 c 0,8,9
 37 674 37 674 112 674 c 0,10,11
 140 674 140 674 169 640 c 2,12,-1
 201 602 l 2,13,14
 230 573 230 573 263 573 c 0,15,16
 326 573 326 573 358 656 c 0,17,18
 379 710 379 710 379 774 c 0,19,20
 379 856 379 856 329 904 c 0,21,22
 289 943 289 943 228 943 c 0,23,24
 191 943 191 943 161 932 c 1,25,26
 144 932 144 932 144 967 c 0,27,28
 144 999 144 999 157 999 c 0,29,30
 252 999 252 999 307 1051 c 0,31,32
 349 1091 349 1091 349 1150 c 0,33,34
 349 1212 349 1212 315 1247 c 0,35,36
 291 1272 291 1272 255 1271 c 0,37,38
 199 1271 199 1271 151 1220 c 0,39,40
 132 1200 132 1200 117 1175 c 0,41,42
 108 1162 108 1162 86 1180 c 0,43,44
 69 1192 69 1192 76 1203 c 0,45,46
 135 1290 135 1290 189 1323 c 0,47,48
 237 1352 237 1352 297 1351 c 0,49,50
 379 1351 379 1351 436 1293 c 0,51,52
 489 1239 489 1239 489 1165 c 0,53,54
 489 1059 489 1059 382 996 c 1,55,56
 531 952 531 952 531 789 c 0,0,1
1370 97 m 2,57,58
 1370 42 1370 42 1433 42 c 0,59,60
 1442 42 1442 42 1442.5 18.5 c 128,-1,61
 1443 -5 1443 -5 1433 -5 c 1,62,63
 1383 0 1383 0 1288 0 c 128,-1,64
 1193 0 1193 0 1141 -5 c 1,65,66
 1132 -5 1132 -5 1132 18.5 c 128,-1,67
 1132 42 1132 42 1141 42 c 0,68,69
 1229 42 1229 42 1229 97 c 2,70,-1
 1229 230 l 1,71,-1
 944 230 l 2,72,73
 890 230 890 230 890 266 c 0,74,75
 890 296 890 296 922 342 c 2,76,-1
 1101 579 l 2,77,78
 1218 733 1218 733 1249 783 c 2,79,-1
 1307 876 l 2,80,81
 1316 887 1316 887 1334 887 c 0,82,83
 1387 887 1387 887 1387 854 c 0,84,85
 1387 848 1387 848 1384 843 c 2,86,-1
 1002 338 l 2,87,88
 996 331 996 331 996 324 c 0,89,90
 996 312 996 312 1008 312 c 2,91,-1
 1229 312 l 1,92,-1
 1229 578 l 2,93,94
 1229 592 1229 592 1299.5 591.5 c 128,-1,95
 1370 591 1370 591 1370 578 c 2,96,-1
 1370 312 l 1,97,-1
 1446 312 l 2,98,99
 1455 312 1455 312 1455.5 271 c 128,-1,100
 1456 230 1456 230 1446 230 c 2,101,-1
 1370 230 l 1,102,-1
 1370 97 l 2,57,58
1044 1300 m 1,103,-1
 590 0 l 1,104,-1
 463 0 l 1,105,-1
 918 1300 l 1,106,-1
 1044 1300 l 1,103,-1
EndSplineSet
LCarets2: 2 0 0 
Ligature2: "'frac' Diagonal Fractions in Latin lookup 4" three fraction four
Ligature2: "'frac' Diagonal Fractions in Latin lookup 4" three slash four
EndChar

StartChar: questiondown
Encoding: 191 191 125
Width: 751
GlyphClass: 2
Flags: W
LayerCount: 2
Fore
SplineSet
174 -112 m 0,0,1
 174 66 174 66 276 118 c 2,2,-1
 442 200 l 2,3,4
 514 236 514 236 514 258 c 0,5,6
 516 310 516 310 496 384 c 1,7,8
 500 410 500 410 550 410 c 0,9,10
 566 410 566 410 570 402 c 0,11,12
 650 254 650 254 650 175 c 0,13,14
 650 139 650 139 636 105.5 c 128,-1,15
 622 72 622 72 597 51 c 128,-1,16
 572 30 572 30 534 12 c 2,17,-1
 430 -42 l 2,18,19
 304 -106 304 -106 304 -154 c 0,20,21
 304 -212 304 -212 347 -252 c 128,-1,22
 390 -292 390 -292 510 -302 c 2,23,-1
 588 -308 l 2,24,25
 619 -310 619 -310 656.5 -344 c 128,-1,26
 694 -378 694 -378 694 -434 c 256,27,28
 694 -478 694 -478 658 -508 c 128,-1,29
 622 -538 622 -538 572 -538 c 0,30,31
 478 -538 478 -538 391 -477 c 128,-1,32
 304 -416 304 -416 239 -318 c 128,-1,33
 174 -220 174 -220 174 -112 c 0,0,1
376 709 m 256,34,35
 376 771 376 771 420.5 810.5 c 128,-1,36
 465 850 465 850 531.5 850 c 128,-1,37
 598 850 598 850 644 806 c 128,-1,38
 690 762 690 762 690 701 c 128,-1,39
 690 640 690 640 649 593 c 128,-1,40
 608 546 608 546 531.5 546 c 128,-1,41
 455 546 455 546 415.5 594 c 128,-1,42
 376 642 376 642 376 709 c 256,34,35
EndSplineSet
Substitution2: "'c2sc' Capitals to Small Capitals in Latin lookup 21-1" questiondown.sc
EndChar

StartChar: Aring
Encoding: 197 197 131
Width: 1401
GlyphClass: 2
Flags: W
LayerCount: 2
Fore
SplineSet
1398 -7 m 0,0,1
 1265 0 1265 0 1132 0 c 0,2,3
 991 0 991 0 858 -7 c 0,4,5
 843 -7 843 -7 843 39 c 0,6,7
 843 60 843 60 848 74 c 0,8,9
 852 86 852 86 858 86 c 0,10,11
 953 86 953 86 954 151 c 0,12,13
 954 173 954 173 944 202 c 2,14,-1
 844 499 l 2,15,16
 835 523 835 523 810 523 c 2,17,-1
 437 523 l 2,18,19
 419 523 419 523 408 502 c 0,20,21
 406 498 406 498 405 494 c 2,22,-1
 296 201 l 2,23,24
 287 177 287 177 287 159 c 0,25,26
 287 145 287 145 291 134 c 0,27,28
 317 87 317 87 434 86 c 0,29,30
 447 86 447 86 447 40 c 0,31,32
 448 17 448 17 443 3 c 0,33,34
 439 -7 439 -7 434 -7 c 0,35,36
 294 0 294 0 201 0 c 0,37,38
 113 0 113 0 -27 -7 c 0,39,40
 -41 -7 -41 -7 -41 39 c 0,41,42
 -41 61 -41 61 -37 75 c 0,43,44
 -33 86 -33 86 -27 86 c 0,45,46
 125 86 125 86 175 217 c 2,47,-1
 600 1334 l 1,48,49
 511 1365 511 1365 475 1449 c 0,50,51
 459 1488 459 1488 459 1530 c 0,52,53
 459 1622 459 1622 529 1684 c 0,54,55
 593 1739 593 1739 687 1739 c 0,56,57
 807 1739 807 1739 873 1655 c 2,58,-1
 893 1625 l 1,59,-1
 908 1589 l 2,60,61
 917 1560 917 1560 917 1530 c 0,62,63
 917 1435 917 1435 844 1373 c 0,64,65
 823 1355 823 1355 798 1343 c 1,66,-1
 802 1329 l 2,67,68
 810 1294 810 1294 852 1177 c 2,69,-1
 1196 202 l 2,70,71
 1218 139 1218 139 1302 106 c 0,72,73
 1350 86 1350 86 1398 86 c 0,74,75
 1413 86 1413 86 1413 40 c 0,76,77
 1413 19 1413 19 1408 5 c 0,78,79
 1404 -7 1404 -7 1398 -7 c 0,0,1
789 1530 m 0,80,81
 789 1612 789 1612 737 1648 c 0,82,83
 715 1662 715 1662 687 1664 c 0,84,85
 623 1660 623 1660 598 1593 c 0,86,87
 587 1565 587 1565 587 1530 c 0,88,89
 587 1451 587 1451 635 1416 c 0,90,91
 658 1400 658 1400 687 1400 c 0,92,93
 751 1400 751 1400 777 1466 c 0,94,95
 789 1495 789 1495 789 1530 c 0,80,81
793 644 m 2,96,-1
 649 1068 l 2,97,98
 644 1084 644 1084 634 1084 c 128,-1,99
 624 1084 624 1084 617 1068 c 2,100,-1
 459 642 l 2,101,102
 454 631 454 631 454 624 c 2,103,-1
 457 614 l 1,104,105
 463 607 463 607 481 607 c 2,106,-1
 768 607 l 2,107,108
 796 607 796 607 796 629 c 0,109,110
 796 636 796 636 793 644 c 2,96,-1
EndSplineSet
Substitution2: "'c2sc' Capitals to Small Capitals in Latin lookup 21-1" aring.sc
Ligature2: "'ccmp' Glyph Composition Decomposition subtable" A uni030A
LCarets2: 1 0 
EndChar

StartChar: AE
Encoding: 198 198 132
Width: 1848
GlyphClass: 2
Flags: W
LayerCount: 2
Fore
SplineSet
1769 49 m 2,0,1
 1769 22 1769 22 1763 14 c 0,2,3
 1744 -7 1744 -7 1670 -7 c 3,4,5
 1484 -7 1484 -7 1277 -3.5 c 128,-1,6
 1070 0 1070 0 940 0 c 3,7,8
 784 0 784 0 678 -7 c 1,9,10
 664 -7 664 -7 664 39.5 c 128,-1,11
 664 86 664 86 678 86 c 0,12,13
 831 86 831 86 831 195 c 2,14,-1
 831 569 l 2,15,16
 831 600 831 600 802 600 c 2,17,-1
 468 600 l 2,18,19
 442 600 442 600 432 581 c 2,20,-1
 226 187 l 2,21,22
 212 160 212 160 212 141 c 0,23,24
 212 86 212 86 353 86 c 0,25,26
 367 86 367 86 367 39.5 c 128,-1,27
 367 -7 367 -7 353 -7 c 1,28,29
 237 0 237 0 137 0 c 0,30,31
 -12 0 -12 0 -113 -7 c 1,32,33
 -127 -7 -127 -7 -127 39.5 c 128,-1,34
 -127 86 -127 86 -113 86 c 0,35,36
 -22 86 -22 86 27 131 c 0,37,38
 56 158 56 158 88 212 c 2,39,-1
 659 1179 l 2,40,41
 677 1208 677 1208 677 1226 c 0,42,43
 677 1265 677 1265 594 1265 c 0,44,45
 580 1265 580 1265 580 1311.5 c 128,-1,46
 580 1358 580 1358 594 1358 c 1,47,48
 736 1352 736 1352 972 1352 c 3,49,50
 1093 1352 1093 1352 1247 1355 c 128,-1,51
 1401 1358 1401 1358 1586 1358 c 3,52,53
 1658 1358 1658 1358 1671 1354 c 0,54,55
 1687 1347 1687 1347 1688 1313 c 2,56,-1
 1688 1010 l 2,57,58
 1688 994 1688 994 1637.5 994 c 128,-1,59
 1587 994 1587 994 1587 1010 c 0,60,61
 1587 1262 1587 1262 1358 1267 c 2,62,-1
 1108 1272 l 2,63,64
 1077 1273 1077 1273 1077 1228 c 2,65,-1
 1077 713 l 2,66,67
 1077 684 1077 684 1106 684 c 2,68,-1
 1287 684 l 2,69,70
 1364 684 1364 684 1364 860 c 0,71,72
 1364 874 1364 874 1412 874 c 128,-1,73
 1460 874 1460 874 1460 860 c 1,74,75
 1453 770 1453 770 1453 645 c 0,76,77
 1453 509 1453 509 1460 439 c 1,78,79
 1460 426 1460 426 1412 426 c 128,-1,80
 1364 426 1364 426 1364 439 c 0,81,82
 1364 596 1364 596 1287 600 c 2,83,-1
 1106 600 l 2,84,85
 1077 600 1077 600 1077 567 c 2,86,-1
 1077 273 l 2,87,88
 1077 78 1077 78 1207 78 c 2,89,-1
 1451 86 l 2,90,91
 1668 93 1668 93 1668 336 c 0,92,93
 1668 353 1668 353 1718.5 353 c 128,-1,94
 1769 353 1769 353 1769 336 c 2,95,-1
 1769 49 l 2,0,1
831 713 m 2,96,-1
 831 1211 l 2,97,98
 831 1228 831 1228 821 1228 c 0,99,100
 810 1228 810 1228 800 1211 c 2,101,-1
 514 713 l 2,102,103
 510 706 510 706 510 700 c 0,104,105
 510 684 510 684 527 684 c 2,106,-1
 800 684 l 2,107,108
 831 684 831 684 831 713 c 2,96,-1
EndSplineSet
Substitution2: "'c2sc' Capitals to Small Capitals in Latin lookup 21-1" ae.sc
EndChar

StartChar: Ccedilla
Encoding: 199 199 133
Width: 1349
GlyphClass: 2
Flags: W
LayerCount: 2
Fore
SplineSet
947 -336 m 0,0,1
 947 -422 947 -422 859 -478 c 0,2,3
 785 -526 785 -526 687 -526 c 0,4,5
 563 -526 563 -526 536 -465 c 0,6,7
 530 -452 530 -452 530 -436 c 0,8,9
 530 -394 530 -394 566 -375 c 0,10,11
 579 -368 579 -368 595 -368 c 0,12,13
 626 -368 626 -368 670 -407 c 0,14,15
 713 -444 713 -444 735 -444 c 0,16,17
 788 -444 788 -444 788 -393 c 0,18,19
 788 -316 788 -316 646 -251 c 0,20,21
 626 -242 626 -242 626 -234 c 0,22,23
 626 -229 626 -229 632 -221 c 2,24,-1
 763 -27 l 1,25,26
 476 -24 476 -24 267 163 c 0,27,28
 55 353 55 353 55 647 c 0,29,30
 55 961 55 961 259.5 1173 c 128,-1,31
 464 1385 464 1385 795 1385 c 0,32,33
 925 1385 925 1385 1133 1342 c 0,34,35
 1189 1331 1189 1331 1240 1329 c 1,36,37
 1273 1239 1273 1239 1280 1003 c 0,38,39
 1280 985 1280 985 1233.5 982 c 128,-1,40
 1187 979 1187 979 1186 995 c 0,41,42
 1176 1105 1176 1105 1120.5 1172 c 128,-1,43
 1065 1239 1065 1239 980.5 1268 c 128,-1,44
 896 1297 896 1297 789 1297 c 0,45,46
 582 1297 582 1297 455 1129 c 128,-1,47
 328 961 328 961 328 705 c 0,48,49
 328 408 328 408 468.5 237.5 c 128,-1,50
 609 67 609 67 785 67 c 0,51,52
 1128 66 1128 66 1225 344 c 0,53,54
 1232 363 1232 363 1276.5 352.5 c 128,-1,55
 1321 342 1321 342 1320 321 c 0,56,57
 1315 264 1315 264 1278 168 c 128,-1,58
 1241 72 1241 72 1217 36 c 1,59,60
 1170 29 1170 29 1129 17 c 0,61,62
 1015 -16 1015 -16 873 -24 c 1,63,-1
 804 -118 l 2,64,65
 795 -130 795 -130 795 -136 c 0,66,67
 795 -146 795 -146 823 -162 c 0,68,69
 947 -228 947 -228 947 -336 c 0,0,1
EndSplineSet
Substitution2: "'c2sc' Capitals to Small Capitals in Latin lookup 21-1" ccedilla.sc
Ligature2: "'ccmp' Glyph Composition Decomposition subtable" C uni0327
LCarets2: 1 0 
EndChar

StartChar: Eth
Encoding: 208 208 142
Width: 1567
GlyphClass: 2
Flags: W
LayerCount: 2
Fore
SplineSet
1487 726 m 3,0,1
 1487 388 1487 388 1287 189 c 0,2,3
 1089 -7 1089 -7 766 -7 c 3,4,5
 658 -7 658 -7 544.5 -3.5 c 128,-1,6
 431 0 431 0 340 0 c 3,7,8
 175 0 175 0 75 -7 c 1,9,10
 60 -7 60 -7 60 39.5 c 128,-1,11
 60 86 60 86 75 86 c 0,12,13
 237 86 237 86 237 202 c 2,14,-1
 237 594 l 2,15,16
 237 625 237 625 208 625 c 2,17,-1
 29 625 l 2,18,19
 14 625 14 625 14 671.5 c 128,-1,20
 14 718 14 718 29 718 c 2,21,-1
 208 718 l 2,22,23
 237 718 237 718 237 747 c 2,24,-1
 237 1156 l 2,25,26
 237 1265 237 1265 65 1265 c 0,27,28
 51 1265 51 1265 51 1311.5 c 128,-1,29
 51 1358 51 1358 65 1358 c 1,30,31
 208 1352 208 1352 353 1352 c 3,32,33
 414 1352 414 1352 514 1355 c 128,-1,34
 614 1358 614 1358 718 1358 c 3,35,36
 1021 1358 1021 1358 1228 1219 c 0,37,38
 1487 1045 1487 1045 1487 726 c 3,0,1
1215 716 m 3,39,40
 1215 893 1215 893 1116 1040 c 0,41,42
 952 1280 952 1280 636 1280 c 2,43,-1
 557 1280 l 2,44,45
 481 1280 481 1280 481 1201 c 2,46,-1
 481 747 l 2,47,48
 481 718 481 718 508 718 c 2,49,-1
 738 718 l 2,50,51
 751 718 751 718 751 671.5 c 128,-1,52
 751 625 751 625 738 625 c 2,53,-1
 508 625 l 2,54,55
 481 625 481 625 481 594 c 2,56,-1
 481 273 l 2,57,58
 481 123 481 123 568 87 c 0,59,60
 607 71 607 71 698 71 c 0,61,62
 911 71 911 71 1051 224 c 0,63,64
 1215 402 1215 402 1215 716 c 3,39,40
EndSplineSet
Substitution2: "'c2sc' Capitals to Small Capitals in Latin lookup 21-1" eth.sc
EndChar

StartChar: multiply
Encoding: 215 215 149
Width: 786
GlyphClass: 2
Flags: W
LayerCount: 2
Fore
SplineSet
778 98 m 1,0,-1
 641 -39 l 1,1,-1
 397 203 l 1,2,-1
 156 -39 l 1,3,-1
 18 98 l 1,4,-1
 260 342 l 1,5,-1
 18 584 l 1,6,-1
 156 721 l 1,7,-1
 397 479 l 1,8,-1
 641 721 l 1,9,-1
 778 584 l 1,10,-1
 535 342 l 1,11,-1
 778 98 l 1,0,-1
EndSplineSet
EndChar

StartChar: Oslash
Encoding: 216 216 150
Width: 1524
GlyphClass: 2
Flags: W
LayerCount: 2
Fore
SplineSet
288 -93 m 2,0,1
 283 -100 283 -100 274 -100 c 0,2,3
 249 -100 249 -100 213 -72 c 0,4,5
 173 -42 173 -42 173 -25 c 0,6,7
 173 -18 173 -18 175 -15 c 2,8,-1
 282 138 l 1,9,10
 55 329 55 329 55 667 c 0,11,12
 55 918 55 918 231 1141 c 1,13,14
 426 1385 426 1385 745 1385 c 0,15,16
 936 1385 936 1385 1088 1291 c 1,17,-1
 1183 1427 l 2,18,19
 1186 1431 1186 1431 1194 1431 c 0,20,21
 1224 1431 1224 1431 1267 1397 c 0,22,23
 1299 1371 1299 1371 1299 1358 c 0,24,25
 1299 1354 1299 1354 1297 1351 c 2,26,-1
 1196 1207 l 1,27,28
 1430 989 1430 989 1430 663 c 0,29,30
 1430 443 1430 443 1285 246 c 0,31,32
 1083 -27 1083 -27 741 -27 c 0,33,34
 552 -27 552 -27 395 60 c 1,35,-1
 288 -93 l 2,0,1
498 208 m 1,36,37
 619 67 619 67 755 67 c 0,38,39
 1020 67 1020 67 1113 346 c 0,40,41
 1157 476 1157 476 1157 649 c 0,42,43
 1157 863 1157 863 1070 1026 c 1,44,-1
 498 208 l 1,36,37
415 329 m 1,45,-1
 988 1148 l 1,46,47
 867 1297 867 1297 740 1297 c 0,48,49
 587 1298 587 1298 473 1167 c 0,50,51
 328 1001 328 1001 328 724 c 0,52,53
 328 494 328 494 415 329 c 1,45,-1
EndSplineSet
Substitution2: "'c2sc' Capitals to Small Capitals in Latin lookup 21-1" oslash.sc
EndChar

StartChar: Thorn
Encoding: 222 222 156
Width: 1225
GlyphClass: 2
Flags: W
LayerCount: 2
Fore
SplineSet
1135 728 m 0,0,1
 1135 513 1135 513 994 317 c 0,2,3
 862 133 862 133 659 43 c 0,4,5
 566 2 566 2 468 -13 c 0,6,7
 432 -20 432 -20 432 -51 c 2,8,-1
 432 -244 l 2,9,10
 432 -315 432 -315 290 -417 c 2,11,-1
 146 -516 l 2,12,13
 140 -520 140 -520 134 -520 c 3,14,15
 95 -520 95 -520 57 -459 c 0,16,17
 43 -436 43 -436 43 -420 c 3,18,19
 43 -411 43 -411 48 -407 c 0,20,21
 130 -336 130 -336 151 -310 c 0,22,23
 186 -265 186 -265 186 -208 c 2,24,-1
 186 1092 l 2,25,26
 186 1228 186 1228 27 1228 c 0,27,28
 12 1228 12 1228 12 1274.5 c 128,-1,29
 12 1321 12 1321 27 1321 c 0,30,31
 203 1321 203 1321 353 1381 c 0,32,33
 373 1389 373 1389 394 1389 c 0,34,35
 434 1389 434 1389 437 1354 c 2,36,-1
 430 1157 l 2,37,38
 430 1134 430 1134 447 1134 c 0,39,40
 458 1134 458 1134 466 1139 c 0,41,42
 482 1146 482 1146 603 1245 c 0,43,44
 705 1329 705 1329 789 1329 c 0,45,46
 832 1329 832 1329 866 1307 c 0,47,48
 1023 1185 1023 1185 1092 985 c 0,49,50
 1135 862 1135 862 1135 728 c 0,0,1
862 728 m 0,51,52
 862 1010 862 1010 709 1172 c 0,53,54
 691 1192 691 1192 680 1192 c 0,55,56
 667 1192 667 1192 658 1185 c 0,57,58
 651 1181 651 1181 596 1132 c 0,59,60
 524 1067 524 1067 452 1030 c 0,61,62
 430 1018 430 1018 430 984 c 2,63,-1
 430 118 l 2,64,65
 430 82 430 82 458 82 c 0,66,67
 465 82 465 82 474 84 c 0,68,69
 676 141 676 141 781 357 c 0,70,71
 862 524 862 524 862 728 c 0,51,52
EndSplineSet
Substitution2: "'ss19' Latin to Gothic transliteration subtable" u10338
Substitution2: "'c2sc' Capitals to Small Capitals in Latin lookup 21-1" thorn.sc
Substitution2: "'locl' Localized Forms in Icelandic-1" Thorn.nordic
Substitution2: "'ss01' Style Set 1 in Latin lookup 2" Thorn.nordic
EndChar

StartChar: germandbls
Encoding: 223 223 157
Width: 1153
GlyphClass: 2
Flags: W
LayerCount: 2
Fore
SplineSet
1124 258 m 0,0,1
 1124 114 1124 114 1016 34 c 0,2,3
 936 -25 936 -25 813 -25 c 0,4,5
 704 -25 704 -25 618 37 c 1,6,7
 590 108 590 108 590 217 c 0,8,9
 590 236 590 236 625 236 c 0,10,11
 666 236 666 236 666 219 c 0,12,13
 666 171 666 171 723 113 c 0,14,15
 779 57 779 57 838 57 c 0,16,17
 932 57 932 57 932 174 c 0,18,19
 932 304 932 304 795 381 c 0,20,21
 559 513 559 513 559 674 c 0,22,23
 559 802 559 802 722 917 c 0,24,25
 842 1002 842 1002 842 1139 c 0,26,27
 842 1228 842 1228 794 1303 c 0,28,29
 738 1391 738 1391 647 1391 c 0,30,31
 516 1391 516 1391 442 1201 c 0,32,33
 393 1075 393 1075 393 893 c 2,34,-1
 393 143 l 2,35,36
 393 68 393 68 526 68 c 0,37,38
 542 68 542 68 542 31 c 0,39,40
 542 -8 542 -8 526 -8 c 0,41,42
 446 0 446 0 287 0 c 0,43,44
 139 0 139 0 55 -8 c 0,45,46
 40 -8 40 -8 40 30 c 128,-1,47
 40 68 40 68 55 68 c 0,48,49
 164 68 164 68 164 143 c 2,50,-1
 164 670 l 2,51,52
 164 705 164 705 133 705 c 2,53,-1
 72 705 l 2,54,55
 56 705 56 705 56 741 c 0,56,57
 56 778 56 778 72 778 c 0,58,59
 164 778 164 778 164 891 c 0,60,61
 164 1167 164 1167 309 1321 c 0,62,63
 465 1487 465 1487 674 1487 c 0,64,65
 861 1487 861 1487 971 1382 c 0,66,67
 1059 1297 1059 1297 1059 1178 c 0,68,69
 1059 1046 1059 1046 862 908 c 0,70,71
 748 828 748 828 748 735 c 0,72,73
 748 646 748 646 885 573 c 0,74,75
 1026 498 1026 498 1085 400 c 0,76,77
 1124 336 1124 336 1124 258 c 0,0,1
EndSplineSet
Substitution2: "'smcp' Lowercase to Small Capitals in Latin lookup 20-1" germandbls.sc
EndChar

StartChar: ae
Encoding: 230 230 164
Width: 1239
GlyphClass: 2
Flags: W
AnchorPoint: "Anchor-0" 632 900 basechar 0
LayerCount: 2
Fore
SplineSet
1176 154 m 0,0,1
 1028 -23 1028 -23 815 -23 c 0,2,3
 711 -23 711 -23 619 46 c 0,4,5
 591 67 591 67 569 92 c 0,6,7
 552 114 552 114 543 114 c 0,8,9
 535 114 535 114 510 92 c 0,10,11
 450 25 450 25 393 5 c 0,12,13
 352 -10 352 -10 297 -10 c 0,14,15
 146 -10 146 -10 91 77 c 0,16,17
 68 114 68 114 68 162 c 0,18,19
 68 315 68 315 227 381 c 2,20,-1
 434 471 l 2,21,22
 469 486 469 486 469 530 c 2,23,-1
 469 678 l 2,24,25
 469 788 469 788 371 788 c 0,26,27
 306 788 306 788 260 727 c 0,28,29
 251 715 251 715 251 678 c 2,30,-1
 252 637 l 2,31,32
 252 562 252 562 206 527 c 0,33,34
 181 508 181 508 147 508 c 0,35,36
 59 508 59 508 59 588 c 0,37,38
 59 653 59 653 114 728 c 0,39,40
 144 768 144 768 176 788 c 0,41,42
 314 870 314 870 426 870 c 0,43,44
 530 870 530 870 603 814 c 0,45,46
 629 789 629 789 641 789 c 0,47,48
 654 789 654 789 676 809 c 0,49,50
 753 870 753 870 856 870 c 0,51,52
 1039 870 1039 870 1132 782 c 0,53,54
 1171 742 1171 742 1171 717 c 0,55,56
 1171 690 1171 690 1114 666 c 2,57,-1
 727 504 l 2,58,59
 686 488 686 488 686 424 c 0,60,61
 686 335 686 335 739 250 c 0,62,63
 813 133 813 133 934 133 c 0,64,65
 1013 133 1013 133 1093 181 c 0,66,67
 1108 190 1108 190 1116 199 c 0,68,69
 1130 212 1130 212 1158 190 c 0,70,71
 1185 164 1185 164 1176 154 c 0,0,1
975 713 m 0,72,73
 975 742 975 742 936 767 c 0,74,75
 904 788 904 788 866 788 c 0,76,77
 806 788 806 788 747 712 c 0,78,79
 702 653 702 653 700 606 c 0,80,81
 700 590 700 590 715 590 c 1,82,-1
 958 688 l 2,83,84
 975 694 975 694 975 713 c 0,72,73
494 225 m 0,85,86
 479 263 479 263 469 367 c 0,87,88
 467 389 467 389 455 389 c 0,89,90
 447 389 447 389 436 383 c 0,91,92
 297 306 297 306 297 190 c 0,93,94
 297 129 297 129 341 103 c 0,95,96
 360 92 360 92 381 92 c 0,97,98
 426 92 426 92 479 160 c 0,99,100
 498 184 498 184 498 204 c 0,101,102
 498 214 498 214 494 225 c 0,85,86
EndSplineSet
Substitution2: "'smcp' Lowercase to Small Capitals in Latin lookup 20-1" ae.sc
EndChar

StartChar: ccedilla
Encoding: 231 231 165
Width: 880
GlyphClass: 2
Flags: W
LayerCount: 2
Fore
SplineSet
576 -338 m 0,0,1
 576 -424 576 -424 488 -480 c 0,2,3
 414 -528 414 -528 316 -528 c 0,4,5
 192 -528 192 -528 165 -467 c 0,6,7
 159 -454 159 -454 159 -438 c 0,8,9
 159 -396 159 -396 195 -377 c 0,10,11
 208 -370 208 -370 224 -370 c 0,12,13
 255 -370 255 -370 299 -409 c 0,14,15
 342 -446 342 -446 364 -446 c 0,16,17
 417 -446 417 -446 417 -395 c 0,18,19
 417 -318 417 -318 275 -253 c 0,20,21
 255 -244 255 -244 255 -236 c 0,22,23
 255 -231 255 -231 261 -223 c 2,24,-1
 399 -19 l 1,25,26
 294 -2 294 -2 206 76 c 0,27,28
 66 199 66 199 66 387 c 0,29,30
 66 557 66 557 172 694 c 0,31,32
 308 870 308 870 522 870 c 0,33,34
 657 870 657 870 745 825 c 0,35,36
 784 805 784 805 799 780 c 1,37,38
 805 764 805 764 805 740 c 0,39,40
 805 688 805 688 774 655 c 1,41,42
 739 620 739 620 709 620 c 0,43,44
 672 620 672 620 653 649 c 1,45,-1
 614 715 l 1,46,47
 575 774 575 774 502 774 c 0,48,49
 421 774 421 774 361 681 c 0,50,51
 295 579 295 579 295 436 c 0,52,53
 295 303 295 303 383 209 c 0,54,55
 462 125 462 125 563 125 c 0,56,57
 672 125 672 125 750 180 c 0,58,59
 767 192 767 192 796 150 c 1,60,61
 822 107 822 107 805 96 c 2,62,-1
 723 43 l 1,63,64
 626 -12 626 -12 506 -21 c 1,65,-1
 433 -120 l 2,66,67
 424 -132 424 -132 424 -138 c 0,68,69
 424 -148 424 -148 452 -164 c 0,70,71
 576 -230 576 -230 576 -338 c 0,0,1
EndSplineSet
Substitution2: "'smcp' Lowercase to Small Capitals in Latin lookup 20-1" ccedilla.sc
LCarets2: 1 0 
EndChar

StartChar: eth
Encoding: 240 240 174
Width: 1075
GlyphClass: 2
Flags: W
AnchorPoint: "Anchor-0" 468 1545 basechar 0
LayerCount: 2
Fore
SplineSet
745 444 m 0,0,1
 745 607 745 607 672 711 c 0,2,3
 616 793 616 793 543 793 c 0,4,5
 465 793 465 793 400 709 c 0,6,7
 319 603 319 603 319 444 c 0,8,9
 319 264 319 264 400 150 c 0,10,11
 462 61 462 61 543 61 c 0,12,13
 637 61 637 61 694 182 c 0,14,15
 745 289 745 289 745 444 c 0,0,1
873 101 m 0,16,17
 751 -23 751 -23 542 -23 c 0,18,19
 335 -23 335 -23 203 101 c 0,20,21
 66 231 66 231 66 449 c 0,22,23
 66 599 66 599 171 716 c 0,24,25
 308 870 308 870 532 870 c 1,26,27
 456 946 456 946 332 1026 c 0,28,29
 315 1037 315 1037 302 1037 c 0,30,31
 287 1037 287 1037 268 1022 c 2,32,-1
 68 864 l 2,33,34
 55 855 55 855 2 936 c 0,35,36
 -39 1001 -39 1001 -40 1014 c 0,37,38
 -40 1022 -40 1022 -32 1018 c 0,39,40
 32 985 32 985 63 985 c 0,41,42
 85 985 85 985 100 997 c 2,43,-1
 188 1067 l 2,44,45
 206 1081 206 1081 206 1089 c 0,46,47
 206 1098 206 1098 188 1108 c 0,48,49
 58 1176 58 1176 8 1196 c 0,50,51
 -10 1203 -10 1203 14 1256 c 0,52,53
 34 1300 34 1300 53 1292 c 0,54,55
 204 1230 204 1230 283 1188 c 0,56,57
 303 1177 303 1177 315 1177 c 0,58,59
 330 1177 330 1177 354 1196 c 2,60,-1
 649 1425 l 2,61,62
 663 1435 663 1435 718 1364 c 0,63,64
 763 1308 763 1308 772 1293 c 1,65,66
 773 1284 773 1284 766 1284 c 2,67,-1
 649 1309 l 2,68,69
 629 1309 629 1309 618 1300 c 2,70,-1
 432 1153 l 2,71,72
 414 1139 414 1139 414 1130 c 0,73,74
 414 1119 414 1119 436 1106 c 0,75,76
 770 910 770 910 893 733 c 0,77,78
 999 580 999 580 999 451 c 0,79,80
 999 230 999 230 873 101 c 0,16,17
EndSplineSet
Substitution2: "'smcp' Lowercase to Small Capitals in Latin lookup 20-1" eth.sc
Substitution2: "Single Substitution dot strip-1" eth.alt
Substitution2: "'locl' Localized Forms in Icelandic-1" eth.nordic
Substitution2: "'ss01' Style Set 1 in Latin lookup 2" eth.nordic
EndChar

StartChar: divide
Encoding: 247 247 181
Width: 1050
GlyphClass: 2
Flags: W
LayerCount: 2
Fore
SplineSet
659 786 m 0,0,1
 659 715 659 715 599 681 c 0,2,3
 568 664 568 664 530 664 c 0,4,5
 465 664 465 664 425 706 c 0,6,7
 391 741 391 741 391 799 c 0,8,9
 391 849 391 849 428 885 c 0,10,11
 465 922 465 922 530 922 c 128,-1,12
 595 922 595 922 633 870 c 0,13,14
 659 834 659 834 659 786 c 0,0,1
971 383 m 1,15,-1
 82 383 l 1,16,-1
 82 541 l 1,17,-1
 971 541 l 1,18,-1
 971 383 l 1,15,-1
659 125 m 0,19,20
 659 52 659 52 597 18 c 2,21,-1
 569 7 l 2,22,23
 550 2 550 2 530 2 c 0,24,25
 466 2 466 2 426 43 c 0,26,27
 391 79 391 79 391 137 c 0,28,29
 391 187 391 187 428 223 c 0,30,31
 465 260 465 260 530 260 c 128,-1,32
 595 260 595 260 634 208 c 0,33,34
 659 173 659 173 659 125 c 0,19,20
EndSplineSet
EndChar

StartChar: oslash
Encoding: 248 248 182
Width: 1032
GlyphClass: 2
Flags: W
LayerCount: 2
Fore
SplineSet
221 -88 m 2,0,1
 216 -95 216 -95 207 -95 c 0,2,3
 194 -95 194 -95 169 -76 c 1,4,5
 137 -49 137 -49 147 -35 c 2,6,-1
 228 78 l 1,7,8
 216 88 216 88 205 99 c 0,9,10
 66 230 66 230 66 424 c 0,11,12
 66 594 66 594 176 720 c 0,13,14
 308 870 308 870 516 870 c 0,15,16
 651 870 651 870 753 810 c 1,17,-1
 831 918 l 2,18,19
 837 926 837 926 847 926 c 0,20,21
 860 926 860 926 882 912 c 0,22,23
 923 886 923 886 907 864 c 2,24,-1
 828 754 l 1,25,26
 849 735 849 735 867 712 c 0,27,28
 969 590 969 590 969 426 c 0,29,30
 969 217 969 217 846 95 c 0,31,32
 727 -23 727 -23 518 -23 c 0,33,34
 399 -23 399 -23 304 27 c 1,35,-1
 221 -88 l 2,0,1
342 237 m 1,36,-1
 662 682 l 1,37,38
 654 698 654 698 644 712 c 0,39,40
 591 793 591 793 518 793 c 0,41,42
 436 793 436 793 379 689 c 0,43,44
 319 580 319 580 319 420 c 0,45,46
 319 315 319 315 342 237 c 1,36,-1
386 141 m 1,47,48
 389 137 389 137 392 133 c 0,49,50
 444 61 444 61 516 61 c 0,51,52
 610 61 610 61 666 175 c 0,53,54
 715 274 715 274 715 420 c 0,55,56
 715 506 715 506 699 576 c 1,57,-1
 386 141 l 1,47,48
EndSplineSet
Substitution2: "'smcp' Lowercase to Small Capitals in Latin lookup 20-1" oslash.sc
EndChar

StartChar: thorn
Encoding: 254 254 188
Width: 1046
GlyphClass: 2
Flags: W
AnchorPoint: "Anchor-0" 484 1545 basechar 0
LayerCount: 2
Fore
SplineSet
977 508 m 0,0,1
 977 244 977 244 736 92 c 0,2,3
 631 26 631 26 391 -12 c 0,4,5
 367 -16 367 -16 367 -45 c 2,6,-1
 367 -393 l 2,7,8
 367 -473 367 -473 285 -500 c 2,9,-1
 111 -557 l 2,10,11
 82 -564 82 -564 57 -518 c 0,12,13
 39 -480 39 -480 61 -465 c 2,14,-1
 123 -422 l 2,15,16
 137 -414 137 -414 137 -391 c 2,17,-1
 137 1153 l 2,18,19
 137 1286 137 1286 45 1286 c 0,20,21
 30 1286 30 1286 30 1323 c 128,-1,22
 30 1360 30 1360 45 1360 c 0,23,24
 89 1360 89 1360 232 1428 c 0,25,26
 297 1459 297 1459 317 1477 c 0,27,28
 332 1487 332 1487 346 1487 c 0,29,30
 375 1487 375 1487 375 1458 c 0,31,32
 367 1327 367 1327 367 1229 c 2,33,-1
 367 825 l 2,34,35
 367 802 367 802 381 802 c 0,36,37
 389 802 389 802 399 811 c 0,38,39
 469 870 469 870 588 870 c 0,40,41
 748 870 748 870 852 792 c 0,42,43
 977 698 977 698 977 508 c 0,0,1
723 457 m 0,44,45
 723 778 723 778 545 778 c 0,46,47
 440 778 440 778 379 688 c 0,48,49
 367 664 367 664 367 625 c 2,50,-1
 367 100 l 2,51,52
 367 81 367 81 386 81 c 0,53,54
 390 81 390 81 395 82 c 0,55,56
 527 98 527 98 606 194 c 0,57,58
 723 337 723 337 723 457 c 0,44,45
EndSplineSet
Substitution2: "'ss19' Latin to Gothic transliteration subtable" u10338
Substitution2: "'smcp' Lowercase to Small Capitals in Latin lookup 20-1" thorn.sc
Substitution2: "'locl' Localized Forms in Icelandic-1" thorn.nordic
Substitution2: "'ss01' Style Set 1 in Latin lookup 2" thorn.nordic
EndChar

StartChar: Aogonek
Encoding: 260 260 194
Width: 1401
GlyphClass: 2
Flags: W
LayerCount: 2
Fore
SplineSet
649 1068 m 2,0,1
 644 1084 644 1084 633.5 1084 c 128,-1,2
 623 1084 623 1084 617 1068 c 2,3,-1
 458 634 l 2,4,5
 455 626 455 626 454 618 c 0,6,7
 454 607 454 607 475 607 c 2,8,-1
 768 607 l 2,9,10
 796 607 796 607 796 629 c 0,11,12
 796 635 796 635 793 644 c 2,13,-1
 649 1068 l 2,0,1
1196 202 m 2,14,15
 1237 86 1237 86 1398 86 c 0,16,17
 1413 86 1413 86 1413 39.5 c 128,-1,18
 1413 -7 1413 -7 1398 -7 c 1,19,20
 1300 -1 1300 -1 1175 -0 c 1,21,22
 1052 -142 1052 -142 1052 -246 c 0,23,24
 1052 -367 1052 -367 1175 -367 c 0,25,26
 1236 -367 1236 -367 1278 -336 c 1,27,28
 1298 -343 1298 -343 1298 -375 c 1,29,30
 1223 -488 1223 -488 1081 -488 c 0,31,32
 876 -488 876 -488 876 -304 c 0,33,34
 876 -162 876 -162 1057 -0 c 1,35,36
 951 -1 951 -1 858 -7 c 1,37,38
 843 -7 843 -7 843 39.5 c 128,-1,39
 843 86 843 86 858 86 c 0,40,41
 954 86 954 86 954 151 c 0,42,43
 954 172 954 172 944 202 c 2,44,-1
 844 499 l 2,45,46
 837 521 837 521 810 523 c 1,47,-1
 437 523 l 2,48,49
 416 523 416 523 405 494 c 2,50,-1
 296 201 l 2,51,52
 287 177 287 177 287 159 c 0,53,54
 287 86 287 86 434 86 c 0,55,56
 447 86 447 86 447 39.5 c 128,-1,57
 447 -7 447 -7 434 -7 c 1,58,59
 351 0 351 0 201 0 c 256,60,61
 51 0 51 0 -27 -7 c 1,62,63
 -41 -7 -41 -7 -41 39.5 c 128,-1,64
 -41 86 -41 86 -27 86 c 0,65,66
 125 86 125 86 175 217 c 2,67,-1
 545 1185 l 1,68,69
 558 1215 558 1215 558 1223 c 128,-1,70
 558 1231 558 1231 543.5 1245 c 128,-1,71
 529 1259 529 1259 529 1268 c 0,72,73
 529 1283 529 1283 562 1294 c 128,-1,74
 595 1305 595 1305 665.5 1347 c 128,-1,75
 736 1389 736 1389 755 1389 c 0,76,77
 788 1389 788 1389 799 1341.5 c 128,-1,78
 810 1294 810 1294 852 1177 c 2,79,-1
 1196 202 l 2,14,15
EndSplineSet
Ligature2: "'ccmp' Glyph Composition Decomposition subtable" A uni0328
LCarets2: 1 0 
EndChar

StartChar: aogonek
Encoding: 261 261 195
Width: 860
GlyphClass: 2
Flags: W
LayerCount: 2
Fore
SplineSet
461 193 m 2,0,-1
 461 375 l 2,1,2
 461 398 461 398 447 398 c 0,3,4
 440 398 440 398 434 395 c 0,5,6
 293 324 293 324 293 205 c 0,7,8
 293 88 293 88 365 88 c 0,9,10
 461 88 461 88 461 193 c 2,0,-1
580 0 m 1,11,12
 545 20 545 20 514 57 c 1,13,14
 500 76 500 76 493 76 c 0,15,16
 480 76 480 76 465 59 c 1,17,18
 383 -23 383 -23 266 -23 c 0,19,20
 141 -23 141 -23 89 62 c 0,21,22
 63 105 63 105 63 162 c 0,23,24
 63 283 63 283 275 393 c 1,25,-1
 426 465 l 1,26,27
 461 485 461 485 461 512 c 2,28,-1
 461 702 l 2,29,30
 461 774 461 774 356 774 c 0,31,32
 277 774 277 774 240 723 c 0,33,34
 231 709 231 709 230 648 c 0,35,36
 230 613 230 613 225 596 c 0,37,38
 200 508 200 508 133 508 c 0,39,40
 43 508 43 508 43 586 c 0,41,42
 43 653 43 653 99 730 c 0,43,44
 130 774 130 774 164 795 c 0,45,46
 284 870 284 870 428 870 c 0,47,48
 541 870 541 870 623 814 c 0,49,50
 688 770 688 770 690 707 c 1,51,-1
 690 199 l 2,52,53
 690 85 690 85 757 85 c 1,54,55
 787 82 787 82 829 121 c 0,56,57
 837 129 837 129 857 112 c 1,58,59
 871 98 871 98 866 88 c 0,60,61
 808 -25 808 -25 677 -25 c 1,62,63
 574 -152 574 -152 574 -246 c 0,64,65
 574 -367 574 -367 697 -367 c 0,66,67
 758 -367 758 -367 800 -336 c 1,68,69
 820 -343 820 -343 820 -375 c 1,70,71
 745 -488 745 -488 603 -488 c 0,72,73
 398 -488 398 -488 398 -304 c 0,74,75
 398 -162 398 -162 580 0 c 1,11,12
EndSplineSet
Ligature2: "'ccmp' Glyph Composition Decomposition subtable" a uni0328
LCarets2: 1 0 
EndChar

StartChar: dcroat
Encoding: 273 273 207
Width: 1036
GlyphClass: 2
Flags: W
LayerCount: 2
Fore
SplineSet
903 1287 m 1,0,-1
 903 1200 l 2,1,2
 903 1163 903 1163 940 1163 c 2,3,-1
 1073 1163 l 2,4,5
 1089 1163 1089 1163 1089 1111 c 128,-1,6
 1089 1059 1089 1059 1073 1059 c 2,7,-1
 940 1059 l 2,8,9
 903 1059 903 1059 903 1022 c 2,10,-1
 903 256 l 2,11,12
 903 166 903 166 913 139 c 0,13,14
 927 99 927 99 966 99 c 0,15,16
 979 99 979 99 999 104 c 0,17,18
 1017 108 1017 108 1026 72 c 0,19,20
 1034 36 1034 36 1022 31 c 0,21,22
 953 17 953 17 866 -4 c 0,23,24
 763 -28 763 -28 735 -35 c 0,25,26
 728 -37 728 -37 723 -35 c 0,27,28
 713 -31 713 -31 713 10 c 2,29,-1
 713 39 l 2,30,31
 713 61 713 61 702 61 c 0,32,33
 693 61 693 61 674 47 c 0,34,35
 580 -23 580 -23 479 -23 c 0,36,37
 248 -23 248 -23 139 146 c 0,38,39
 66 259 66 259 66 418 c 0,40,41
 66 595 66 595 187 720 c 0,42,43
 330 870 330 870 567 870 c 0,44,45
 612 869 612 869 666 865 c 1,46,47
 674 867 674 867 674 889 c 2,48,-1
 674 1022 l 2,49,50
 674 1059 674 1059 637 1059 c 2,51,-1
 481 1059 l 2,52,53
 466 1059 466 1059 466 1111 c 128,-1,54
 466 1163 466 1163 481 1163 c 2,55,-1
 637 1163 l 2,56,57
 673 1163 673 1163 673 1179 c 0,58,59
 663 1286 663 1286 582 1286 c 0,60,61
 566 1286 566 1286 566 1323 c 128,-1,62
 566 1360 566 1360 582 1360 c 0,63,64
 632 1360 632 1360 767 1427 c 0,65,66
 832 1459 832 1459 852 1477 c 0,67,68
 865 1487 865 1487 879 1487 c 0,69,70
 909 1487 909 1487 909 1454 c 2,71,-1
 903 1287 l 1,0,-1
674 141 m 2,72,-1
 674 694 l 2,73,74
 674 738 674 738 670 746 c 0,75,76
 665 756 665 756 653 764 c 0,77,78
 606 793 606 793 541 793 c 0,79,80
 412 793 412 793 344 662 c 0,81,82
 295 568 295 568 295 444 c 0,83,84
 295 263 295 263 375 151 c 0,85,86
 440 61 440 61 530 61 c 0,87,88
 616 61 616 61 660 113 c 0,89,90
 674 130 674 130 674 141 c 2,72,-1
EndSplineSet
EndChar

StartChar: Eogonek
Encoding: 280 280 214
Width: 1250
GlyphClass: 2
Flags: W
LayerCount: 2
Fore
SplineSet
237 202 m 2,0,-1
 237 1156 l 2,1,2
 237 1265 237 1265 65 1265 c 0,3,4
 51 1265 51 1265 51 1311.5 c 128,-1,5
 51 1358 51 1358 65 1358 c 1,6,7
 208 1352 208 1352 364 1352 c 256,8,9
 520 1352 520 1352 735 1355 c 128,-1,10
 950 1358 950 1358 1072 1358 c 0,11,12
 1129 1358 1129 1358 1129 1307 c 2,13,-1
 1129 1001 l 2,14,15
 1129 984 1129 984 1078.5 984 c 128,-1,16
 1028 984 1028 984 1028 1001 c 0,17,18
 1028 1131 1028 1131 929 1206 c 0,19,20
 868 1253 868 1253 804 1255 c 2,21,-1
 508 1265 l 2,22,23
 481 1266 481 1266 481 1225 c 2,24,-1
 481 716 l 2,25,26
 481 687 481 687 510 687 c 2,27,-1
 645 687 l 2,28,29
 768 687 768 687 768 778 c 2,30,-1
 768 877 l 2,31,32
 768 891 768 891 820.5 891 c 128,-1,33
 873 891 873 891 873 877 c 1,34,35
 866 810 866 810 866 646 c 128,-1,36
 866 482 866 482 873 419 c 1,37,38
 873 404 873 404 820.5 404 c 128,-1,39
 768 404 768 404 768 419 c 2,40,-1
 768 505 l 2,41,42
 768 594 768 594 645 594 c 2,43,-1
 510 594 l 2,44,45
 481 594 481 594 481 563 c 2,46,-1
 481 222 l 2,47,48
 481 145 481 145 556 106 c 0,49,50
 595 86 595 86 637 86 c 2,51,-1
 860 91 l 1,52,53
 1017 93 1017 93 1065 228 c 0,54,55
 1083 278 1083 278 1083 344 c 0,56,57
 1083 361 1083 361 1134 361 c 128,-1,58
 1185 361 1185 361 1185 344 c 2,59,-1
 1185 57 l 2,60,61
 1185 -7 1185 -7 1068 -7 c 0,62,63
 1034 -7 1034 -7 1001 -7 c 1,64,65
 883 -145 883 -145 883 -246 c 0,66,67
 883 -367 883 -367 1006 -367 c 0,68,69
 1067 -367 1067 -367 1109 -336 c 1,70,71
 1129 -343 1129 -343 1129 -375 c 1,72,73
 1054 -488 1054 -488 912 -488 c 0,74,75
 707 -488 707 -488 707 -304 c 0,76,77
 707 -164 707 -164 882 -6 c 1,78,79
 794 -6 794 -6 708 -4 c 0,80,81
 534 0 534 0 372 0 c 256,82,83
 210 0 210 0 75 -7 c 1,84,85
 60 -7 60 -7 60 39.5 c 128,-1,86
 60 86 60 86 75 86 c 0,87,88
 237 86 237 86 237 202 c 2,0,-1
EndSplineSet
Ligature2: "'ccmp' Glyph Composition Decomposition subtable" E uni0328
LCarets2: 1 0 
EndChar

StartChar: eogonek
Encoding: 281 281 215
Width: 876
GlyphClass: 2
Flags: W
LayerCount: 2
Fore
SplineSet
586 651 m 0,0,1
 586 709 586 709 545 750 c 128,-1,2
 504 791 504 791 463 791 c 0,3,4
 400 791 400 791 354.5 752 c 128,-1,5
 309 713 309 713 309 653 c 0,6,7
 309 627 309 627 346 627 c 2,8,-1
 549 627 l 2,9,10
 586 627 586 627 586 651 c 0,0,1
809 614 m 0,11,12
 809 537 809 537 719 537 c 2,13,-1
 334 537 l 2,14,15
 297 537 297 537 297 510 c 0,16,17
 297 400 297 400 323 314 c 128,-1,18
 349 228 349 228 410 175.5 c 128,-1,19
 471 123 471 123 561 123 c 0,20,21
 642 123 642 123 727 178 c 1,22,23
 747 189 747 189 775.5 151.5 c 128,-1,24
 804 114 804 114 791 106 c 0,25,26
 733 70 733 70 681.5 17 c 128,-1,27
 630 -36 630 -36 586 -109 c 128,-1,28
 542 -182 542 -182 542 -246 c 0,29,30
 542 -367 542 -367 665 -367 c 0,31,32
 726 -367 726 -367 768 -336 c 1,33,34
 788 -343 788 -343 788 -375 c 1,35,36
 713 -488 713 -488 571 -488 c 0,37,38
 483 -488 483 -488 424.5 -441.5 c 128,-1,39
 366 -395 366 -395 366 -304 c 0,40,41
 366 -240 366 -240 412 -168 c 128,-1,42
 458 -96 458 -96 532 -37 c 0,43,44
 560 -15 560 -15 523 -19 c 0,45,46
 492 -23 492 -23 455 -23 c 0,47,48
 345 -23 345 -23 256.5 46.5 c 128,-1,49
 168 116 168 116 118 215 c 128,-1,50
 68 314 68 314 68 436 c 0,51,52
 68 608 68 608 186 739 c 0,53,54
 302 870 302 870 458 870 c 0,55,56
 562 870 562 870 642 830 c 128,-1,57
 722 790 722 790 765.5 721 c 128,-1,58
 809 652 809 652 809 614 c 0,11,12
EndSplineSet
Ligature2: "'ccmp' Glyph Composition Decomposition subtable" e uni0328
Substitution2: "'ss15' Ogonek centered on e-1" eogonek.alt
LCarets2: 1 0 
EndChar

StartChar: Gcommaaccent
Encoding: 290 290 224
Width: 1443
GlyphClass: 2
Flags: W
LayerCount: 2
Fore
SplineSet
947 -336 m 0,0,1
 947 -422 947 -422 859 -478 c 0,2,3
 785 -526 785 -526 687 -526 c 0,4,5
 563 -526 563 -526 536 -465 c 0,6,7
 530 -452 530 -452 530 -436 c 0,8,9
 530 -394 530 -394 566 -375 c 0,10,11
 579 -368 579 -368 595 -368 c 0,12,13
 626 -368 626 -368 670 -407 c 0,14,15
 713 -444 713 -444 735 -444 c 0,16,17
 788 -444 788 -444 788 -393 c 0,18,19
 788 -316 788 -316 646 -251 c 0,20,21
 626 -242 626 -242 626 -234 c 0,22,23
 626 -229 626 -229 632 -221 c 2,24,-1
 763 -27 l 1,25,26
 505 -28 505 -28 308 126 c 0,27,28
 55 324 55 324 55 647 c 0,29,30
 55 913 55 913 207 1110 c 0,31,32
 419 1385 419 1385 795 1385 c 0,33,34
 926 1385 926 1385 1112 1347 c 1,35,36
 1182 1329 1182 1329 1240 1329 c 1,37,38
 1268 1270 1268 1270 1278 1054 c 1,39,-1
 1280 1003 l 2,40,41
 1280 985 1280 985 1237 981 c 1,42,43
 1189 979 1189 979 1186 995 c 1,44,45
 1167 1204 1167 1204 975 1270 c 0,46,47
 896 1297 896 1297 789 1297 c 0,48,49
 582 1297 582 1297 455 1129 c 128,-1,50
 328 961 328 961 328 705 c 0,51,52
 328 381 328 381 499 202 c 0,53,54
 628 67 628 67 785 67 c 0,55,56
 896 67 896 67 977 93 c 1,57,58
 1039 117 1039 117 1039 159 c 2,59,-1
 1039 401 l 2,60,61
 1039 478 1039 478 925 478 c 2,62,-1
 846 478 l 2,63,64
 832 478 832 478 832 523.5 c 128,-1,65
 832 569 832 569 846 569 c 1,66,67
 906 563 906 563 1163 563 c 0,68,69
 1331 563 1331 563 1391 569 c 1,70,71
 1404 569 1404 569 1404 523.5 c 128,-1,72
 1404 478 1404 478 1391 478 c 0,73,74
 1283 478 1283 478 1283 401 c 2,75,-1
 1283 160 l 2,76,77
 1283 115 1283 115 1325 115 c 0,78,79
 1340 115 1340 115 1340 76 c 0,80,81
 1340 35 1340 35 1325 35 c 0,82,83
 1275 35 1275 35 1129 11 c 0,84,85
 982 -14 982 -14 874 -22 c 1,86,-1
 804 -118 l 2,87,88
 795 -130 795 -130 795 -136 c 0,89,90
 795 -146 795 -146 823 -162 c 0,91,92
 947 -228 947 -228 947 -336 c 0,0,1
EndSplineSet
Ligature2: "'ccmp' Glyph Composition Decomposition subtable" G uni0327
LCarets2: 1 0 
EndChar

StartChar: hbar
Encoding: 295 295 228
Width: 1093
GlyphClass: 2
Flags: W
LayerCount: 2
Fore
SplineSet
164 137 m 2,0,-1
 164 1084 l 1,1,-1
 -20 1084 l 2,2,3
 -36 1084 -36 1084 -36 1129 c 128,-1,4
 -36 1174 -36 1174 -20 1174 c 2,5,-1
 164 1174 l 1,6,7
 159 1286 159 1286 72 1286 c 0,8,9
 56 1286 56 1286 56 1323 c 128,-1,10
 56 1360 56 1360 72 1360 c 0,11,12
 121 1360 121 1360 257 1427 c 0,13,14
 313 1454 313 1454 342 1477 c 0,15,16
 355 1487 355 1487 371 1487 c 0,17,18
 401 1487 401 1487 399 1460 c 0,19,20
 393 1385 393 1385 393 1286 c 2,21,-1
 393 1174 l 1,22,-1
 569 1174 l 2,23,24
 585 1174 585 1174 585 1129 c 128,-1,25
 585 1084 585 1084 569 1084 c 2,26,-1
 393 1084 l 1,27,-1
 393 821 l 2,28,29
 393 798 393 798 404 798 c 0,30,31
 412 798 412 798 426 809 c 0,32,33
 508 870 508 870 637 870 c 0,34,35
 743 870 743 870 812.5 826.5 c 128,-1,36
 882 783 882 783 922.5 709 c 128,-1,37
 963 635 963 635 963 557 c 2,38,-1
 963 143 l 2,39,40
 963 68 963 68 1079 68 c 0,41,42
 1095 68 1095 68 1095 30 c 128,-1,43
 1095 -8 1095 -8 1079 -8 c 1,44,45
 999 0 999 0 854 0 c 256,46,47
 709 0 709 0 629 -8 c 1,48,49
 613 -8 613 -8 613 30 c 128,-1,50
 613 68 613 68 629 68 c 0,51,52
 733 68 733 68 733 132 c 2,53,-1
 733 555 l 2,54,55
 733 630 733 630 686 696 c 128,-1,56
 639 762 639 762 565 762 c 0,57,58
 475 762 475 762 422 699 c 0,59,60
 393 664 393 664 393 627 c 2,61,-1
 393 143 l 2,62,63
 393 68 393 68 496 68 c 0,64,65
 511 68 511 68 511 30 c 128,-1,66
 511 -8 511 -8 496 -8 c 1,67,68
 412 0 412 0 274 0 c 256,69,70
 136 0 136 0 51 -8 c 1,71,72
 36 -8 36 -8 36 29.5 c 128,-1,73
 36 67 36 67 51 68 c 0,74,75
 164 68 164 68 164 137 c 2,0,-1
EndSplineSet
EndChar

StartChar: Iogonek
Encoding: 302 302 235
Width: 734
GlyphClass: 2
Flags: W
LayerCount: 2
Fore
SplineSet
481 202 m 2,0,1
 481 86 481 86 640 86 c 0,2,3
 654 86 654 86 654 39.5 c 128,-1,4
 654 -7 654 -7 640 -7 c 1,5,6
 529 -1 529 -1 408 -0 c 1,7,8
 285 -142 285 -142 285 -246 c 0,9,10
 285 -367 285 -367 408 -367 c 0,11,12
 469 -367 469 -367 511 -336 c 1,13,14
 531 -343 531 -343 531 -375 c 1,15,16
 456 -488 456 -488 314 -488 c 0,17,18
 109 -488 109 -488 109 -304 c 0,19,20
 109 -162 109 -162 290 -0 c 1,21,22
 172 -1 172 -1 75 -7 c 1,23,24
 60 -7 60 -7 60 39.5 c 128,-1,25
 60 86 60 86 75 86 c 0,26,27
 237 86 237 86 237 202 c 2,28,-1
 237 1154 l 2,29,30
 237 1270 237 1270 76 1270 c 0,31,32
 62 1270 62 1270 62 1316.5 c 128,-1,33
 62 1363 62 1363 76 1363 c 1,34,35
 124 1358 124 1358 355 1358 c 0,36,37
 596 1358 596 1358 644 1363 c 1,38,39
 658 1363 658 1363 658 1316.5 c 128,-1,40
 658 1270 658 1270 644 1270 c 0,41,42
 481 1270 481 1270 481 1154 c 2,43,-1
 481 202 l 2,0,1
EndSplineSet
Ligature2: "'ccmp' Glyph Composition Decomposition subtable" I uni0328
LCarets2: 1 0 
EndChar

StartChar: iogonek
Encoding: 303 303 236
Width: 524
GlyphClass: 2
Flags: W
LayerCount: 2
Fore
SplineSet
401 1185 m 0,0,1
 401 1114 401 1114 342 1074 c 0,2,3
 304 1048 304 1048 256 1048 c 0,4,5
 181 1048 181 1048 139 1106 c 0,6,7
 113 1142 113 1142 113 1185 c 0,8,9
 113 1254 113 1254 170 1296 c 0,10,11
 208 1324 208 1324 256 1324 c 0,12,13
 334 1324 334 1324 374 1266 c 0,14,15
 401 1226 401 1226 401 1185 c 0,0,1
204 -1 m 1,16,17
 117 -3 117 -3 59 -8 c 1,18,19
 44 -8 44 -8 44 30 c 128,-1,20
 44 68 44 68 59 68 c 0,21,22
 164 68 164 68 164 143 c 2,23,-1
 164 557 l 2,24,25
 164 682 164 682 72 682 c 0,26,27
 56 682 56 682 56 719 c 128,-1,28
 56 756 56 756 72 756 c 0,29,30
 122 756 122 756 259 824 c 0,31,32
 322 855 322 855 342 872 c 0,33,34
 355 883 355 883 373 883 c 0,35,36
 401 883 401 883 399 856 c 0,37,38
 393 768 393 768 393 682 c 2,39,-1
 393 143 l 2,40,41
 393 68 393 68 496 68 c 0,42,43
 511 68 511 68 511 30 c 0,44,45
 511 -7 511 -7 496 -8 c 1,46,47
 424 -1 424 -1 322 -0 c 1,48,49
 199 -142 199 -142 199 -246 c 0,50,51
 199 -367 199 -367 322 -367 c 0,52,53
 383 -367 383 -367 425 -336 c 1,54,55
 445 -343 445 -343 445 -375 c 1,56,57
 370 -488 370 -488 228 -488 c 0,58,59
 23 -488 23 -488 23 -304 c 0,60,61
 23 -162 23 -162 204 -1 c 1,16,17
EndSplineSet
Ligature2: "'ccmp' Glyph Composition Decomposition subtable" i uni0328
LCarets2: 1 0 
EndChar

StartChar: dotlessi
Encoding: 305 305 238
Width: 524
GlyphClass: 2
Flags: W
AnchorPoint: "Anchor-0" 258 900 basechar 0
LayerCount: 2
Fore
SplineSet
393 143 m 2,0,1
 393 68 393 68 496 68 c 0,2,3
 511 68 511 68 511 30 c 128,-1,4
 511 -8 511 -8 496 -8 c 0,5,6
 412 0 412 0 287 0 c 0,7,8
 143 0 143 0 59 -8 c 0,9,10
 44 -8 44 -8 44 30 c 128,-1,11
 44 68 44 68 59 68 c 0,12,13
 164 68 164 68 164 143 c 2,14,-1
 164 557 l 2,15,16
 164 682 164 682 72 682 c 0,17,18
 56 682 56 682 56 719 c 128,-1,19
 56 756 56 756 72 756 c 0,20,21
 122 756 122 756 259 824 c 0,22,23
 322 855 322 855 342 872 c 0,24,25
 355 883 355 883 373 883 c 0,26,27
 401 883 401 883 399 856 c 0,28,29
 393 772 393 772 393 682 c 2,30,-1
 393 143 l 2,0,1
EndSplineSet
EndChar

StartChar: Lcommaaccent
Encoding: 315 315 247
Width: 1359
GlyphClass: 2
Flags: W
LayerCount: 2
Fore
SplineSet
481 250 m 2,0,1
 481 140 481 140 548 97 c 0,2,3
 582 76 582 76 623 78 c 2,4,-1
 955 91 l 2,5,6
 1030 94 1030 94 1097 173 c 1,7,8
 1179 278 1179 278 1179 392 c 0,9,10
 1179 410 1179 410 1229.5 410 c 128,-1,11
 1280 410 1280 410 1280 392 c 2,12,-1
 1280 57 l 2,13,14
 1280 15 1280 15 1265 5 c 1,15,16
 1256 -7 1256 -7 1163 -7 c 3,17,18
 978 -7 978 -7 710 -3 c 1,19,-1
 634 -106 l 2,20,21
 625 -118 625 -118 625 -124 c 0,22,23
 625 -134 625 -134 653 -150 c 0,24,25
 777 -216 777 -216 777 -324 c 0,26,27
 777 -410 777 -410 689 -466 c 0,28,29
 615 -514 615 -514 517 -514 c 0,30,31
 393 -514 393 -514 366 -453 c 0,32,33
 360 -440 360 -440 360 -424 c 0,34,35
 360 -382 360 -382 396 -363 c 0,36,37
 409 -356 409 -356 425 -356 c 0,38,39
 456 -356 456 -356 500 -395 c 0,40,41
 543 -432 543 -432 565 -432 c 0,42,43
 618 -432 618 -432 618 -381 c 0,44,45
 618 -304 618 -304 476 -239 c 0,46,47
 456 -230 456 -230 456 -222 c 0,48,49
 456 -217 456 -217 462 -209 c 2,50,-1
 602 -2 l 1,51,52
 436 0 436 0 355 0 c 0,53,54
 283 0 283 0 75 -7 c 1,55,56
 60 -7 60 -7 60 39.5 c 128,-1,57
 60 86 60 86 75 86 c 0,58,59
 237 86 237 86 237 212 c 2,60,-1
 237 1154 l 2,61,62
 237 1270 237 1270 65 1270 c 0,63,64
 51 1270 51 1270 51 1316.5 c 128,-1,65
 51 1363 51 1363 65 1363 c 1,66,67
 112 1358 112 1358 353 1358 c 0,68,69
 588 1358 588 1358 636 1363 c 1,70,71
 650 1363 650 1363 650 1316.5 c 128,-1,72
 650 1270 650 1270 636 1270 c 0,73,74
 481 1270 481 1270 481 1154 c 2,75,-1
 481 250 l 2,0,1
EndSplineSet
Ligature2: "'ccmp' Glyph Composition Decomposition subtable" L uni0327
LCarets2: 1 0 
EndChar

StartChar: lcommaaccent
Encoding: 316 316 248
Width: 524
GlyphClass: 2
Flags: W
LayerCount: 2
Fore
SplineSet
397 -315 m 0,0,1
 397 -401 397 -401 309 -457 c 0,2,3
 235 -505 235 -505 137 -505 c 0,4,5
 13 -505 13 -505 -14 -444 c 0,6,7
 -20 -431 -20 -431 -20 -415 c 0,8,9
 -20 -373 -20 -373 16 -354 c 0,10,11
 29 -347 29 -347 45 -347 c 0,12,13
 76 -347 76 -347 120 -386 c 0,14,15
 163 -423 163 -423 185 -423 c 0,16,17
 238 -423 238 -423 238 -372 c 0,18,19
 238 -295 238 -295 96 -230 c 0,20,21
 76 -221 76 -221 76 -213 c 0,22,23
 76 -208 76 -208 82 -200 c 2,24,-1
 217 0 l 1,25,26
 137 0 137 0 59 -8 c 1,27,28
 44 -8 44 -8 44 30 c 128,-1,29
 44 68 44 68 59 68 c 0,30,31
 164 68 164 68 164 135 c 2,32,-1
 164 1161 l 2,33,34
 164 1286 164 1286 72 1286 c 0,35,36
 56 1286 56 1286 56 1323 c 128,-1,37
 56 1360 56 1360 72 1360 c 0,38,39
 122 1360 122 1360 257 1427 c 0,40,41
 322 1459 322 1459 342 1477 c 1,42,43
 355 1487 355 1487 369 1487 c 0,44,45
 399 1487 399 1487 399 1454 c 1,46,47
 393 1379 393 1379 393 1286 c 2,48,-1
 393 143 l 2,49,50
 393 68 393 68 496 68 c 0,51,52
 511 68 511 68 511 30 c 128,-1,53
 511 -8 511 -8 496 -8 c 1,54,55
 425 0 425 0 325 -0 c 1,56,-1
 254 -97 l 2,57,58
 245 -109 245 -109 245 -115 c 0,59,60
 245 -125 245 -125 273 -141 c 0,61,62
 397 -207 397 -207 397 -315 c 0,0,1
EndSplineSet
Ligature2: "'ccmp' Glyph Composition Decomposition subtable" l uni0327
LCarets2: 1 0 
EndChar

StartChar: Lslash
Encoding: 321 321 253
Width: 1359
GlyphClass: 2
Flags: W
LayerCount: 2
Fore
SplineSet
1280 57 m 2,0,1
 1280 14 1280 14 1265 5 c 0,2,3
 1241 -7 1241 -7 1163 -7 c 3,4,5
 996 -7 996 -7 792.5 -3.5 c 128,-1,6
 589 0 589 0 464 0 c 259,7,8
 339 0 339 0 75 -7 c 17,9,10
 60 -7 60 -7 60 39.5 c 128,-1,11
 60 86 60 86 75 86 c 0,12,13
 237 86 237 86 237 212 c 2,14,-1
 237 483 l 1,15,-1
 59 372 l 2,16,17
 38 359 38 359 5 420 c 0,18,19
 -11 448 -11 448 -11 465 c 0,20,21
 -11 475 -11 475 -6 478 c 2,22,-1
 237 631 l 1,23,-1
 237 1154 l 2,24,25
 237 1270 237 1270 65 1270 c 0,26,27
 51 1270 51 1270 51 1316.5 c 128,-1,28
 51 1363 51 1363 65 1363 c 1,29,30
 112 1358 112 1358 350 1358 c 256,31,32
 588 1358 588 1358 636 1363 c 1,33,34
 650 1363 650 1363 650 1316.5 c 128,-1,35
 650 1270 650 1270 636 1270 c 0,36,37
 481 1270 481 1270 481 1154 c 2,38,-1
 481 783 l 1,39,-1
 733 940 l 2,40,41
 752 952 752 952 785 899.5 c 128,-1,42
 818 847 818 847 798 835 c 2,43,-1
 481 636 l 1,44,-1
 481 250 l 2,45,46
 481 187 481 187 500 151 c 128,-1,47
 519 115 519 115 548.5 95.5 c 128,-1,48
 578 76 578 76 623 78 c 2,49,-1
 955 91 l 2,50,51
 1030 94 1030 94 1080 154.5 c 128,-1,52
 1130 215 1130 215 1154.5 269 c 128,-1,53
 1179 323 1179 323 1179 392 c 0,54,55
 1179 410 1179 410 1229.5 410 c 128,-1,56
 1280 410 1280 410 1280 392 c 2,57,-1
 1280 57 l 2,0,1
EndSplineSet
EndChar

StartChar: lslash
Encoding: 322 322 254
Width: 524
GlyphClass: 2
Flags: W
LayerCount: 2
Fore
SplineSet
639 850 m 2,0,-1
 393 668 l 1,1,-1
 393 143 l 2,2,3
 393 68 393 68 496 68 c 0,4,5
 511 68 511 68 511 30.5 c 128,-1,6
 511 -7 511 -7 496 -8 c 1,7,8
 412 0 412 0 278 0 c 256,9,10
 144 0 144 0 59 -8 c 1,11,12
 44 -8 44 -8 44 29.5 c 128,-1,13
 44 67 44 67 59 68 c 1,14,15
 164 68 164 68 164 143 c 2,16,-1
 164 500 l 1,17,-1
 0 379 l 2,18,19
 -20 364 -20 364 -52 411 c 0,20,21
 -65 430 -65 430 -65 445 c 3,22,23
 -65 454 -65 454 -59 459 c 2,24,-1
 164 623 l 1,25,-1
 164 1161 l 2,26,27
 164 1286 164 1286 72 1286 c 0,28,29
 56 1286 56 1286 56 1323 c 128,-1,30
 56 1360 56 1360 72 1360 c 0,31,32
 122 1360 122 1360 222 1409.5 c 128,-1,33
 322 1459 322 1459 342 1477 c 0,34,35
 355 1487 355 1487 369 1487 c 0,36,37
 399 1487 399 1487 399 1454 c 2,38,-1
 393 1287 l 1,39,-1
 393 1286 l 1,40,-1
 393 793 l 1,41,-1
 580 930 l 2,42,43
 599 944 599 944 633 896 c 0,44,45
 645 878 645 878 645 864 c 3,46,47
 645 854 645 854 639 850 c 2,0,-1
EndSplineSet
EndChar

StartChar: OE
Encoding: 338 338 268
Width: 2010
GlyphClass: 2
Flags: W
LayerCount: 2
Fore
SplineSet
1945 57 m 2,0,1
 1945 15 1945 15 1930 5 c 0,2,3
 1903 -7 1903 -7 1828 -7 c 3,4,5
 1690 -7 1690 -7 1479 -3.5 c 128,-1,6
 1268 0 1268 0 1123 0 c 3,7,8
 1056 0 1056 0 912 -5.5 c 128,-1,9
 768 -11 768 -11 718 -11 c 3,10,11
 441 -11 441 -11 247 179.5 c 128,-1,12
 53 370 53 370 53 661 c 3,13,14
 53 925 53 925 242.5 1141.5 c 128,-1,15
 432 1358 432 1358 722 1358 c 3,16,17
 819 1358 819 1358 933.5 1355 c 128,-1,18
 1048 1352 1048 1352 1133 1352 c 259,19,20
 1220 1352 1220 1352 1417 1354 c 128,-1,21
 1614 1356 1614 1356 1784 1358 c 3,22,23
 1867 1358 1867 1358 1879 1344 c 0,24,25
 1889 1333 1889 1333 1889 1307 c 2,26,-1
 1889 1001 l 2,27,28
 1889 984 1889 984 1838.5 984 c 131,-1,29
 1788 984 1788 984 1788 1001 c 0,30,31
 1788 1131 1788 1131 1689 1206 c 0,32,33
 1628 1252 1628 1252 1564 1255 c 0,34,35
 1521 1257 1521 1257 1268 1265 c 0,36,37
 1241 1265 1241 1265 1241 1225 c 2,38,-1
 1241 716 l 2,39,40
 1247 689 1247 689 1270 687 c 2,41,-1
 1406 687 l 2,42,43
 1527 687 1527 687 1528 778 c 2,44,-1
 1528 877 l 2,45,46
 1528 891 1528 891 1580.5 891 c 128,-1,47
 1633 891 1633 891 1633 877 c 1,48,49
 1626 810 1626 810 1626 644 c 0,50,51
 1626 482 1626 482 1633 419 c 1,52,53
 1633 404 1633 404 1580.5 404 c 128,-1,54
 1528 404 1528 404 1528 419 c 2,55,-1
 1528 505 l 2,56,57
 1528 594 1528 594 1406 594 c 2,58,-1
 1270 594 l 2,59,60
 1241 594 1241 594 1241 563 c 2,61,-1
 1241 222 l 2,62,63
 1241 146 1241 146 1315 107 c 0,64,65
 1355 86 1355 86 1402 86 c 2,66,-1
 1620 91 l 2,67,68
 1777 96 1777 96 1825 228 c 0,69,70
 1843 278 1843 278 1843 344 c 0,71,72
 1843 362 1843 362 1894 362 c 131,-1,73
 1945 362 1945 362 1945 344 c 2,74,-1
 1945 57 l 2,0,1
997 202 m 2,75,-1
 997 1156 l 2,76,77
 997 1209 997 1209 945.5 1236.5 c 128,-1,78
 894 1264 894 1264 831 1268 c 128,-1,79
 768 1272 768 1272 716 1272 c 3,80,81
 561 1272 561 1272 443.5 1120 c 128,-1,82
 326 968 326 968 326 718 c 3,83,84
 326 424 326 424 464 252 c 128,-1,85
 602 80 602 80 731 80 c 3,86,87
 872 80 872 80 934.5 107.5 c 128,-1,88
 997 135 997 135 997 202 c 2,75,-1
EndSplineSet
Substitution2: "'c2sc' Capitals to Small Capitals in Latin lookup 21-1" oe.sc
EndChar

StartChar: oe
Encoding: 339 339 269
Width: 1548
GlyphClass: 2
Flags: W
LayerCount: 2
Fore
SplineSet
1468 612 m 2,0,1
 1468 537 1468 537 1378 537 c 2,2,-1
 967 537 l 2,3,4
 956 537 956 537 956 510 c 0,5,6
 956 316 956 316 1032 206 c 0,7,8
 1096 113 1096 113 1200 113 c 0,9,10
 1277 113 1277 113 1356 160 c 0,11,12
 1383 176 1383 176 1386 178 c 1,13,-1
 1396 180 l 2,14,15
 1418 179 1418 179 1436 150 c 0,16,17
 1442 140 1442 140 1443 131 c 2,18,-1
 1441 121 l 1,19,-1
 1440 119 l 2,20,21
 1379 53 1379 53 1285 12 c 0,22,23
 1201 -25 1201 -25 1114 -25 c 0,24,25
 984 -25 984 -25 877 81 c 0,26,27
 862 96 862 96 848 113 c 1,28,29
 729 -23 729 -23 506 -23 c 0,30,31
 322 -23 322 -23 193 98 c 0,32,33
 74 210 74 210 56 373 c 0,34,35
 53 399 53 399 53 424 c 0,36,37
 53 594 53 594 163 719 c 0,38,39
 275 847 275 847 448 867 c 0,40,41
 476 870 476 870 504 870 c 0,42,43
 709 870 709 870 834 731 c 2,44,-1
 840 725 l 1,45,46
 934 834 934 834 1056 862 c 0,47,48
 1089 870 1089 870 1120 870 c 0,49,50
 1280 870 1280 870 1391 756 c 0,51,52
 1456 689 1456 689 1467 626 c 2,53,-1
 1468 612 l 2,0,1
1245 651 m 0,54,55
 1237 733 1237 733 1180 772 c 0,56,57
 1152 791 1152 791 1122 791 c 3,58,59
 989 791 989 791 969 653 c 0,60,61
 965 627 965 627 989 627 c 2,62,-1
 1223 627 l 2,63,64
 1249 627 1249 627 1245 651 c 0,54,55
702 420 m 0,66,67
 702 605 702 605 631 713 c 0,68,69
 579 793 579 793 506 793 c 0,70,71
 423 793 423 793 366 688 c 0,72,73
 307 579 307 579 307 420 c 0,74,75
 307 235 307 235 380 133 c 0,76,77
 432 61 432 61 504 61 c 0,78,79
 599 61 599 61 654 176 c 0,80,81
 702 275 702 275 702 420 c 0,66,67
EndSplineSet
Substitution2: "'smcp' Lowercase to Small Capitals in Latin lookup 20-1" oe.sc
EndChar

